SplineFontDB: 3.0
FontName: KAN-KaveriNormal
FullName: KAN Kaveri Normal
FamilyName: KAN Kaveri
Weight: Book
Copyright: Copyright (c) 2009-2015, NLCI (http://www.nlci.in/fonts/)
Version: 1.0 Wed May 17 15:30:32 1995
ItalicAngle: 0
UnderlinePosition: -290
UnderlineWidth: 20
Ascent: 1544
Descent: 387
LayerCount: 2
Layer: 0 0 "Back"  1
Layer: 1 0 "Fore"  0
NeedsXUIDChange: 1
XUID: [1021 915 2070801671 66543]
FSType: 0
OS2Version: 0
OS2_WeightWidthSlopeOnly: 0
OS2_UseTypoMetrics: 1
CreationTime: 1250825681
ModificationTime: 1258072254
PfmFamily: 81
TTFWeight: 400
TTFWidth: 5
LineGap: 0
VLineGap: 0
Panose: 5 0 0 0 0 0 0 0 0 0
OS2TypoAscent: -138
OS2TypoAOffset: 1
OS2TypoDescent: -305
OS2TypoDOffset: 1
OS2TypoLinegap: 0
OS2WinAscent: -447
OS2WinAOffset: 1
OS2WinDescent: -274
OS2WinDOffset: 1
HheadAscent: -447
HheadAOffset: 1
HheadDescent: 274
HheadDOffset: 1
OS2SubXSize: 1352
OS2SubYSize: 1255
OS2SubXOff: 0
OS2SubYOff: 276
OS2SupXSize: 1352
OS2SupYSize: 1255
OS2SupXOff: 0
OS2SupYOff: 875
OS2StrikeYSize: 96
OS2StrikeYPos: 500
OS2Vendor: 'Alts'
OS2UnicodeRanges: 00000000.00000000.00000000.00000000
DEI: 91125
TtTable: prep
NPUSHB
 1
 1
SCANTYPE
PUSHW_1
 511
SCANCTRL
EndTTInstrs
ShortTable: maxp 16
  1
  0
  319
  161
  5
  150
  6
  2
  8
  64
  10
  0
  3
  557
  4
  2
EndShort
LangName: 1033 "" "" "Normal" "NLCI:KAN Kaveri Normal" "" "1.0 Wed May 17 15:30:32 1995" 
Encoding: UnicodeBmp
Compacted: 1
UnicodeInterp: none
NameList: Adobe Glyph List
DisplaySize: -72
AntiAlias: 1
FitToEm: 1
WinInfo: 77 7 3
Lookup: 6 0 0 "'akhn' Akhand in Kannada lookup 0"  {"'akhn' Akhand in Kannada lookup 0 subtable"  } ['akhn' ('knda' <'dflt' > ) ]
Lookup: 6 0 0 "'akhn' Akhand in Kannada lookup 1"  {"'akhn' Akhand in Kannada lookup 1 contextual 0"  "'akhn' Akhand in Kannada lookup 1 contextual 1"  } ['akhn' ('knda' <'dflt' > ) ]
Lookup: 4 0 0 "'abvs' Above Base Substitutions in Kannada lookup 2"  {"'abvs' Above Base Substitutions in Kannada lookup 2 subtable"  } ['abvs' ('knda' <'dflt' > ) ]

StartChar: .notdef
Encoding: 65536 -1 0
Width: 965
Flags: HW
LayerCount: 2
Fore
SplineSet
60 0 m 1
 60 1321 l 1
 905 1321 l 1
 905 0 l 1
 60 0 l 1
845 60 m 1
 845 1261 l 1
 120 1261 l 1
 120 60 l 1
 845 60 l 1
EndSplineSet
EndChar

StartChar: exclam
Encoding: 33 33 4
Width: 652
Flags: HW
LayerCount: 2
Fore
SplineSet
327 212 m 256
 389.462 212 445 165.6 445 96 c 0
 445 34.9719 393.928 -22 327 -22 c 256
 267.659 -22 211 26.0647 211 96 c 0
 211 165.6 263.2 212 327 212 c 256
331 1324 m 256
 421.4 1324 448.689 1267.98 444 1200 c 0
 444 1196.67 443 1181.67 441 1155 c 130
 411 765 l 1
 400.333 643 389 505.333 377 352 c 1
 283 352 l 1
 248 765 l 1
 236.862 909.797 233.118 938.642 224.5 1054.5 c 130
 217 1155 l 130
 215 1181.67 214 1196.67 214 1200 c 0
 214 1262.26 237.4 1324 331 1324 c 256
EndSplineSet
EndChar

StartChar: quotedbl
Encoding: 34 34 5
Width: 643
Flags: HW
LayerCount: 2
Fore
SplineSet
83 1283 m 1
 83 1358.2 127.5 1377 165 1377 c 0
 229 1377 245 1328.6 245 1283 c 1
 181 812 l 1
 150 812 l 1
 83 1283 l 1
394 1283 m 1
 394 1339.81 419.54 1377 474 1377 c 0
 529.323 1377 556 1340.22 556 1283 c 1
 490 812 l 1
 459 812 l 1
 394 1283 l 1
EndSplineSet
EndChar

StartChar: numbersign
Encoding: 35 35 6
Width: 1435
Flags: HW
LayerCount: 2
Fore
SplineSet
626 812 m 1
 531 536 l 1
 811 536 l 1
 906 812 l 1
 626 812 l 1
1011 812 m 1
 921 536 l 1
 1232 536 l 1
 1232 440 l 1
 886 440 l 1
 724 -44 l 1
 628 -13 l 1
 777 440 l 1
 497 440 l 1
 333 -44 l 1
 239 -11 l 1
 393 440 l 1
 119 440 l 1
 119 536 l 1
 424 536 l 1
 518 812 l 1
 205 812 l 1
 205 911 l 1
 551 911 l 1
 705 1366 l 1
 803 1335 l 1
 655 911 l 1
 936 911 l 1
 1088 1366 l 1
 1190 1335 l 1
 1043 911 l 1
 1313 911 l 1
 1313 812 l 1
 1011 812 l 1
EndSplineSet
EndChar

StartChar: dollar
Encoding: 36 36 7
Width: 1087
Flags: HW
LayerCount: 2
Fore
SplineSet
593 100 m 1
 649.282 108.442 799 146 799 330 c 0
 799 470.282 706.294 520.18 593 557 c 1
 593 100 l 1
504 1188 m 1
 403.718 1166.89 323 1099.12 323 970 c 0
 323 847 420.097 795.398 503 765 c 1
 504 1188 l 1
590 1291 m 1
 720.4 1291 852.181 1262.63 916 1248 c 1
 916 944 l 1
 816 944 l 1
 788 1148 l 1
 758 1180.67 692 1197 590 1197 c 1
 590 737 l 1
 675.5 711 l 129
 930.437 630.795 965.524 489.346 973 366 c 1
 973 127.661 713.922 6.84133 591 3 c 1
 591 -195 l 1
 502 -195 l 1
 502 3 l 1
 377.13 6.56772 226.159 18.2403 115 50 c 1
 115 378 l 1
 211 378 l 1
 245 163 l 1
 282.597 116.727 410.323 97 501 97 c 1
 501 585 l 1
 148.387 663.358 144 877.975 144 933 c 0
 144 1214.6 438.147 1276.37 502 1285 c 1
 502 1430 l 1
 590 1430 l 1
 590 1291 l 1
EndSplineSet
EndChar

StartChar: percent
Encoding: 37 37 8
Width: 1660
Flags: HW
LayerCount: 2
Fore
SplineSet
362 591 m 256
 477.2 591 506 750 506 921 c 256
 506 1092 477.2 1251 362 1251 c 256
 302 1251 212 1208.09 212 921 c 256
 212 633.914 302 591 362 591 c 256
1305 43 m 0
 1391.4 43 1449 132.8 1449 375 c 256
 1449 616.4 1391.4 706 1305 706 c 0
 1245.4 706 1156 661.219 1156 375 c 256
 1156 87.9812 1245.4 43 1305 43 c 0
361 1325 m 256
 577.901 1325 654 1124.14 654 922 c 0
 654 718.848 578.245 518 361 518 c 256
 143.697 518 66 720.436 66 922 c 0
 66 1122.59 144.056 1325 361 1325 c 256
483 1 m 1
 362 1 l 1
 1182 1296 l 1
 1301 1296 l 1
 483 1 l 1
1304 778 m 256
 1521.02 778 1598 574.761 1598 375 c 256
 1598 175.784 1521.31 -29 1304 -29 c 256
 1086.74 -29 1009 174.854 1009 375 c 256
 1009 575.592 1087.06 778 1304 778 c 256
EndSplineSet
EndChar

StartChar: ampersand
Encoding: 38 38 9
Width: 1350
Flags: HW
LayerCount: 2
Fore
SplineSet
273 406 m 0
 273 244.135 384.2 106 551 106 c 0
 662.748 106 730.858 149.215 805 211 c 1
 409 643 l 1
 286.722 562.887 273 462.108 273 406 c 0
525 759 m 1
 622.77 805.557 699 874.237 699 1018 c 0
 699 1129.67 642.19 1224 520 1224 c 0
 411.222 1224 348 1140.39 348 1044 c 0
 348 1007.12 355.672 920.393 468 813.5 c 130
 525 759 l 1
919 337 m 1
 930.802 351.95 1015.03 467.926 1025 561 c 0
 1025 569.79 1009.91 594.507 992 596 c 1
 888 611 l 1
 888 692 l 1
 1284 692 l 1
 1284 611 l 1
 1146 591 l 1
 1114.97 482.408 1065.46 390.359 1026.5 331.5 c 130
 983 267 l 1
 1139 87 l 1
 1311 78 l 1
 1311 -4 l 1
 954 0 l 1
 954 46 l 1
 868 143 l 1
 778.858 70.7231 659.834 -23 478 -23 c 0
 266.648 -23 78 129 78 357 c 0
 78 547.452 210.091 643.109 334 694 c 1
 291 737.5 l 130
 250.108 779.149 174 875.212 174 988 c 0
 174 1182.4 333.163 1312 539 1312 c 0
 725.374 1312 877 1196 877 1022 c 0
 877 887.6 808.453 780.412 595 686 c 1
 919 337 l 1
EndSplineSet
EndChar

StartChar: quotesingle
Encoding: 39 39 10
Width: 330
Flags: HW
LayerCount: 2
Fore
SplineSet
83 1283 m 1
 83 1339.81 108.54 1377 163 1377 c 0
 218.323 1377 245 1340.22 245 1283 c 1
 181 812 l 1
 150 812 l 1
 83 1283 l 1
EndSplineSet
EndChar

StartChar: parenleft
Encoding: 40 40 11
Width: 726
Flags: HW
LayerCount: 2
Fore
SplineSet
297 554 m 0
 297 212.011 352.371 -139.791 663 -189 c 1
 661 -274 l 1
 258.004 -229.67 117 133.848 117 553 c 0
 117 1014.78 287.169 1338.18 663 1378 c 1
 663 1294 l 1
 353.221 1244.93 297 896.201 297 554 c 0
EndSplineSet
EndChar

StartChar: parenright
Encoding: 41 41 12
Width: 726
Flags: HW
LayerCount: 2
Fore
SplineSet
69 1380 m 1
 468.785 1337.36 618.342 972.693 613 556 c 1
 613 93.8236 445.427 -229.593 69 -271 c 1
 69 -187 l 1
 256.964 -157.223 433 -15.7266 433 556 c 0
 433 897.628 378.939 1246.9 69 1296 c 1
 69 1380 l 1
EndSplineSet
EndChar

StartChar: asterisk
Encoding: 42 42 13
Width: 965
Flags: HW
LayerCount: 2
Fore
SplineSet
382 700 m 1
 249 651 l 1
 252 794 l 1
 447 950 l 1
 470 933 l 1
 382 700 l 1
439 977 m 1
 189 991 l 1
 103 1100 l 1
 239 1140 l 1
 447 1004 l 1
 439 977 l 1
581 701 m 1
 493 932 l 1
 516 949 l 1
 711 793 l 1
 714 650 l 1
 581 701 l 1
494 1022 m 1
 468 1022 l 1
 402 1263 l 1
 481 1380 l 1
 562 1263 l 1
 494 1022 l 1
774 990 m 1
 526 976 l 1
 517 1003 l 1
 725 1139 l 1
 861 1099 l 1
 774 990 l 1
EndSplineSet
EndChar

StartChar: plus
Encoding: 43 43 14
Width: 1931
Flags: HW
LayerCount: 2
Fore
SplineSet
1024 519 m 1
 1024 0 l 1
 906 0 l 1
 906 519 l 1
 387 519 l 1
 387 638 l 1
 906 638 l 1
 906 1157 l 1
 1024 1157 l 1
 1024 638 l 1
 1543 638 l 1
 1543 519 l 1
 1024 519 l 1
EndSplineSet
EndChar

StartChar: comma
Encoding: 44 44 15
Width: 540
Flags: HW
LayerCount: 2
Fore
SplineSet
238 231 m 0
 301.6 231 392.812 198.095 397 18 c 1
 397 -179.424 230.187 -313.334 63 -326 c 1
 63 -257 l 1
 209.819 -224.7 274 -151.166 274 13 c 1
 153 13 l 1
 143.403 22.5969 120 54.9912 120 100 c 0
 120 171.52 172.644 231 238 231 c 0
EndSplineSet
EndChar

StartChar: hyphen
Encoding: 45 45 16
Width: 617
Flags: HW
LayerCount: 2
Fore
SplineSet
84 392 m 1
 84 536 l 1
 531 536 l 1
 531 392 l 1
 84 392 l 1
EndSplineSet
EndChar

StartChar: period
Encoding: 46 46 17
Width: 540
Flags: HW
LayerCount: 2
Fore
SplineSet
249 233 m 0
 314.335 233 378 182.908 378 106 c 0
 378 28.0589 314.581 -22 249 -22 c 0
 182.889 -22 122 28.1404 122 106 c 0
 122 182.2 182.325 233 249 233 c 0
EndSplineSet
EndChar

StartChar: slash
Encoding: 47 47 18
Width: 946
Flags: HW
LayerCount: 2
Fore
SplineSet
123 -179 m 1
 0 -179 l 1
 822 1295 l 1
 946 1295 l 1
 123 -179 l 1
EndSplineSet
EndChar

StartChar: zero
Encoding: 48 48 19
Width: 1087
Flags: HW
LayerCount: 2
Fore
SplineSet
545 67 m 256
 788.865 67 805 483.589 805 646 c 256
 805 807.095 789.282 1228 545 1228 c 256
 337.8 1228 286 923.518 286 646 c 256
 286 485.182 301.612 67 545 67 c 256
544 1322 m 256
 897.369 1322 1009 951.166 1009 646 c 0
 1009 226.05 823 -30 544 -30 c 256
 193.96 -30 82 337.941 82 646 c 0
 82 949.792 191.217 1322 544 1322 c 256
EndSplineSet
EndChar

StartChar: one
Encoding: 49 49 20
Width: 1087
Flags: HW
LayerCount: 2
Fore
SplineSet
635 134 m 2
 635 113.025 652.355 93 676 93 c 2
 857 86 l 1
 857 0 l 1
 208 0 l 1
 208 86 l 1
 403 93 l 2
 426.675 93 444 113.023 444 134 c 2
 444 1159 l 1
 146 1108 l 1
 146 1194 l 1
 562 1323 l 1
 635 1323 l 1
 635 134 l 2
EndSplineSet
EndChar

StartChar: two
Encoding: 50 50 21
Width: 1087
Flags: HW
LayerCount: 2
Fore
SplineSet
547 1322 m 0
 795.942 1322 977 1172.4 977 948 c 0
 977 739.6 780.849 557.304 631.5 427 c 128
 581.833 383.667 529 340 473 296 c 130
 303 162 l 1
 875 162 l 1
 908 327 l 1
 1003 327 l 1
 1003 -1 l 1
 90 0 l 1
 90 129 l 1
 360.5 352 l 130
 659.412 598.875 763 759.613 763 927 c 0
 763 1097.51 652.723 1216 489 1216 c 0
 400.293 1216 340.145 1168 332 1168 c 1
 332 954 l 1
 325.59 948.231 295.2 923 240 923 c 0
 197.269 923 126 945.6 126 1036 c 0
 126 1193.71 316.664 1322 547 1322 c 0
EndSplineSet
EndChar

StartChar: three
Encoding: 51 51 22
Width: 1087
Flags: HW
LayerCount: 2
Fore
SplineSet
653 681 m 1
 820.221 675.426 1003.62 576.158 996 368 c 1
 996 129.2 761.285 -30 492 -30 c 0
 225.373 -30 95 105.6 95 196 c 0
 95 237.106 122.65 297 208 297 c 0
 219.752 297 255.687 296.542 273 285 c 1
 330 114 l 1
 371.743 90.3081 428.967 65 496 65 c 0
 676 65 796 210.137 796 365 c 0
 796 557.8 626.342 606 509 606 c 0
 462.6 606 439.301 605.087 393 602 c 1
 393 721 l 1
 402.8 721 412.6 720 442 720 c 0
 565.086 720 749 768.8 749 964 c 0
 749 1120.71 633.756 1216 497 1216 c 0
 432.481 1216 365.118 1193.34 326 1164 c 1
 326 971 l 1
 301.866 961.347 287.627 948 241 948 c 0
 199.098 948 132 969.03 132 1054 c 0
 132 1202.9 328.069 1323 556 1323 c 0
 781.377 1323 950 1190.2 950 991 c 0
 950 937.075 937.534 760.037 653 681 c 1
EndSplineSet
EndChar

StartChar: four
Encoding: 52 52 23
Width: 1087
Flags: HW
LayerCount: 2
Fore
SplineSet
664 1079 m 1
 230 516 l 1
 664 516 l 1
 664 1079 l 1
845 385 m 1
 845 -30 l 1
 664 -30 l 1
 664 385 l 1
 77 385 l 1
 77 517 l 1
 710 1325 l 1
 844 1325 l 1
 844 515 l 1
 1008 515 l 1
 1008 384 l 1
 845 385 l 1
EndSplineSet
EndChar

StartChar: five
Encoding: 53 53 24
Width: 1087
Flags: HW
LayerCount: 2
Fore
SplineSet
562 814 m 0
 815.792 814 995.213 682.794 998 418 c 1
 998 207.254 864.75 -30 456 -30 c 0
 255.677 -30 92 98.0417 92 197 c 0
 92 282.6 163.331 304 212 304 c 0
 222.667 304 233 303 243 301 c 130
 263 297 l 1
 336 120 l 1
 360.443 95.5572 434.634 66 482 66 c 0
 689.555 66 799 241.319 799 372 c 0
 799 580.295 665.905 689 472 689 c 0
 388.725 689 272.237 660.404 167 626 c 1
 167 1295 l 1
 912 1295 l 1
 912 1131 l 1
 303 1131 l 1
 303 765 l 1
 310.562 765 331.178 782.205 468 806 c 128
 498.667 811.333 530 814 562 814 c 0
EndSplineSet
EndChar

StartChar: six
Encoding: 54 54 25
Width: 1087
Flags: HW
LayerCount: 2
Fore
SplineSet
545 72 m 256
 736.914 72 819.367 241.651 812 416 c 1
 812 591.977 725.027 716 542 716 c 0
 444.89 716 342.358 664.768 284 621 c 1
 282.667 601 282 582.167 282 564.5 c 130
 282 517 l 2
 282 135.625 439.8 72 545 72 c 256
614 842 m 0
 866.947 842 1017.08 656.377 1012 443 c 1
 1012 160.4 803.09 -28 544 -28 c 256
 359.6 -28 83 56.9262 83 556 c 0
 83 925.722 281.201 1326 853 1326 c 1
 853 1207 l 1
 787 1208 l 1
 504.771 1214.14 326.05 983.052 292 722 c 1
 374.29 791.946 473.938 842 614 842 c 0
EndSplineSet
EndChar

StartChar: seven
Encoding: 55 55 26
Width: 1087
Flags: HW
LayerCount: 2
Fore
SplineSet
372 33 m 1
 372 -31 l 1
 168 -31 l 1
 805 1131 l 1
 211 1131 l 1
 180 956 l 1
 82 956 l 1
 82 1295 l 1
 1006 1295 l 1
 1006 1188 l 1
 372 33 l 1
EndSplineSet
EndChar

StartChar: eight
Encoding: 56 56 27
Width: 1087
Flags: HW
LayerCount: 2
Fore
SplineSet
542 73 m 0
 688.887 73 805.843 166.081 812 320 c 1
 812 415.4 767.023 485.891 593.5 558.5 c 129
 432 624 l 1
 285.675 546.773 259 443.795 259 361 c 0
 259 196.271 354.586 73 542 73 c 0
636 718 m 1
 712.025 773.053 770.315 848.939 776 974 c 1
 776 1120.16 682.4 1224 542 1224 c 0
 409.4 1224 321 1119.82 321 1005 c 0
 321 890.2 401.961 803.393 636 718 c 1
719 679 m 1
 934.13 604.172 1004 481.6 1004 350 c 0
 1004 122 796.534 -30 541 -30 c 0
 266.587 -30 78 120.8 78 347 c 0
 78 475 148.062 590.043 352 667 c 1
 257.359 705.827 129 797.919 129 958 c 0
 129 1174 288.337 1318 540 1318 c 0
 792.748 1318 952 1159.57 952 989 c 0
 952 803 772.611 704.316 719 679 c 1
EndSplineSet
EndChar

StartChar: nine
Encoding: 57 57 28
Width: 1087
Flags: HW
LayerCount: 2
Fore
SplineSet
276 879 m 0
 276 703.023 362.973 579 546 579 c 0
 643.11 579 745.642 630.232 804 674 c 1
 805.333 694 806 712.833 806 730.5 c 128
 806 748.167 806.667 764.333 808 779 c 1
 808 1159.15 650.8 1224 546 1224 c 0
 351.325 1224 276 1056.63 276 879 c 0
543 1326 m 0
 728.2 1326 1006 1240.65 1006 741 c 0
 1006 281.356 724.804 -29 235 -29 c 1
 235 90 l 1
 300 89 l 2
 348.617 87.9431 596.217 86.4337 737.5 369 c 128
 767.833 429.667 788 498.333 798 575 c 1
 701.271 490.672 593.369 455 477 455 c 0
 232.025 455 77 625.997 77 853 c 0
 77 1117.5 263.4 1326 543 1326 c 0
EndSplineSet
EndChar

StartChar: colon
Encoding: 58 58 29
Width: 540
Flags: HW
LayerCount: 2
Fore
SplineSet
249 233 m 0
 314.335 233 378 182.908 378 106 c 0
 378 28.0589 314.581 -22 249 -22 c 0
 182.889 -22 122 28.1404 122 106 c 0
 122 182.2 182.325 233 249 233 c 0
249 951 m 0
 314.673 951 378 900.272 378 823 c 256
 378 746.077 314.331 696 249 696 c 0
 182.325 696 122 746.8 122 823 c 256
 122 899.8 182 951 249 951 c 0
EndSplineSet
EndChar

StartChar: semicolon
Encoding: 59 59 30
Width: 540
Flags: HW
LayerCount: 2
Fore
SplineSet
238 231 m 0
 301.6 231 392.812 198.095 397 18 c 1
 397 -179.424 230.187 -313.334 63 -326 c 1
 63 -257 l 1
 209.819 -224.7 274 -151.166 274 13 c 1
 153 13 l 1
 143.403 22.5969 120 54.9912 120 100 c 0
 120 171.52 172.644 231 238 231 c 0
250 948 m 0
 325 948 375 888.06 375 820 c 256
 375 743.8 313.881 693 248 693 c 0
 181.325 693 121 743.8 121 820 c 256
 121 895.491 182 948 250 948 c 0
EndSplineSet
EndChar

StartChar: less
Encoding: 60 60 31
Width: 1931
Flags: HW
LayerCount: 2
Fore
SplineSet
386 519 m 1
 386 638 l 1
 1543 1082 l 1
 1543 963 l 1
 509 579 l 1
 1543 196 l 1
 1543 77 l 1
 386 519 l 1
EndSplineSet
EndChar

StartChar: equal
Encoding: 61 61 32
Width: 1931
Flags: HW
LayerCount: 2
Fore
SplineSet
386 344 m 1
 386 463 l 1
 1543 463 l 1
 1543 344 l 1
 386 344 l 1
386 694 m 1
 386 813 l 1
 1543 813 l 1
 1543 694 l 1
 386 694 l 1
EndSplineSet
EndChar

StartChar: greater
Encoding: 62 62 33
Width: 1931
Flags: HW
LayerCount: 2
Fore
SplineSet
386 75 m 1
 386 194 l 1
 1420 577 l 1
 386 961 l 1
 386 1080 l 1
 1543 636 l 1
 1543 517 l 1
 386 75 l 1
EndSplineSet
EndChar

StartChar: question
Encoding: 63 63 34
Width: 938
Flags: HW
LayerCount: 2
Fore
SplineSet
412 1322 m 0
 654.911 1322 822.24 1167.18 805 980 c 1
 805 731.353 583.107 626.714 442 564 c 1
 442 350 l 1
 334 350 l 1
 334 630 l 1
 439.825 665.275 613 764 613 965 c 0
 613 1177.8 474.288 1231 338 1231 c 1
 259 1034 l 1
 230 1034 l 2
 158.992 1034 106 1063.03 106 1136 c 0
 106 1210.4 181.513 1322 412 1322 c 0
396 209 m 0
 467.682 209 514 151.261 514 91 c 256
 514 20.6837 454.947 -25 396 -25 c 256
 326.4 -25 280 30.5375 280 93 c 256
 280 162.6 332.2 209 396 209 c 0
EndSplineSet
EndChar

StartChar: at
Encoding: 64 64 35
Width: 1807
Flags: HW
LayerCount: 2
Fore
SplineSet
703 443 m 0
 703 262.4 793 236 853 236 c 0
 937.842 236 1007.35 310.216 1048 359 c 1
 1127 759 l 1
 1133.1 795.614 1078.14 867 1013 867 c 0
 827 867 703 685.533 703 443 c 0
1012 1339 m 0
 1379.67 1339 1680.95 1132.01 1665 720 c 1
 1665 321.716 1385.6 112 1197 112 c 0
 1113 112 1047 144 1047 272 c 1
 909.986 133.159 824.6 114 769 114 c 0
 629.023 114 530 235.652 530 427 c 0
 530 719.134 765 951 1009 951 c 0
 1083.07 951 1157.49 920.172 1196 900 c 1
 1230 944 l 1
 1337 944 l 1
 1336.33 940.667 1333.83 929.833 1329.5 911.5 c 130
 1210 375 l 2
 1204.67 353 1202 332.833 1202 314.5 c 128
 1202 259.474 1225.53 226 1280 226 c 0
 1395.37 226 1573 419.989 1573 725 c 0
 1573 1079.18 1312.34 1254 1035 1254 c 0
 585 1254 285 924.85 285 504 c 0
 285 116.198 528.196 -189 959 -189 c 0
 1172.94 -189 1332.29 -120.931 1466 -48 c 1
 1493 -117 l 1
 1336.73 -198.743 1145 -285 913 -285 c 0
 497.533 -285 148 3.64922 148 468 c 0
 148 1032.3 571.089 1339 1012 1339 c 0
EndSplineSet
EndChar

StartChar: A
Encoding: 65 65 36
Width: 1301
Flags: HW
LayerCount: 2
Fore
SplineSet
606 1077 m 1
 419 571 l 1
 796 571 l 1
 606 1077 l 1
832 0 m 1
 832 82 l 1
 943 91 l 2
 955 91 965.777 113.279 963 123 c 2
 831 476 l 1
 386 476 l 1
 258 129 l 1
 255.455 116.275 268.296 92 284 92 c 1
 398 83 l 1
 398 1 l 1
 10 1 l 1
 10 83 l 1
 122 106 l 1
 571 1326 l 1
 716 1326 l 1
 1163 135 l 1
 1171.15 109.185 1176.13 103.696 1202 100 c 2
 1288 85 l 1
 1288 3 l 1
 832 0 l 1
EndSplineSet
EndChar

StartChar: B
Encoding: 66 66 37
Width: 1168
Flags: HW
LayerCount: 2
Fore
SplineSet
738 687 m 1
 896.526 687 1097.46 619.364 1092 382 c 1
 1092 78 817.458 2 604 2 c 2
 64 2 l 1
 64 84 l 1
 165 91 l 2
 197.758 92.6379 204 121.75 204 132 c 2
 204 1161 l 2
 204 1171.25 197.758 1200.36 165 1202 c 2
 64 1209 l 1
 64 1291 l 1
 580 1291 l 2
 806.373 1291 1014 1229 1014 981 c 256
 1014 922.867 1004.27 756.738 738 687 c 1
521 102 m 2
 803.524 102 881.439 200.008 884 369 c 1
 884 521.4 806.323 623 574 623 c 0
 523 623 438 614 404 614 c 1
 404 104 l 1
 419.333 103.333 434.333 103 449 103 c 0
 461 102.333 473.667 102 487 102 c 130
 521 102 l 2
470 720 m 2
 675.717 720 806 779.369 806 976 c 0
 806 1117 722.566 1211 510 1211 c 0
 500 1211 489.333 1210.83 478 1210.5 c 130
 445.5 1209.5 l 130
 410.698 1208.38 410.7 1208 402 1208 c 1
 402 720 l 1
 470 720 l 2
EndSplineSet
EndChar

StartChar: C
Encoding: 67 67 38
Width: 1210
Flags: HW
LayerCount: 2
Fore
SplineSet
306 648 m 0
 306 326.064 456.796 75 794 75 c 0
 841.574 75 898.262 84.7553 934 101 c 128
 941.333 104.333 945.333 106 946 106 c 0
 971.56 114.52 979.242 132.45 981 143 c 2
 1025 353 l 1
 1137 353 l 1
 1135 44 l 1
 1099 31.5 l 130
 1033.36 8.62381 890.8 -29 752 -29 c 0
 318.054 -29 81 298.672 81 649 c 0
 81 1043.66 350.6 1323 755 1323 c 0
 864.4 1323 962.493 1299.67 1028.5 1281 c 130
 1136 1250 l 1
 1136 948 l 1
 1021 948 l 1
 993 1123 l 1
 988.61 1180.07 839.069 1214 768 1214 c 0
 547.825 1214 306 1064.71 306 648 c 0
EndSplineSet
EndChar

StartChar: D
Encoding: 68 68 39
Width: 1343
Flags: HW
LayerCount: 2
Fore
SplineSet
559 91 m 1
 951.8 91 1048.13 359.804 1050 646 c 1
 1050 940.119 950 1200 550 1200 c 2
 403 1200 l 1
 403 90 l 1
 559 91 l 1
561 1286 m 2
 971.529 1286 1269.66 1080.5 1267 645 c 1
 1267 367.431 1133.6 -3 600 -3 c 2
 64 -3 l 1
 64 79 l 1
 165 86 l 2
 199.354 87.7177 206 116.65 206 127 c 2
 206 1156 l 2
 206 1166.35 199.354 1195.28 165 1197 c 2
 64 1204 l 1
 64 1286 l 1
 561 1286 l 2
EndSplineSet
EndChar

StartChar: E
Encoding: 69 69 40
Width: 1125
Flags: HW
LayerCount: 2
Fore
SplineSet
728 583 m 1
 728 595.925 711.655 617 694 617 c 2
 405 617 l 1
 405 86 l 1
 893 86 l 2
 912.8 86 925.222 114.218 926 122 c 2
 960 313 l 1
 1063 313 l 1
 1063 -9 l 1
 62 0 l 1
 62 82 l 1
 161 89 l 2
 195.354 90.7177 202 119.65 202 130 c 2
 202 1159 l 2
 202 1169.35 195.354 1198.28 161 1200 c 2
 62 1207 l 1
 62 1289 l 1
 1000 1289 l 1
 1000 1002 l 1
 885 1002 l 1
 856 1160 l 1
 854.663 1178.71 840.722 1196 823 1196 c 2
 405 1196 l 1
 405 716 l 1
 694 716 l 2
 712.8 716 728 735.2 728 748 c 1
 747 880 l 1
 845 880 l 1
 845 450 l 1
 747 450 l 1
 728 583 l 1
EndSplineSet
EndChar

StartChar: F
Encoding: 70 70 41
Width: 1044
Flags: HW
LayerCount: 2
Fore
SplineSet
873 989 m 1
 846 1166 l 2
 843.595 1182.83 833.467 1200 815 1200 c 2
 404 1200 l 1
 404 698 l 1
 699 698 l 2
 718.8 698 730.933 721.33 732 732 c 2
 749 867 l 1
 845 867 l 1
 845 433 l 1
 749 433 l 1
 732 567 l 2
 731.097 576.028 718.8 601 699 601 c 2
 404 601 l 1
 404 130 l 2
 404 119.75 410.242 90.6379 443 89 c 2
 572 82 l 1
 572 0 l 1
 65 0 l 1
 65 82 l 1
 166 89 l 2
 198.758 90.6379 205 119.75 205 130 c 2
 205 1159 l 2
 205 1169.25 198.758 1198.36 166 1200 c 2
 49 1207 l 1
 49 1289 l 1
 988 1289 l 1
 988 983 l 1
 873 989 l 1
EndSplineSet
EndChar

StartChar: G
Encoding: 71 71 42
Width: 1341
Flags: HW
LayerCount: 2
Fore
SplineSet
799 78 m 0
 883.93 78 957.544 106 967 106 c 1
 967 491 l 2
 967 504.555 960.678 528.366 928 530 c 2
 799 539 l 1
 799 622 l 1
 1302 622 l 1
 1302 539 l 1
 1195 532 l 2
 1162.32 530.366 1156 506.555 1156 493 c 2
 1156 48 l 1
 1074.42 18.4628 913.6 -27 752 -27 c 0
 326.489 -27 81 288.471 81 651 c 0
 81 1083.54 375.346 1325 779 1325 c 0
 836.8 1325 927.77 1320.15 1068 1283.5 c 130
 1156 1261 l 1
 1156 949 l 1
 1041 949 l 1
 1010 1122 l 1
 1006.62 1149.05 995.153 1162.63 894 1195 c 128
 860.982 1205.57 818.731 1214 775 1214 c 0
 464.681 1214 306 979.357 306 658 c 0
 306 221.539 561.925 78 799 78 c 0
EndSplineSet
EndChar

StartChar: H
Encoding: 72 72 43
Width: 1435
Flags: HW
LayerCount: 2
Fore
SplineSet
884 0 m 1
 884 82 l 1
 994 89 l 2
 1026.84 90.7282 1033 119.745 1033 130 c 2
 1033 628 l 1
 398 628 l 1
 398 130 l 2
 398 119.75 404.242 90.6379 437 89 c 2
 547 82 l 1
 547 0 l 1
 59 0 l 1
 59 82 l 1
 158 89 l 2
 192.354 90.7177 199 119.65 199 130 c 2
 199 1159 l 2
 199 1168.94 192.274 1196.29 158 1198 c 2
 59 1205 l 1
 59 1289 l 1
 547 1289 l 1
 547 1205 l 1
 437 1198 l 2
 404.322 1196.37 398 1170.89 398 1159 c 2
 398 725 l 1
 1033 725 l 1
 1033 1159 l 2
 1033 1168.85 1026.75 1196.28 994 1198 c 2
 884 1205 l 1
 884 1289 l 1
 1372 1289 l 1
 1372 1205 l 1
 1273 1198 l 2
 1238.73 1196.29 1232 1168.94 1232 1159 c 2
 1232 130 l 2
 1232 119.65 1238.65 90.7177 1273 89 c 2
 1372 82 l 1
 1372 0 l 1
 884 0 l 1
EndSplineSet
EndChar

StartChar: I
Encoding: 73 73 44
Width: 637
Flags: HW
LayerCount: 2
Fore
SplineSet
64 0 m 1
 64 82 l 1
 179 89 l 2
 211.758 90.6379 218 119.75 218 130 c 2
 218 1159 l 2
 218 1170.89 211.678 1196.37 179 1198 c 2
 64 1205 l 1
 64 1289 l 1
 573 1289 l 1
 573 1205 l 1
 456 1198 l 2
 423.249 1196.28 417 1168.85 417 1159 c 2
 417 130 l 2
 417 119.745 423.165 90.7282 456 89 c 2
 573 82 l 1
 573 0 l 1
 64 0 l 1
EndSplineSet
EndChar

StartChar: J
Encoding: 74 74 45
Width: 936
Flags: HW
LayerCount: 2
Fore
SplineSet
297 71 m 0
 442.2 71 539 154.825 539 475 c 2
 539 1162 l 2
 539 1172.25 532.758 1201.36 500 1203 c 2
 379 1210 l 1
 379 1292 l 1
 889 1292 l 1
 889 1210 l 1
 774 1204 l 2
 741.165 1202.27 735 1173.26 735 1163 c 2
 735 489 l 2
 735 100.456 566.2 -28 313 -28 c 0
 220.2 -28 125.34 0.22 81 15 c 130
 54 24 l 1
 54 354 l 1
 169 354 l 1
 211 119 l 2
 214.376 95.368 234.168 71 297 71 c 0
EndSplineSet
EndChar

StartChar: K
Encoding: 75 75 46
Width: 1232
Flags: HW
LayerCount: 2
Fore
SplineSet
1184 1208 m 1
 1140.51 1205.36 1069.37 1197 1056 1197 c 1
 662 726 l 1
 1094 93 l 1
 1233 84 l 1
 1233 2 l 1
 893 0 l 1
 893 59 l 1
 534 574 l 1
 400 574 l 1
 400 132 l 2
 400 121.65 406.646 92.7177 441 91 c 2
 551 84 l 1
 551 2 l 1
 61 2 l 1
 61 84 l 1
 162 91 l 2
 194.758 92.6379 201 121.75 201 132 c 2
 201 1161 l 2
 201 1171.25 194.758 1200.36 162 1202 c 2
 61 1209 l 1
 61 1291 l 1
 551 1291 l 1
 551 1209 l 1
 441 1202 l 2
 406.646 1200.28 400 1171.35 400 1161 c 2
 400 655 l 1
 469 655 l 1
 889 1168 l 2
 896.584 1178.11 887.005 1197.56 874 1199 c 2
 775 1208 l 1
 775 1290 l 1
 1184 1290 l 1
 1184 1208 l 1
EndSplineSet
EndChar

StartChar: L
Encoding: 76 76 47
Width: 1024
Flags: HW
LayerCount: 2
Fore
SplineSet
51 0 m 1
 51 82 l 1
 163 89 l 2
 195.758 90.6379 202 119.75 202 130 c 2
 202 1159 l 2
 202 1169.25 195.758 1198.36 163 1200 c 2
 51 1207 l 1
 51 1289 l 1
 544 1289 l 1
 544 1207 l 1
 442 1200 l 2
 407.646 1198.28 401 1169.35 401 1159 c 2
 401 91 l 1
 806 91 l 2
 818.895 91 845.387 102.032 847 123 c 1
 878 354 l 1
 990 354 l 1
 990 -5 l 1
 51 0 l 1
EndSplineSet
EndChar

StartChar: M
Encoding: 77 77 48
Width: 1691
Flags: HW
LayerCount: 2
Fore
SplineSet
1144 0 m 1
 1144 82 l 1
 1246 89 l 2
 1280.35 90.7177 1287 119.65 1287 130 c 2
 1287 1194 l 1
 843 -3 l 1
 747 -3 l 1
 318 1176 l 1
 318 130 l 2
 318 119.65 324.646 90.7177 359 89 c 2
 469 82 l 1
 469 0 l 1
 52 0 l 1
 52 82 l 1
 162 89 l 2
 194.758 90.6379 201 119.75 201 130 c 2
 201 1159 l 2
 201 1169.25 194.758 1198.36 162 1200 c 2
 52 1207 l 1
 52 1289 l 1
 484 1289 l 1
 484 1238 l 1
 833 290 l 1
 1182 1232 l 1
 1182 1289 l 1
 1626 1289 l 1
 1626 1207 l 1
 1522 1200 l 2
 1487.65 1198.28 1481 1169.35 1481 1159 c 2
 1481 130 l 2
 1481 119.65 1487.65 90.7177 1522 89 c 2
 1626 82 l 1
 1626 0 l 1
 1144 0 l 1
EndSplineSet
EndChar

StartChar: N
Encoding: 78 78 49
Width: 1392
Flags: HW
LayerCount: 2
Fore
SplineSet
1228 1204 m 2
 1195.24 1202.36 1189 1173.25 1189 1163 c 2
 1189 1 l 1
 1039 1 l 1
 321 1082 l 1
 321 134 l 2
 321 123.75 327.242 94.6379 360 93 c 2
 470 86 l 1
 470 4 l 1
 53 4 l 1
 53 86 l 1
 163 93 l 2
 197.354 94.7177 204 123.65 204 134 c 2
 204 1163 l 2
 204 1173.35 197.354 1202.28 163 1204 c 2
 49 1211 l 1
 49 1293 l 1
 431 1293 l 1
 431 1245 l 1
 1074 274 l 1
 1074 1160 l 2
 1074 1170.26 1067.84 1199.27 1035 1201 c 2
 925 1208 l 1
 925 1290 l 1
 1337 1290 l 1
 1337 1208 l 1
 1228 1204 l 2
EndSplineSet
EndChar

StartChar: O
Encoding: 79 79 50
Width: 1411
Flags: HW
LayerCount: 2
Fore
SplineSet
302 647 m 256
 302 311.466 450.755 76 704 76 c 0
 1010.93 76 1109.73 382.658 1112 644 c 1
 1112 911.898 1007.81 1213 710 1213 c 0
 408.442 1213 302 919.333 302 647 c 256
706 1322 m 0
 1087.27 1322 1336.67 1016.09 1334 645 c 1
 1334 270.26 1083.2 -31 707 -31 c 0
 329.6 -31 78 255.771 78 646 c 0
 78 1031.73 329.2 1322 706 1322 c 0
EndSplineSet
EndChar

StartChar: P
Encoding: 80 80 51
Width: 1118
Flags: HW
LayerCount: 2
Fore
SplineSet
511 583 m 0
 775 583 841 746.963 841 903 c 0
 841 1080.6 756.15 1199 500 1199 c 2
 405 1199 l 1
 405 591 l 1
 426.2 591 458 583 511 583 c 0
512 1291 m 2
 842.244 1291 1046.8 1205.87 1041 907 c 1
 1041 615.628 808.237 487 539 487 c 0
 472 487 431.8 491 405 491 c 1
 405 132 l 2
 405 121.75 411.242 92.6379 444 91 c 2
 571 84 l 1
 571 2 l 1
 64 2 l 1
 64 84 l 1
 165 91 l 2
 199.354 92.7177 206 121.65 206 132 c 2
 206 1161 l 2
 206 1171.35 199.354 1200.28 165 1202 c 2
 50 1209 l 1
 50 1291 l 1
 512 1291 l 2
EndSplineSet
EndChar

StartChar: Q
Encoding: 81 81 52
Width: 1426
Flags: HW
LayerCount: 2
Fore
SplineSet
713 76 m 0
 959 76 1116.71 290.787 1123 646 c 1
 1123 914.972 1016.75 1216 714 1216 c 0
 410.938 1216 304 923.976 304 650 c 0
 304 384.056 413.477 76 713 76 c 0
710 1321 m 0
 1117.54 1321 1349 1004.53 1349 646 c 0
 1349 294.214 1148.46 33.033 817 -20 c 1
 818.114 -140.272 880.074 -252 1082 -252 c 0
 1163.67 -252 1223.85 -241.025 1266 -234 c 1
 1266 -316 l 1
 1244.47 -318.153 1130.97 -347 982 -347 c 0
 706.754 -347 612 -218.2 612 -25 c 1
 278.932 21.3399 77 294.944 77 644 c 0
 77 1027.7 330.2 1321 710 1321 c 0
EndSplineSet
EndChar

StartChar: R
Encoding: 82 82 53
Width: 1253
Flags: HW
LayerCount: 2
Fore
SplineSet
495 671 m 2
 743.427 671 823.342 763.671 828 943 c 1
 828 1139.63 690.14 1199 489 1199 c 2
 401 1199 l 1
 401 671 l 1
 495 671 l 2
729 630 m 1
 1145.51 533.883 834.407 86 1256 86 c 1
 1250 -6 l 1
 1246 -6 1240 -7.16667 1232 -9.5 c 130
 1203.5 -17.5 l 130
 1181.76 -23.4292 1153.78 -29 1126 -29 c 0
 665.855 -29 965.519 575 492 575 c 2
 462 575 l 130
 434.4 575 434.4 574 416 574 c 130
 408 574 l 1
 408 134 l 2
 408 123.75 414.242 94.6379 447 93 c 2
 548 86 l 1
 548 4 l 1
 69 4 l 1
 69 86 l 1
 168 93 l 2
 202.354 94.7177 209 123.65 209 134 c 2
 209 1163 l 2
 209 1173.35 202.354 1202.28 168 1204 c 2
 69 1211 l 1
 69 1293 l 1
 572 1293 l 2
 841.55 1293 1044 1220.52 1044 951 c 0
 1044 744.072 888.493 666.605 729 630 c 1
EndSplineSet
EndChar

StartChar: S
Encoding: 83 83 54
Width: 1006
Flags: HW
LayerCount: 2
Fore
SplineSet
300 990 m 0
 300 679.313 935.753 777.225 930 363 c 1
 930 200.821 818.659 -29 420 -29 c 0
 288.501 -29 170.347 -1.33176 79 41 c 1
 79 383 l 1
 200 383 l 1
 225 165 l 1
 230.646 102.895 384.712 81 449 81 c 0
 619.877 81 731 171.4 731 307 c 0
 731 355 717.337 450.286 506 547 c 129
 395 599 l 2
 215.164 684.346 98 759.662 98 945 c 0
 98 1170.6 284.266 1321 542 1321 c 0
 650 1321 747.297 1297.77 812 1278 c 130
 880 1257 l 1
 880 957 l 1
 770 957 l 1
 741 1141 l 2
 739.512 1154.39 724.653 1167.17 715 1172 c 0
 714.29 1172 667.921 1215 548 1215 c 0
 389.708 1215 300 1117.73 300 990 c 0
EndSplineSet
EndChar

StartChar: T
Encoding: 84 84 55
Width: 1156
Flags: HW
LayerCount: 2
Fore
SplineSet
1011 987 m 1
 984 1168 l 2
 981.585 1186.12 971.979 1200 953 1200 c 2
 677 1200 l 1
 677 132 l 2
 677 121.75 683.242 92.6379 716 91 c 2
 839 84 l 1
 839 2 l 1
 316 2 l 1
 316 84 l 1
 439 91 l 2
 471.758 92.6379 478 121.75 478 132 c 2
 478 1200 l 1
 200 1200 l 2
 181.4 1200 170.254 1186.8 169 1168 c 1
 143 987 l 1
 31 987 l 1
 31 1295 l 1
 1125 1295 l 1
 1125 987 l 1
 1011 987 l 1
EndSplineSet
EndChar

StartChar: U
Encoding: 85 85 56
Width: 1374
Flags: HW
LayerCount: 2
Fore
SplineSet
732 103 m 0
 973.426 103 1060 236.276 1060 482 c 2
 1060 1165 l 2
 1060 1175.35 1053.35 1204.28 1019 1206 c 2
 909 1213 l 1
 909 1295 l 1
 1328 1295 l 1
 1328 1213 l 1
 1210 1204 l 2
 1177.24 1202.36 1171 1173.25 1171 1163 c 2
 1171 430 l 2
 1171 112.526 996.509 -28 677 -28 c 0
 429.425 -28 207 63.8 207 431 c 2
 207 1164 l 2
 207 1174.25 200.758 1203.36 168 1205 c 2
 66 1212 l 1
 66 1294 l 1
 557 1294 l 1
 557 1212 l 1
 447 1205 l 2
 414.242 1203.36 408 1174.25 408 1164 c 2
 408 481 l 2
 408 244.581 472.8 103 732 103 c 0
EndSplineSet
EndChar

StartChar: V
Encoding: 86 86 57
Width: 1286
Flags: HW
LayerCount: 2
Fore
SplineSet
1155 1191 m 1
 723 -31 l 1
 576 -31 l 1
 134 1193 l 1
 20 1211 l 1
 20 1293 l 1
 482 1293 l 1
 482 1211 l 1
 368 1202 l 2
 354.106 1200.61 348.403 1179.39 351 1169 c 1
 690 215 l 1
 1016 1165 l 1
 1020.56 1181.7 1004.43 1200.8 990 1202 c 2
 884 1211 l 1
 884 1293 l 1
 1267 1293 l 1
 1267 1211 l 1
 1155 1191 l 1
EndSplineSet
EndChar

StartChar: W
Encoding: 87 87 58
Width: 1798
Flags: HW
LayerCount: 2
Fore
SplineSet
1660 1189 m 1
 1365 -32 l 1
 1224 -32 l 1
 902 1038 l 1
 587 -32 l 1
 448 -32 l 1
 134 1189 l 1
 22 1211 l 1
 22 1293 l 1
 464 1293 l 1
 464 1211 l 1
 349 1200 l 2
 331.825 1198.68 326.391 1179.96 329 1163 c 1
 559 292 l 1
 861 1296 l 1
 1009 1296 l 1
 1320 261 l 1
 1534 1163 l 1
 1536.7 1180.56 1525.83 1198.68 1506 1200 c 2
 1385 1211 l 1
 1385 1293 l 1
 1779 1293 l 1
 1779 1211 l 1
 1660 1189 l 1
EndSplineSet
EndChar

StartChar: X
Encoding: 88 88 59
Width: 1223
Flags: HW
LayerCount: 2
Fore
SplineSet
709 0 m 1
 709 82 l 1
 820 93 l 2
 838.171 94.2114 854.651 111.611 843 132 c 1
 587 535 l 1
 290 126 l 2
 279.744 111.348 284.789 92.2266 313 91 c 2
 428 82 l 1
 428 0 l 1
 18 0 l 1
 18 82 l 1
 133 105 l 1
 521 637 l 1
 170 1187 l 1
 43 1209 l 1
 43 1291 l 1
 527 1291 l 1
 527 1209 l 1
 429 1200 l 1
 399.943 1198.74 396.242 1178.33 406 1163 c 2
 641 800 l 1
 901 1157 l 2
 916.956 1179.34 894.853 1195.01 881 1196 c 2
 782 1209 l 1
 782 1291 l 1
 1186 1291 l 1
 1186 1209 l 1
 1062 1191 l 1
 704 698 l 1
 1083 104 l 1
 1202 81 l 1
 1202 -1 l 1
 709 0 l 1
EndSplineSet
EndChar

StartChar: Y
Encoding: 89 89 60
Width: 1208
Flags: HW
LayerCount: 2
Fore
SplineSet
1085 1193 m 1
 697 550 l 1
 697 133 l 2
 697 122.745 703.165 93.7282 736 92 c 2
 859 85 l 1
 859 3 l 1
 338 3 l 1
 338 85 l 1
 457 92 l 2
 491.354 93.7177 498 122.65 498 133 c 2
 498 521 l 1
 128 1189 l 1
 16 1211 l 1
 16 1293 l 1
 474 1293 l 1
 474 1211 l 1
 377 1202 l 2
 349.528 1199.5 347.894 1180.63 355 1165 c 1
 627 661 l 1
 925 1159 l 2
 936.561 1179.23 920.085 1196.78 903 1198 c 2
 795 1211 l 1
 795 1293 l 1
 1187 1293 l 1
 1187 1211 l 1
 1085 1193 l 1
EndSplineSet
EndChar

StartChar: Z
Encoding: 90 90 61
Width: 1110
Flags: HW
LayerCount: 2
Fore
SplineSet
75 0 m 1
 75 84 l 1
 793 1198 l 1
 291 1198 l 2
 272.037 1198 262.563 1182.63 259 1166 c 2
 231 987 l 1
 117 987 l 1
 117 1295 l 1
 1025 1295 l 1
 1025 1207 l 1
 306 99 l 1
 855 99 l 2
 873.436 99 883.605 116.238 886 133 c 2
 919 357 l 1
 1033 357 l 1
 1033 0 l 1
 75 0 l 1
EndSplineSet
EndChar

StartChar: bracketleft
Encoding: 91 91 62
Width: 816
Flags: HW
LayerCount: 2
Fore
SplineSet
263 -254 m 1
 263 1367 l 1
 731 1367 l 1
 731 1281 l 1
 431 1281 l 1
 431 -165 l 1
 731 -165 l 1
 731 -253 l 1
 263 -254 l 1
EndSplineSet
EndChar

StartChar: backslash
Encoding: 92 92 63
Width: 943
Flags: HW
LayerCount: 2
Fore
SplineSet
820 -179 m 1
 0 1295 l 1
 123 1295 l 1
 943 -179 l 1
 820 -179 l 1
EndSplineSet
EndChar

StartChar: bracketright
Encoding: 93 93 64
Width: 816
Flags: HW
LayerCount: 2
Fore
SplineSet
84 -254 m 1
 84 -166 l 1
 387 -166 l 1
 387 1280 l 1
 84 1280 l 1
 84 1366 l 1
 555 1366 l 1
 555 -255 l 1
 84 -254 l 1
EndSplineSet
EndChar

StartChar: asciicircum
Encoding: 94 94 65
Width: 631
Flags: HW
LayerCount: 2
Fore
SplineSet
515 1063 m 1
 317 1254 l 1
 117 1063 l 1
 2 1063 l 1
 245 1390 l 1
 390 1390 l 1
 633 1063 l 1
 515 1063 l 1
EndSplineSet
EndChar

StartChar: underscore
Encoding: 95 95 66
Width: 646
Flags: HW
LayerCount: 2
Fore
SplineSet
0 -287 m 1
 0 -165 l 1
 646 -165 l 1
 646 -287 l 1
 0 -287 l 1
EndSplineSet
EndChar

StartChar: grave
Encoding: 96 96 67
Width: 676
Flags: HW
LayerCount: 2
Fore
SplineSet
1 1326 m 0
 1 1371.04 27.5171 1412 87 1412 c 0
 143.271 1412 159.098 1393.08 185 1362 c 2
 443 1063 l 1
 337 1063 l 1
 44 1250 l 2
 5.02635 1275.33 1 1306.93 1 1326 c 0
EndSplineSet
EndChar

StartChar: a
Encoding: 97 97 68
Width: 982
Flags: HW
LayerCount: 2
Fore
SplineSet
258 252 m 0
 258 174.299 307.612 93 400 93 c 0
 468.416 93 562.561 134.374 634 182 c 1
 639 515 l 1
 311.537 431.875 258 357.2 258 252 c 0
515 948 m 0
 722.723 948 817 857.27 817 660 c 2
 817 119 l 2
 817 96.684 833.317 80.4177 856 79 c 2
 949 74 l 1
 949 -1 l 1
 659 1 l 1
 634 115 l 1
 577.514 72.0704 443.2 -20 316 -20 c 0
 172.764 -20 68 79.4344 68 239 c 0
 68 378.2 129.266 477.771 639 587 c 1
 639 669 l 2
 639 821 560.275 859 460 859 c 0
 423.388 859 378.438 855.085 325 836 c 1
 325 669 l 1
 185 669 l 2
 149.045 669 115 675.608 115 722 c 0
 115 892.908 350.736 948 515 948 c 0
EndSplineSet
EndChar

StartChar: b
Encoding: 98 98 69
Width: 1072
Flags: HW
LayerCount: 2
Fore
SplineSet
617 953 m 0
 851.646 953 996.985 777.434 1006 510 c 1
 1006 278.718 894.408 2 453 2 c 2
 175 2 l 1
 175 1286 l 1
 29 1286 l 1
 29 1350 l 1
 277 1424 l 1
 354 1424 l 1
 354 884 l 1
 397 903 l 130
 437.454 920.979 529 953 617 953 c 0
446 94 m 2
 645.386 94 803.067 167 806 472 c 1
 806 785.238 629.6 839 512 839 c 0
 455.206 839 382.86 818.531 353 810 c 1
 353 94 l 1
 446 94 l 2
EndSplineSet
EndChar

StartChar: c
Encoding: 99 99 70
Width: 899
Flags: HW
LayerCount: 2
Fore
SplineSet
588 101 m 0
 688 101 768.79 138.232 838 184 c 1
 834 71 l 1
 765 38 l 130
 705.655 9.97615 611.365 -21 509 -21 c 0
 222.436 -21 68 202.006 68 460 c 0
 68 777.865 279.005 953 531 953 c 0
 714.075 953 830 876.2 830 761 c 0
 830 688.869 777.122 648 718 648 c 0
 698.8 648 671.358 648.062 622 680 c 1
 622 847 l 1
 607.998 855.106 574.6 872 543 872 c 0
 379.2 872 270 719.733 270 486 c 0
 270 284.287 367.36 101 588 101 c 0
EndSplineSet
EndChar

StartChar: d
Encoding: 100 100 71
Width: 1089
Flags: HW
LayerCount: 2
Fore
SplineSet
260 473 m 0
 260 250.439 370.8 110 537 110 c 0
 561.115 110 630.024 112.07 733 175 c 1
 735 832 l 1
 704 840 l 130
 653.222 853.363 599.2 858 573 858 c 0
 385.2 858 260 709.746 260 473 c 0
557 952 m 0
 632.189 952 730.974 931.005 731 931 c 2
 731 1284 l 1
 585 1284 l 1
 585 1348 l 1
 833 1422 l 1
 910 1422 l 1
 910 123 l 2
 910 99 928.267 84.2196 949 83 c 2
 1031 78 l 1
 1031 3 l 1
 733 0 l 1
 733 102 l 1
 680.263 62.0479 569.362 -22 436 -22 c 0
 178.772 -22 67 217.237 67 440 c 0
 67 711.024 233.6 952 557 952 c 0
EndSplineSet
EndChar

StartChar: e
Encoding: 101 101 72
Width: 946
Flags: HW
LayerCount: 2
Fore
SplineSet
252 505 m 1
 252 322.991 316.2 97 573 97 c 0
 660.284 97 753.111 139.235 808.5 172 c 129
 877 214 l 1
 880 96 l 1
 793.685 42.0531 661 -22 515 -22 c 0
 273.113 -22 69 142.493 69 455 c 0
 69 748.443 249.4 952 520 952 c 0
 760.922 952 879 784.16 879 558 c 2
 879 533 l 2
 879 523 878.667 513.667 878 505 c 1
 252 505 l 1
684 633 m 1
 684 756.81 629.333 857 498 857 c 256
 357.6 857 271.277 741.393 264 591 c 1
 688 591 l 1
 684 633 l 1
EndSplineSet
EndChar

StartChar: f
Encoding: 102 102 73
Width: 629
Flags: HW
LayerCount: 2
Fore
SplineSet
586 1417 m 0
 708.137 1417 748.621 1353.58 751 1306 c 1
 751 1225.2 670.5 1205 663 1205 c 0
 662.333 1205.67 657.5 1209.17 648.5 1215.5 c 130
 534.5 1295.5 l 130
 516.501 1308.63 510.358 1312.69 490 1326 c 1
 448.564 1303.21 378 1240.39 378 1039 c 2
 378 916 l 1
 617 916 l 1
 617 817 l 1
 378 817 l 1
 378 124 l 2
 378 101.684 394.317 85.4177 417 84 c 2
 531 79 l 1
 531 4 l 1
 62 4 l 1
 62 79 l 1
 157 84 l 2
 179.696 85.4185 196 101.691 196 124 c 2
 196 817 l 1
 73 817 l 1
 73 884 l 1
 196 918 l 1
 196 1270.33 407.638 1417 586 1417 c 0
EndSplineSet
EndChar

StartChar: g
Encoding: 103 103 74
Width: 1013
Flags: HW
LayerCount: 2
Fore
SplineSet
495 -354 m 0
 678.942 -354 766.564 -221.314 764 -129 c 1
 764 22.6152 539.372 21.9015 388 48 c 1
 286.24 11.6571 243 -59.4 243 -131 c 0
 243 -219.7 318.662 -354 495 -354 c 0
480 402 m 0
 586.384 402 657 496.054 657 638 c 0
 657 745.474 604.261 872 480 872 c 0
 370.8 872 298 781.013 298 636 c 0
 298 519.955 351.264 402 480 402 c 0
113 626 m 0
 113 821.6 260.378 952 498 952 c 0
 569.8 952 635.758 931.038 677.5 914 c 130
 720 896 l 1
 980 896 l 1
 980 802 l 1
 789 800 l 1
 842.601 713.218 840 649.009 840 628 c 0
 840 424.819 642.96 310.607 426 324 c 1
 422.038 317.516 407 292.2 407 244.5 c 128
 407 216.6 410 202.65 410 198 c 1
 508.5 188.5 l 130
 772.401 162.348 930 85.5 930 -69 c 0
 930 -251.553 708.751 -432 431 -432 c 0
 199.312 -432 70 -313.329 70 -160 c 0
 70 -22.6763 161.042 52.7957 272 72 c 1
 255.5 121.5 255 115.096 255 158 c 0
 255 233.272 322.406 307.834 351 337 c 1
 232.878 364.07 113 461.205 113 626 c 0
EndSplineSet
EndChar

StartChar: h
Encoding: 104 104 75
Width: 1108
Flags: HW
LayerCount: 2
Fore
SplineSet
669 947 m 0
 784.328 947 929 885.141 929 657 c 2
 929 119 l 2
 929 96.684 947.495 80.4065 970 79 c 2
 1056 74 l 1
 1056 -1 l 1
 633 0 l 1
 633 75 l 1
 712 80 l 2
 734.522 81.4076 753 97.6914 753 120 c 2
 753 617 l 2
 753 721.356 715.2 806 564 806 c 0
 481.2 806 397.88 774.484 357 752 c 1
 357 119 l 2
 357 96.9642 370.47 80.3841 394 79 c 2
 476 74 l 1
 476 -1 l 1
 42 -1 l 1
 42 74 l 1
 134 79 l 2
 154.733 80.2196 173 95 173 119 c 2
 173 1279 l 1
 29 1279 l 1
 29 1343 l 1
 276 1417 l 1
 353 1417 l 1
 353 829 l 1
 436.408 880.328 576.657 947 669 947 c 0
EndSplineSet
EndChar

StartChar: i
Encoding: 105 105 76
Width: 585
Flags: HW
LayerCount: 2
Fore
SplineSet
66 0 m 1
 66 75 l 1
 160 80 l 2
 180.733 81.2196 199 96 199 120 c 2
 199 809 l 1
 67 809 l 1
 67 876 l 1
 302 949 l 1
 378 949 l 1
 378 119 l 2
 378 96.684 394.317 80.4177 417 79 c 2
 516 74 l 1
 516 -1 l 1
 66 0 l 1
302 1364 m 256
 372.247 1364 417 1309.53 417 1248 c 256
 417 1174.26 360.031 1130 302 1130 c 256
 231.569 1130 184 1185.68 184 1248 c 256
 184 1314.66 235.67 1364 302 1364 c 256
EndSplineSet
EndChar

StartChar: j
Encoding: 106 106 77
Width: 563
Flags: HW
LayerCount: 2
Fore
SplineSet
121 -355 m 1
 202.947 -307.723 211 -152.246 211 -44 c 2
 211 813 l 1
 75 813 l 1
 75 877 l 1
 312 950 l 1
 391 950 l 1
 390 123 l 2
 390 -11.6566 391.458 -282.782 172.5 -395.5 c 128
 116.167 -424.5 57.6667 -439 -3 -439 c 0
 -75.2099 -439 -148 -411.773 -148 -334 c 0
 -148 -269.2 -102.544 -236.441 -66 -226 c 1
 121 -355 l 1
295 1361 m 256
 364.6 1361 411 1308.8 411 1245 c 256
 411 1170.18 353.047 1127 295 1127 c 256
 234.628 1127 177 1173.99 177 1245 c 256
 177 1314.6 232.538 1361 295 1361 c 256
EndSplineSet
EndChar

StartChar: k
Encoding: 107 107 78
Width: 1031
Flags: HW
LayerCount: 2
Fore
SplineSet
702 0 m 1
 702 75 l 1
 461 438 l 1
 354 438 l 1
 354 124 l 2
 354 100 372.267 85.2196 393 84 c 2
 475 79 l 1
 475 4 l 1
 37 4 l 1
 37 79 l 1
 131 84 l 2
 151.733 85.2196 170 100 170 124 c 2
 170 1284 l 1
 24 1284 l 1
 24 1348 l 1
 271 1422 l 1
 350 1422 l 1
 350 494 l 1
 388 494 l 1
 671 814 l 1
 680.897 826.725 671.812 843.707 655 845 c 2
 576 852 l 1
 576 927 l 1
 951 927 l 1
 951 852 l 1
 828 839 l 1
 573 567 l 1
 905 85 l 1
 1006 74 l 1
 1006 -1 l 1
 702 0 l 1
EndSplineSet
EndChar

StartChar: l
Encoding: 108 108 79
Width: 573
Flags: HW
LayerCount: 2
Fore
SplineSet
374 119 m 2
 374 99.894 397.92 79 414 79 c 2
 518 74 l 1
 518 -1 l 1
 51 0 l 1
 51 75 l 1
 153 80 l 2
 171.8 80 195 104 195 120 c 2
 195 1282 l 1
 48 1282 l 1
 48 1346 l 1
 295 1420 l 1
 374 1420 l 1
 374 119 l 2
EndSplineSet
EndChar

StartChar: m
Encoding: 109 109 80
Width: 1641
Flags: HW
LayerCount: 2
Fore
SplineSet
1209 947 m 0
 1406.6 947 1456 792.695 1456 653 c 2
 1456 119 l 2
 1456 96.684 1472.32 80.4177 1495 79 c 2
 1588 74 l 1
 1588 -1 l 1
 1166 0 l 1
 1166 75 l 1
 1247 80 l 2
 1267.73 81.2196 1286 96 1286 120 c 2
 1286 612 l 2
 1286 723.488 1252 807 1116 807 c 0
 1034.8 807 949.64 773.32 913 755 c 1
 913 120 l 2
 913 96 931.267 81.2196 952 80 c 2
 1033 75 l 1
 1033 0 l 1
 610 0 l 1
 610 75 l 1
 691 80 l 2
 711.733 81.2196 730 96 730 120 c 2
 730 624 l 2
 730 719.953 696.4 807 562 807 c 0
 480.4 807 389.163 770.529 358 753 c 1
 358 120 l 2
 358 96 376.267 81.2196 397 80 c 2
 478 75 l 1
 478 0 l 1
 42 0 l 1
 42 75 l 1
 136 80 l 2
 156.733 81.2196 175 96 175 120 c 2
 175 790 l 1
 43 790 l 1
 43 853 l 1
 276 926 l 1
 355 926 l 1
 355 830 l 1
 448.192 885.333 571.638 947 667 947 c 0
 792.4 947 852.453 860.132 876 815 c 1
 946 855.5 l 130
 1010.6 892.528 1131.17 947 1209 947 c 0
EndSplineSet
EndChar

StartChar: n
Encoding: 110 110 81
Width: 1094
Flags: HW
LayerCount: 2
Fore
SplineSet
666 947 m 0
 839.948 947 924 831.801 924 650 c 2
 924 118 l 2
 924 95.684 940.317 79.4177 963 78 c 2
 1047 73 l 1
 1047 -2 l 1
 629 0 l 1
 629 75 l 1
 710 80 l 2
 732.696 81.4185 749 97.6914 749 120 c 2
 749 622 l 2
 749 770.8 668.861 808 565 808 c 0
 483.613 808 407.958 779.428 354 753 c 1
 354 120 l 2
 354 96 372.267 81.2196 393 80 c 2
 474 75 l 1
 474 0 l 1
 38 0 l 1
 38 75 l 1
 132 80 l 2
 152.733 81.2196 171 96 171 120 c 2
 171 790 l 1
 37 790 l 1
 37 853 l 1
 272 926 l 1
 351 926 l 1
 351 830 l 1
 432.5 873.5 l 130
 473.395 894.687 579.421 947 666 947 c 0
EndSplineSet
EndChar

StartChar: o
Encoding: 111 111 82
Width: 1050
Flags: HW
LayerCount: 2
Fore
SplineSet
526 65 m 0
 723.84 65 785.188 294.326 783 465 c 1
 783 707.5 680.6 866 527 866 c 0
 328.565 866 270 639.677 270 465 c 0
 270 224.1 372.4 65 526 65 c 0
531 952 m 256
 824.298 952 984 725.815 984 464 c 0
 984 205.058 817.945 -22 525 -22 c 256
 251.051 -22 70 178.621 70 464 c 0
 70 726.276 235.449 952 531 952 c 256
EndSplineSet
EndChar

StartChar: p
Encoding: 112 112 83
Width: 1079
Flags: HW
LayerCount: 2
Fore
SplineSet
512 67 m 0
 727.985 67 820 258.27 820 451 c 0
 820 654.277 724.859 815 553 815 c 0
 474.06 815 390.243 776.196 358 759 c 1
 358 95 l 1
 387.001 84.454 450.4 67 512 67 c 0
643 950 m 0
 861.918 950 1003.07 741.173 1013 478 c 1
 1013 183.522 841.402 -23 527 -23 c 0
 467.725 -23 391.929 -14.0223 357 -8 c 1
 357 -295 l 2
 357 -325.4 385.589 -332.27 398 -333 c 2
 512 -345 l 1
 512 -419 l 1
 43 -419 l 1
 43 -345 l 1
 135 -333 l 1
 157.759 -331.661 174 -317.8 174 -295 c 2
 174 792 l 1
 42 792 l 1
 42 855 l 1
 279 928 l 1
 354 928 l 1
 354 832 l 1
 413.092 879.562 527.4 950 643 950 c 0
EndSplineSet
EndChar

StartChar: q
Encoding: 113 113 84
Width: 1059
Flags: HW
LayerCount: 2
Fore
SplineSet
263 474 m 0
 263 283.943 342.532 93 554 93 c 0
 579.4 93 631.483 97.2103 681 109 c 130
 718 118 l 1
 718 843 l 1
 654.618 855.189 641.768 864 587 864 c 0
 360.295 864 263 688.334 263 474 c 0
625 947 m 0
 694.256 947 789.538 939.292 896 918 c 1
 896 -302 l 2
 896 -332.4 926.385 -338.923 935 -340 c 2
 1028 -350 l 1
 1028 -422 l 1
 564 -420 l 1
 564 -348 l 1
 678 -338 l 2
 698.936 -336.692 717 -322.8 717 -300 c 2
 717 48 l 1
 636.472 9.22726 524.979 -26 448 -26 c 0
 220 -26 68 170.288 68 438 c 0
 68 777.063 301.52 947 625 947 c 0
EndSplineSet
EndChar

StartChar: r
Encoding: 114 114 85
Width: 755
Flags: HW
LayerCount: 2
Fore
SplineSet
614 951 m 0
 648.897 951 692.546 940.647 730 924 c 1
 730 733 l 1
 660 733 l 1
 618.664 781.226 581.047 785 558 785 c 0
 519.6 785 457.66 770.754 366 666 c 1
 366 123 l 2
 366 99 384.267 84.2196 405 83 c 2
 532 78 l 1
 532 3 l 1
 50 3 l 1
 50 76 l 1
 145 83 l 2
 167.696 84.4185 184 100.691 184 123 c 2
 184 793 l 1
 45 793 l 1
 45 856 l 1
 284 929 l 1
 363 929 l 1
 363 758 l 1
 412.5 813 l 130
 511.958 924.258 573.7 951 614 951 c 0
EndSplineSet
EndChar

StartChar: s
Encoding: 115 115 86
Width: 768
Flags: HW
LayerCount: 2
Fore
SplineSet
415 853 m 0
 283.45 853 259 775.408 259 725 c 0
 259 533.672 594.571 553.657 685 359.5 c 128
 696.333 335.167 702 308.667 702 280 c 0
 702 69.3277 537.937 -22 336 -22 c 0
 228.397 -22 129.695 4.03759 71 25 c 1
 71 281 l 1
 169 281 l 1
 192 117 l 1
 279.612 62.6199 344.313 65 362 65 c 0
 457.453 65 534 124.2 534 213 c 0
 534 278.8 503.044 325.829 398.5 377.5 c 130
 300 426 l 1
 158.058 494.242 84 552.466 84 668 c 0
 84 864.549 241.901 946 430 946 c 0
 534.476 946 631.321 922.148 676 903 c 1
 676 675 l 1
 576 675 l 1
 561 809 l 1
 544.603 822.118 487.549 853 415 853 c 0
EndSplineSet
EndChar

StartChar: t
Encoding: 116 116 87
Width: 656
Flags: HW
LayerCount: 2
Fore
SplineSet
510 88 m 0
 562 88 605.639 100.809 640 119 c 1
 643 40 l 1
 585.559 12.0999 488.936 -22 386 -22 c 0
 236.942 -22 179 45.8548 179 194 c 2
 179 835 l 1
 56 835 l 1
 56 898 l 1
 188 960 l 1
 274 1164 l 1
 358 1164 l 1
 358 931 l 1
 630 931 l 1
 630 835 l 1
 358 835 l 1
 358 296 l 2
 358 131.559 417.825 88 510 88 c 0
EndSplineSet
EndChar

StartChar: u
Encoding: 117 117 88
Width: 1098
Flags: HW
LayerCount: 2
Fore
SplineSet
543 110 m 0
 625.8 110 717.109 148.554 750 165 c 1
 750 811 l 1
 615 811 l 1
 615 877 l 1
 850 952 l 1
 929 952 l 1
 929 122 l 2
 929 99.684 947.495 83.4065 970 82 c 2
 1054 77 l 1
 1054 2 l 1
 751 0 l 1
 751 110 l 1
 714.429 82.5717 574.849 -22 444 -22 c 0
 285 -22 179 63.284 179 289 c 2
 179 812 l 1
 45 812 l 1
 45 878 l 1
 282 953 l 1
 359 953 l 1
 359 326 l 2
 359 188.457 408.562 110 543 110 c 0
EndSplineSet
EndChar

StartChar: v
Encoding: 118 118 89
Width: 1021
Flags: HW
LayerCount: 2
Fore
SplineSet
899 843 m 1
 562 0 l 1
 437 0 l 1
 126 843 l 1
 20 854 l 1
 20 929 l 1
 447 929 l 1
 447 854 l 1
 355 849 l 2
 333.973 847.686 319.078 830.149 326 808 c 2
 541 204 l 1
 778 808 l 2
 786.524 829.309 772.364 847.727 752 849 c 2
 666 854 l 1
 666 929 l 1
 1003 929 l 1
 1003 854 l 1
 899 843 l 1
EndSplineSet
EndChar

StartChar: w
Encoding: 119 119 90
Width: 1512
Flags: HW
LayerCount: 2
Fore
SplineSet
1394 843 m 1
 1130 0 l 1
 994 0 l 1
 766 722 l 1
 512 0 l 1
 375 0 l 1
 128 843 l 1
 22 854 l 1
 22 929 l 1
 445 929 l 1
 445 854 l 1
 355 849 l 2
 333.516 847.657 320.514 829.944 326 808 c 2
 486 208 l 1
 734 932 l 1
 871 932 l 1
 1094 208 l 1
 1272 808 l 2
 1277.57 828.877 1265.07 847.683 1244 849 c 2
 1156 854 l 1
 1156 929 l 1
 1493 929 l 1
 1493 854 l 1
 1394 843 l 1
EndSplineSet
EndChar

StartChar: x
Encoding: 120 120 91
Width: 984
Flags: HW
LayerCount: 2
Fore
SplineSet
550 0 m 1
 550 75 l 1
 615 82 l 2
 632.404 83.3388 639.764 101.472 633 115 c 1
 468 362 l 1
 279 115 l 2
 269.613 104.272 271.905 83.3919 290 82 c 2
 387 75 l 1
 387 0 l 1
 20 0 l 1
 20 75 l 1
 130 90 l 1
 406 449 l 1
 144 837 l 1
 30 853 l 1
 30 928 l 1
 454 928 l 1
 454 853 l 1
 388 844 l 2
 372.126 842.779 360.64 825.72 368 811 c 1
 520 596 l 1
 687 811 l 2
 695.573 820.798 692.848 842.55 674 844 c 2
 592 853 l 1
 592 928 l 1
 938 928 l 1
 938 853 l 1
 835 837 l 1
 576 507 l 1
 861 90 l 1
 965 75 l 1
 965 0 l 1
 550 0 l 1
EndSplineSet
EndChar

StartChar: y
Encoding: 121 121 92
Width: 1023
Flags: HW
LayerCount: 2
Fore
SplineSet
299 -298 m 1
 367.113 -229.887 437.978 -67.2717 459 0 c 1
 131 841 l 1
 25 852 l 1
 25 927 l 1
 452 927 l 1
 452 852 l 1
 360 847 l 2
 338.973 845.686 324.078 828.149 331 806 c 1
 555 237 l 1
 784 806 l 2
 792.524 827.309 778.364 845.727 758 847 c 2
 667 852 l 1
 667 927 l 1
 1011 927 l 1
 1011 852 l 1
 903 843 l 1
 507.5 -122.5 l 129
 380.939 -425.475 256.7 -439 194 -439 c 0
 88.325 -439 56 -374.2 56 -331 c 0
 56 -285 76.1497 -250.241 118 -216 c 1
 299 -298 l 1
EndSplineSet
EndChar

StartChar: z
Encoding: 122 122 93
Width: 891
Flags: HW
LayerCount: 2
Fore
SplineSet
663 92 m 2
 679.565 92 703 118.599 703 137 c 1
 722 289 l 1
 826 289 l 1
 826 -2 l 1
 66 0 l 1
 66 102 l 1
 577 839 l 1
 242 839 l 2
 219.8 839 206.936 811.584 205 799 c 2
 187 656 l 1
 88 656 l 1
 88 930 l 1
 802 930 l 1
 802 851 l 1
 274 92 l 1
 663 92 l 2
EndSplineSet
EndChar

StartChar: braceleft
Encoding: 123 123 94
Width: 941
Flags: HW
LayerCount: 2
Fore
SplineSet
313 551 m 1
 556.224 497.408 569 363.581 569 178 c 2
 569 97 l 130
 569 -72.243 596.14 -161 808 -161 c 1
 808 -237 l 1
 601.653 -237 514.709 -196.075 476 -154 c 1
 443.4 -121.4 397 -55.2 397 93 c 2
 397 258 l 2
 397 496.284 300.896 508 124 508 c 1
 124 594 l 1
 301.374 594 397 606.036 397 844 c 2
 397 1009 l 2
 397 1280.01 534.022 1340 808 1340 c 1
 808 1261 l 1
 600.776 1261 569 1180.67 569 1003 c 130
 569 922 l 2
 569 728.248 553.561 604.005 313 551 c 1
EndSplineSet
EndChar

StartChar: bar
Encoding: 124 124 95
Width: 682
Flags: HW
LayerCount: 2
Fore
SplineSet
282 -497 m 1
 282 1537 l 1
 398 1537 l 1
 398 -497 l 1
 282 -497 l 1
EndSplineSet
EndChar

StartChar: braceright
Encoding: 125 125 96
Width: 941
Flags: HW
LayerCount: 2
Fore
SplineSet
553 852 m 2
 553 627.121 629.82 600 827 600 c 1
 826 517 l 1
 628.525 517 552 489.665 552 265 c 2
 552 100 l 2
 552 -173.656 407.309 -230 140 -230 c 1
 140 -151 l 1
 348.182 -151 379 -70.393 379 107 c 130
 379 188 l 2
 379 371.23 391.159 507.052 636 561 c 1
 393.152 609.57 380 745.083 380 930 c 2
 380 1011 l 130
 380 1177.53 356.825 1269 141 1269 c 1
 141 1348 l 1
 410.568 1348 553 1290.81 553 1017 c 2
 553 852 l 2
EndSplineSet
EndChar

StartChar: asciitilde
Encoding: 126 126 97
Width: 1608
Flags: HW
LayerCount: 2
Fore
SplineSet
1083 569 m 0
 1226.6 569 1369.15 664.419 1442 717 c 1
 1442 591 l 1
 1261.5 466.29 1153.2 457 1081 457 c 0
 898.891 457 724.152 586 526 586 c 0
 389.691 586 229.219 477.292 172 436 c 1
 172 561 l 1
 254.931 619.776 388.233 697 537 697 c 0
 722.128 697 917.814 569 1083 569 c 0
EndSplineSet
EndChar

StartChar: quoteleft
Encoding: 8216 8216 98
Width: 477
Flags: HW
LayerCount: 2
Fore
SplineSet
235 837 m 0
 132.969 837 76 905.684 76 1015 c 0
 76 1038.42 73.1108 1180.5 232 1323.5 c 130
 285 1371 l 1
 359 1355 l 1
 308.5 1298 l 130
 260.016 1243.35 200 1157 200 1063 c 0
 200 1049 201 1042 201 1028 c 1
 322 1028 l 1
 335.345 1008.94 349 983 349 953 c 0
 349 889.357 307.136 837 235 837 c 0
EndSplineSet
EndChar

StartChar: quoteright
Encoding: 8217 8217 99
Width: 477
Flags: HW
LayerCount: 2
Fore
SplineSet
247 1363 m 0
 337.888 1363 408.094 1301.08 401 1189 c 1
 401 1163.31 403.173 1022.86 245 880.5 c 130
 192 833 l 1
 121 848 l 1
 205.011 932.011 281 1022.6 281 1139 c 0
 281 1152.2 280 1158.8 280 1172 c 1
 159 1172 l 1
 143.594 1189.33 132 1218.18 132 1247 c 0
 132 1305.75 166.95 1363 247 1363 c 0
EndSplineSet
EndChar

StartChar: quotedblleft
Encoding: 8220 8220 100
Width: 874
Flags: HW
LayerCount: 2
Fore
SplineSet
235 837 m 0
 133.853 837 76 906.758 76 1015 c 0
 76 1040.69 73.8274 1181.14 232 1323.5 c 130
 285 1371 l 1
 359 1355 l 1
 277.179 1273.18 200 1179.2 200 1062 c 0
 200 1044.5 201 1041 201 1027 c 1
 322 1027 l 1
 334.479 1012.74 349 985.196 349 953 c 0
 349 889.357 307.136 837 235 837 c 0
632 840 m 0
 528.571 840 473 913.217 473 1021 c 0
 473 1043.49 470.199 1185.35 629 1326 c 130
 682 1373 l 1
 754 1358 l 1
 707 1304 l 129
 657.219 1248.69 597 1162.4 597 1068 c 0
 597 1049.5 598 1045.8 598 1031 c 1
 719 1031 l 1
 744.905 993.993 746 968.836 746 958 c 0
 746 893.92 703.431 840 632 840 c 0
EndSplineSet
EndChar

StartChar: quotedblright
Encoding: 8221 8221 101
Width: 874
Flags: HW
LayerCount: 2
Fore
SplineSet
245 1365 m 0
 346.911 1365 403.676 1293.7 401 1188 c 0
 401 1162.56 402.927 1023.63 245 881.5 c 130
 192 834 l 1
 121 849 l 1
 172.353 911.164 278 1005.64 278 1136 c 0
 278 1154.5 277 1158.2 277 1173 c 1
 156 1173 l 1
 143.451 1188.69 129 1215.85 129 1249 c 0
 129 1315.7 173.95 1365 245 1365 c 0
645 1362 m 0
 742.874 1362 805.386 1292.37 800 1186 c 1
 800 1160.31 802.173 1019.86 644 877.5 c 130
 591 830 l 1
 520 845 l 1
 600.034 925.034 681 1020.2 681 1137 c 0
 681 1153.5 678 1156.8 678 1170 c 1
 557 1170 l 1
 541.042 1187.95 530 1216.43 530 1247 c 0
 530 1309.29 572.261 1362 645 1362 c 0
EndSplineSet
EndChar

StartChar: consonant_part
Encoding: 65540 -1 103
Width: 316
Flags: HW
LayerCount: 2
Fore
SplineSet
1 1320 m 1
 60.9804 1320 105 1368.28 105 1424 c 2
 105 1557 l 1
 316 1557 l 1
 316 1425 l 2
 316 1265.93 174.993 1136 1 1136 c 1
 1 1320 l 1
EndSplineSet
EndChar

StartChar: consonant_part1
Encoding: 65541 -1 104
Width: 638
Flags: HW
LayerCount: 2
Fore
SplineSet
613 962 m 2
 613 1052.88 550.996 1132 454 1132 c 2
 271 1132 l 1
 271 1316 l 1
 693 1316 l 1
 743 1132 l 1
 797 1082.67 824 1030 824 974 c 2
 824 254 l 2
 824 118.29 733.062 -3.55014e-18 613 0 c 2
 338 0 l 2
 205.6 0 85.1536 90.5181 7 199 c 1
 7 501 l 1
 88.1986 332.803 229 184 377 184 c 2
 549 184 l 2
 587.4 184 613 228 613 286 c 2
 613 962 l 2
EndSplineSet
EndChar

StartChar: short_rr
Encoding: 65542 -1 105
Width: 1512
Flags: HW
LayerCount: 2
Fore
SplineSet
343 1124 m 2
 343 1241.6 450.473 1320 569 1320 c 2
 1529 1320 l 1
 1530 1135 l 1
 650 1135 l 2
 600.787 1135 556 1100.5 556 1057 c 2
 556 898 l 2
 556 841.061 611.103 794 677 794 c 2
 1004 794 l 1
 1004 611 l 1
 677 611 l 2
 611.064 611 556 563.107 556 505 c 2
 556 309 l 2
 556 244.733 592.919 198.717 633 189 c 1
 792 189 l 1
 792 5 l 1
 554 5 l 2
 443.422 5 344 91.7891 344 215 c 2
 344 520 l 2
 344 615.039 423.272 690.545 516 706 c 1
 425.552 725.296 343 789.81 343 888 c 2
 343 1124 l 2
EndSplineSet
Ligature2: "'rphf' Reph Form in Kannada lookup 3 subtable" u0CB0 u0CCD
LCarets2: 1 0 

EndChar

StartChar: u0C82
Encoding: 3202 3202 107
Width: 1446
Flags: HW
LayerCount: 2
Fore
SplineSet
1157 1317 m 2
 1315.5 1317 1445 1188.6 1445 1017 c 2
 1446 288 l 2
 1446 128.861 1337.19 3.44742e-18 1210 0 c 2
 628 0 l 2
 472.223 0 339 140.226 339 315 c 2
 339 1045 l 2
 339 1120.33 367.667 1184 425 1236 c 1
 479.667 1290 547 1317 627 1317 c 2
 1157 1317 l 2
1121 183 m 2
 1182.44 183 1236.39 244.973 1235 331 c 1
 1235 1001 l 2
 1235 1090.62 1170.88 1131 1120 1131 c 2
 699 1131 l 2
 622.345 1131 551 1079.8 551 1016 c 2
 551 330 l 2
 551 253.929 619.055 183 710 183 c 2
 1121 183 l 2
EndSplineSet
EndChar

StartChar: u0C83
Encoding: 3203 3203 108
Width: 935
Flags: HW
LayerCount: 2
Fore
SplineSet
775 1320 m 2
 882.95 1320 985 1230.33 985 1109 c 2
 986 897 l 2
 986 798.94 909.635 715 803 715 c 2
 511 715 l 2
 392.576 715 302 808.818 302 913 c 2
 302 1124 l 2
 302 1241.6 400.147 1320 511 1320 c 2
 775 1320 l 2
775 609 m 2
 901 609 985 502.973 985 387 c 2
 985 212 l 2
 985 94.7891 909.602 2 820 2 c 2
 511 2 l 2
 397.607 2 302 90.6211 302 201 c 2
 302 412 l 2
 302 528.714 403.054 609 511 609 c 2
 775 609 l 2
713 901 m 2
 744.774 901 772.688 924.441 774 952 c 1
 774 1071 l 2
 774 1110.21 750.337 1135 713 1135 c 2
 592 1135 l 2
 550.443 1135 511 1108.12 511 1072 c 2
 511 966 l 2
 511 940 534.525 901 582 901 c 2
 713 901 l 2
723 188 m 2
 753 188 773 210.45 773 241 c 2
 773 362 l 2
 773 415.3 743.4 424 736 424 c 2
 581 424 l 2
 544.1 424 511 403.6 511 373 c 2
 511 257 l 2
 511 224.118 531.406 188 564 188 c 2
 723 188 l 2
EndSplineSet
EndChar

StartChar: u0C85
Encoding: 3205 3205 109
Width: 1880
Flags: HW
LayerCount: 2
Fore
SplineSet
1648 1317 m 2
 1786.34 1317 1940 1225.34 1940 1070 c 2
 1938 266 l 2
 1938 122.902 1826.81 1 1675 1 c 2
 656 1 l 2
 487.312 1 358 123.033 358 265 c 2
 358 1056 l 2
 358 1206.53 479.454 1319 620 1319 c 2
 960 1319 l 1
 960 897 l 1
 752 897 l 1
 752 1134 l 1
 673 1134 l 2
 610.6 1134 569 1061.58 569 976 c 2
 569 332 l 2
 569 253.884 636.112 185 728 185 c 2
 1581 185 l 2
 1646.46 185 1728 248.701 1728 370 c 2
 1728 1029 l 2
 1728 1088.98 1679.72 1133 1624 1133 c 2
 1543 1133 l 1
 1543 991 l 2
 1543 921 1587.33 854.333 1676 791 c 1
 1676 608 l 1
 884 608 l 1
 884 791 l 1
 1438 791 l 1
 1367.33 861.667 1332 923 1332 975 c 2
 1332 1317 l 1
 1648 1317 l 2
EndSplineSet
EndChar

StartChar: u0C86
Encoding: 3206 3206 110
Width: 2011
Flags: HW
LayerCount: 2
Fore
SplineSet
1847 1313 m 2
 1974.69 1313 2073 1210.71 2073 1093 c 1
 2076 946 l 1
 2076 798.614 1971.84 682 1839 682 c 2
 1758 682 l 1
 1812 622.667 1839 578.667 1839 550 c 2
 1839 198 l 2
 1839 83.989 1731.36 -3 1603 -3 c 1
 1603 2 l 1
 611 2 l 2
 475.557 2 362 116.644 362 267 c 2
 362 1058 l 2
 362 1208.24 505.401 1320 678 1320 c 2
 942 1320 l 1
 942 898 l 1
 731 898 l 1
 731 1135 l 1
 688 1135 l 2
 623.843 1135 572 1076.07 572 1020 c 2
 572 334 l 2
 572 267.227 619.013 187 706 187 c 2
 1496 187 l 2
 1568.5 187 1628 253.798 1628 335 c 2
 1628 556 l 2
 1628 592 1604.67 635.667 1558 687 c 1
 1020 687 l 1
 1020 871 l 1
 1495 871 l 1
 1459.67 917.667 1442 950.667 1442 970 c 2
 1442 1129 l 2
 1442 1239.4 1544.55 1313 1677 1313 c 2
 1847 1313 l 2
1793 867 m 2
 1836.04 867 1859 911.022 1859 959 c 2
 1859 1051 l 2
 1859 1103 1842.33 1129 1809 1129 c 2
 1731 1129 l 2
 1693.24 1129 1651 1100.5 1651 1051 c 2
 1651 987 l 2
 1651 949 1669 909 1705 867 c 1
 1793 867 l 2
EndSplineSet
EndChar

StartChar: u0C87
Encoding: 3207 3207 111
Width: 1516
Flags: HW
LayerCount: 2
Fore
SplineSet
1406 256 m 2
 1406 213.733 1440.89 188 1469 188 c 2
 1564 188 l 1
 1568 0 l 1
 1437 0 l 2
 1302.01 0 1200 95.531 1200 210 c 2
 1200 341 l 1
 989 341 l 2
 869.393 341 778 419.185 778 514 c 2
 778 656 l 2
 778 725.146 859.5 788 971 788 c 2
 1199 788 l 2
 1271.64 788 1333.71 734.904 1356 673 c 1
 1356 1044 l 2
 1356 1099.5 1298.83 1132 1236 1132 c 2
 1094 1132 l 2
 1016.53 1132 961 1078.21 961 1028 c 2
 961 896 l 1
 753 896 l 1
 753 1017 l 2
 753 1074.23 702.558 1133 622 1133 c 2
 447 1133 l 2
 384.066 1133 331 1082.29 331 1029 c 2
 331 897 l 2
 331 832.087 377.906 793 420 793 c 2
 462 793 l 1
 462 610 l 1
 369 610 l 2
 230.785 610 120 722.872 120 861 c 2
 120 1057 l 2
 120 1211.95 256.546 1319 395 1319 c 2
 647 1319 l 2
 745.327 1319 832.729 1266.76 854 1187 c 1
 882.072 1257.79 951.254 1319 1040 1319 c 2
 1278 1319 l 2
 1443.35 1319 1565 1198.16 1565 1047 c 2
 1565 714 l 2
 1565 599.333 1512 490.333 1406 387 c 1
 1406 256 l 2
986 573 m 0
 986 554.75 1000.8 532 1023 532 c 2
 1195 531 l 1
 1195 557 l 2
 1195 593 1178 611 1144 611 c 2
 1023 611 l 2
 1003.18 611 986 595.194 986 573 c 0
EndSplineSet
EndChar

StartChar: u0C88
Encoding: 3208 3208 112
Width: 2354
Flags: HW
LayerCount: 2
Fore
SplineSet
2187 1211 m 2
 2315.22 1211 2414 1100.14 2414 975 c 2
 2415 781 l 2
 2415 675.8 2334.57 570.224 2202 518 c 1
 2308 398 2361 320 2361 284 c 2
 2361 153 l 2
 2361 73.8121 2310.04 4 2240 4 c 2
 1808 4 l 1
 1808 188 l 1
 2083 188 l 2
 2122.62 188 2149 221.002 2149 256 c 2
 2149 267 l 2
 2149 299.667 2131 330.667 2095 360 c 1
 1967 502 l 1
 1543 502 l 1
 1543 255 l 2
 1543 123.705 1440.76 1 1292 1 c 2
 630 1 l 2
 515.645 1 409 102.45 409 227 c 2
 409 502 l 1
 201 502 l 1
 201 685 l 1
 409 685 l 1
 409 860 l 2
 409 952 462.333 1043 569 1133 c 1
 385 1133 l 1
 385 1317 l 1
 1334 1317 l 2
 1395.6 1317 1411 1368.25 1411 1396 c 2
 1411 1502 l 1
 1625 1502 l 1
 1625 1396 l 2
 1625 1269.17 1532.97 1150.19 1387 1121 c 1
 1430.78 1091.6 1543 1008.32 1543 912 c 2
 1543 686 l 1
 1818 686 l 1
 1774.67 724.667 1753 777.333 1753 844 c 2
 1753 991 l 2
 1753 1119.12 1855.46 1211 1966 1211 c 2
 2187 1211 l 2
2070 684 m 1
 2146.36 684 2198.73 744.611 2200 807 c 1
 2200 949 l 2
 2200 1003.9 2163.65 1026 2133 1026 c 2
 2027 1026 l 2
 1994.21 1026 1966 997.095 1966 961 c 2
 1966 806 l 2
 1966 779.333 1974.33 757.667 1991 741 c 1
 2070 691 l 1
 2070 684 l 1
1329 691 m 1
 1329 928 l 2
 1329 1017.33 1285.33 1087.67 1198 1139 c 1
 787 1139 l 1
 675 1061 619 972.667 619 874 c 2
 619 691 l 1
 1329 691 l 1
1198 189 m 2
 1271.39 189 1328.67 254.565 1330 336 c 1
 1330 506 l 1
 619 506 l 1
 619 310 l 2
 619 250.439 664.778 189 725 189 c 2
 1198 189 l 2
EndSplineSet
EndChar

StartChar: u0C89
Encoding: 3209 3209 113
Width: 2825
Flags: HW
LayerCount: 2
Fore
SplineSet
2660 1317 m 2
 2796.2 1317 2887 1203.93 2887 1078 c 2
 2888 281 l 2
 2888 124.649 2767.98 1 2626 1 c 2
 2267 1 l 2
 2088.76 1 1969 139.791 1969 281 c 2
 1969 1046 l 2
 1969 1098.8 1925.8 1134 1872 1134 c 2
 1529 1134 l 2
 1486.59 1134 1442 1099.2 1442 1047 c 2
 1442 266 l 2
 1442 130.703 1325.71 1 1153 1 c 2
 677 1 l 2
 505.505 1 363 132.647 363 306 c 2
 363 1029 l 2
 363 1222.46 515.233 1318 625 1318 c 2
 1019 1318 l 1
 1019 939 l 2
 1019 800.687 917.674 685 793 685 c 2
 651 685 l 1
 651 869 l 1
 739 869 l 2
 782.581 869 810 902.768 810 937 c 2
 810 1131 l 1
 677 1131 l 2
 620.296 1131 572 1082.64 572 1026 c 2
 572 303 l 2
 572 235.32 627.492 182 688 182 c 2
 1136 182 l 2
 1191.73 182 1230 233.138 1230 285 c 2
 1230 1043 l 2
 1230 1198.92 1341.74 1315 1477 1315 c 2
 1899 1315 l 2
 2064.68 1315 2177 1189.24 2177 1054 c 2
 2177 304 l 2
 2177 233.804 2226.78 184 2281 184 c 2
 2580 184 l 2
 2636.4 184 2674 232.25 2674 287 c 2
 2674 1028 l 2
 2674 1074.8 2635.09 1106 2581 1106 c 2
 2544 1106 l 1
 2544 1317 l 1
 2660 1317 l 2
EndSplineSet
EndChar

StartChar: u0C8A
Encoding: 3210 3210 114
Width: 3385
Flags: HW
LayerCount: 2
Fore
SplineSet
3127 1323 m 2
 3290.32 1323 3441 1197.4 3441 1009 c 2
 3441 266 l 2
 3441 111.608 3330.88 3.42061e-18 3206 0 c 2
 3099 0 l 2
 2973.39 0 2865 99.9718 2865 237 c 2
 2865 421 l 1
 3076 421 l 1
 3076 237 l 2
 3076 203.861 3103.48 185 3127 185 c 2
 3191 185 l 2
 3217.12 185 3230 220.143 3230 254 c 2
 3230 1003 l 2
 3230 1087.21 3175.12 1134 3125 1134 c 2
 2862 1134 l 2
 2798.03 1134 2732 1090.97 2732 1004 c 2
 2732 307 l 2
 2732 134.156 2608.61 2 2468 2 c 2
 2085 2 l 2
 1944.33 2 1839 132.168 1839 289 c 2
 1839 1030 l 2
 1839 1090.77 1790.08 1134 1734 1134 c 2
 1470 1134 l 2
 1412.15 1134 1364 1077.17 1364 1019 c 2
 1364 317 l 2
 1364 136.176 1224.48 2 1059 2 c 2
 707 2 l 2
 516.649 2 365 137.269 365 308 c 2
 365 1048 l 2
 365 1125.33 394.333 1189 453 1239 c 1
 510.333 1293 580.333 1320 663 1320 c 2
 1021 1320 l 1
 1021 978 l 2
 1021 833.528 910.505 716 768 716 c 2
 679 716 l 1
 679 899 l 1
 740 899 l 2
 782.6 899 811 935.65 811 966 c 2
 811 1136 l 1
 690 1136 l 2
 627.066 1136 574 1085.29 574 1032 c 2
 574 319 l 2
 574 249.8 631.54 188 716 188 c 2
 1049 188 l 2
 1102.65 188 1154 242.583 1154 319 c 2
 1154 1032 l 2
 1154 1201.91 1301.22 1321 1453 1321 c 2
 1745 1321 l 2
 1929.5 1321 2051 1174.27 2051 1033 c 2
 2051 292 l 2
 2051 230.8 2095.62 190 2153 190 c 2
 2402 190 l 2
 2471.59 190 2523 250.562 2523 321 c 2
 2523 1008 l 2
 2523 1197.61 2671.58 1323 2821 1323 c 2
 3127 1323 l 2
EndSplineSet
EndChar

StartChar: u0C8B_base
Encoding: 65543 -1 116
Width: 1933
Flags: HW
LayerCount: 2
Fore
SplineSet
1862 1213 m 1
 1972.93 1152.78 1989 1059.19 1989 1006 c 2
 1983 281 l 1
 1983 122.882 1896.22 0 1791 0 c 2
 1397 0 l 2
 1273.66 0 1184.2 62.5779 1132 148 c 1
 1093.7 65.4158 1029.4 -1.93459e-18 961 0 c 2
 512 0 l 2
 400.761 0 299 85.3121 299 199 c 2
 299 553 l 1
 618 553 l 2
 748.05 553 852 473.269 852 359 c 2
 852 266 l 1
 642 266 l 1
 642 333 l 2
 642 357.667 625.333 370 592 370 c 2
 513 370 l 1
 513 265 l 2
 513 223.389 545.556 184 592 184 c 2
 880 184 l 2
 954.343 184 1011 230.375 1011 287 c 2
 1011 1055 l 2
 1011 1101.8 963.05 1133 896 1133 c 2
 618 1133 l 2
 560.729 1133 515 1108.2 515 1071 c 2
 515 926 l 1
 594 926 l 2
 637.998 926 670 957.066 670 1004 c 2
 670 1057 l 1
 881 1057 l 1
 881 993 l 2
 881 855.861 781.43 739 661 739 c 2
 300 739 l 1
 300 1110 l 2
 300 1226.06 405.752 1320 539 1320 c 2
 963 1320 l 2
 1112.29 1320 1224 1206.07 1224 1071 c 2
 1224 343 l 1
 1266.73 258.719 1343.4 186 1423 186 c 2
 1672 186 l 2
 1724.93 186 1777 235.891 1777 317 c 2
 1777 977 l 2
 1777 1074.16 1709.8 1134 1637 1134 c 2
 1357 1134 l 1
 1357 1318 l 1
 1662 1318 l 2
 1727.82 1318 1778 1377.41 1778 1449 c 2
 1778 1555 l 1
 1988 1555 l 1
 1988 1422 l 2
 1988 1372.5 1971.89 1262.95 1862 1213 c 1
EndSplineSet
EndChar

StartChar: u0C8C_base
Encoding: 65544 -1 118
Width: 1516
Flags: HW
LayerCount: 2
Fore
SplineSet
1276 1316 m 2
 1441.35 1316 1563 1195.16 1563 1044 c 2
 1563 711 l 2
 1563 654.333 1538.33 588 1489 512 c 1
 1404 385 l 1
 1390 366.333 1380 352 1374 342 c 0
 1352.67 310.667 1343 290.333 1345 281 c 1
 1345 238.762 1378.7 212 1412 212 c 0
 1441.86 212 1466.75 227.931 1480 246 c 2
 1667 512 l 1
 1826 406 l 1
 1600 104 l 1
 1585.6 78.6233 1545.2 14 1463 14 c 0
 1406.93 14 1305.59 42.1996 1239 103 c 0
 1201.67 137 1176 164 1162 184 c 0
 1142.67 213.333 1133 247.333 1133 286 c 0
 1133 312.761 1342.31 648 1343 648 c 0
 1356.1 685.434 1369 748.23 1369 849 c 0
 1369 917.525 1362.96 996.195 1354 1041 c 1
 1354 1096.5 1296.83 1129 1234 1129 c 2
 1092 1129 l 2
 1014.53 1129 959 1075.21 959 1025 c 2
 959 893 l 1
 751 893 l 1
 751 1014 l 2
 751 1071.23 700.558 1130 620 1130 c 2
 445 1130 l 2
 382.066 1130 329 1079.29 329 1026 c 2
 329 894 l 2
 329 829.087 375.906 790 418 790 c 2
 460 790 l 1
 460 607 l 1
 367 607 l 2
 228.785 607 118 719.872 118 858 c 2
 118 1054 l 2
 118 1208.95 254.546 1316 393 1316 c 2
 645 1316 l 2
 743.327 1316 830.729 1263.76 852 1184 c 1
 880.072 1254.79 949.254 1316 1038 1316 c 2
 1276 1316 l 2
EndSplineSet
EndChar

StartChar: u0C8E
Encoding: 3214 3214 119
Width: 1833
Flags: HW
LayerCount: 2
Fore
SplineSet
1537 1318 m 2
 1720.76 1318 1889 1180.84 1889 991 c 2
 1889 281 l 2
 1889 126.021 1785.18 0 1652 0 c 2
 1253 0 l 2
 1145.93 0 1073 66.9656 1073 132 c 1
 1046.12 47.1009 977.206 0 906 0 c 2
 601 0 l 2
 438.866 0 310 118.451 310 265 c 2
 310 791 l 1
 624 791 l 2
 748.183 791 838.815 629.746 863 476 c 1
 667 423 l 1
 655.244 519.66 593.188 609 520 609 c 1
 520 317 l 2
 520 246.15 574.754 186 652 186 c 2
 850 186 l 2
 909.451 186 966 231.258 966 316 c 2
 966 449 l 1
 1180 449 l 1
 1180 333 l 2
 1180 251.559 1248.28 185 1326 185 c 2
 1547 185 l 2
 1622.93 185 1678 248.885 1678 333 c 2
 1678 964 l 2
 1678 1065.12 1605.87 1134 1512 1134 c 2
 1336 1134 l 1
 1336 1318 l 1
 1537 1318 l 2
EndSplineSet
EndChar

StartChar: u0C8F
Encoding: 3215 3215 120
Width: 1828
Flags: HW
LayerCount: 2
Fore
SplineSet
1527 1322 m 2
 1728.62 1322 1886 1179.14 1886 996 c 2
 1884 312 l 2
 1884 251.44 1865.28 121.962 1721 39 c 1
 1667 11 1611.67 -3 1555 -3 c 1
 1555 2 l 1
 1254 2 l 2
 1163.86 2 1095.79 67.6918 1073 150 c 1
 1025.67 50.6667 954.667 1 860 1 c 2
 625 1 l 2
 446.38 1 308 134.44 308 289 c 2
 308 793 l 1
 625 793 l 2
 659 793 692.333 779 725 751 c 1
 767.775 717.524 829.834 635.205 857 479 c 1
 659 426 l 1
 641.474 541.382 573.2 611 516 611 c 1
 516 319 l 2
 516 247.653 572.177 188 649 188 c 2
 846 188 l 2
 906.663 188 963 233.195 963 318 c 2
 963 451 l 1
 1177 451 l 1
 1177 335 l 2
 1177 248.766 1242.42 188 1317 188 c 2
 1543 188 l 2
 1615.5 188 1675 254.798 1675 336 c 2
 1675 967 l 2
 1675 1065.37 1597.17 1137 1503 1137 c 2
 1306 1137 l 1
 1306 1073 l 2
 1306 978.49 1206.87 901 1079 901 c 2
 835 901 l 2
 692.956 901 571 1003.87 571 1138 c 2
 571 1322 l 1
 781 1322 l 1
 781 1166 l 2
 781 1117.71 826.624 1084 858 1084 c 2
 1028 1084 l 2
 1058.12 1084 1096 1120.51 1096 1181 c 2
 1096 1322 l 1
 1527 1322 l 2
EndSplineSet
EndChar

StartChar: u0C90
Encoding: 3216 3216 121
Width: 1938
Flags: HW
LayerCount: 2
Fore
SplineSet
1700 1309 m 2
 1882.07 1309 1990 1174.72 1990 1046 c 2
 1990 284 l 2
 1990 129.605 1863.78 -5 1700 -5 c 1
 1700 0 l 1
 1401 0 l 2
 1286.07 0 1195.33 70.0166 1155 158 c 1
 1104.9 69.7275 1023 -1 935 -1 c 2
 602 -1 l 2
 439.866 -1 311 117.451 311 264 c 2
 311 552 l 2
 311 722.515 443.062 843 601 843 c 2
 967 843 l 1
 967 568 l 2
 967 414.795 840.917 295.275 680 281 c 1
 626 465 l 1
 702.237 465 758 517.884 758 573 c 2
 758 652 l 1
 669 652 l 2
 584.312 652 521 594.986 521 536 c 2
 521 335 l 2
 521 250.709 580.877 176 653 176 c 2
 879 176 l 2
 966.195 176 1049 250.954 1049 334 c 2
 1049 413 l 1
 1260 413 l 1
 1260 334 l 2
 1260 254.961 1326.86 176 1415 176 c 2
 1669 176 l 2
 1735.81 176 1784 255.923 1784 333 c 2
 1784 993 l 2
 1784 1062.3 1738 1124 1669 1124 c 2
 1443 1124 l 2
 1385.74 1124 1337 1073.12 1337 1009 c 2
 1337 942 l 1
 1126 942 l 1
 1126 1020 l 2
 1126 1080.5 1058.69 1124 967 1124 c 2
 641 1124 l 2
 583.4 1124 525.923 1073.19 497 993 c 1
 338 1097 l 1
 387.413 1227.39 496.4 1308 602 1308 c 2
 1012 1308 l 2
 1124.36 1308 1200.52 1249.21 1233 1168 c 1
 1268.46 1240 1336.7 1309 1437 1309 c 2
 1700 1309 l 2
EndSplineSet
EndChar

StartChar: u0C92
Encoding: 3218 3218 122
Width: 1773
Flags: HW
LayerCount: 2
Fore
SplineSet
1640 763 m 2
 1754.56 763 1827 679.281 1827 580 c 1
 1822 226 l 1
 1822 104.401 1744.27 -3.56612e-18 1636 0 c 2
 1232 0 l 2
 1148.53 0 1082.24 55.145 1059 121 c 1
 1047.05 53.2811 987.021 -1.78627e-18 917 0 c 2
 548 0 l 2
 408.784 0 294 95.4711 294 210 c 2
 294 501 l 1
 525 654 l 1
 731.135 787.783 771 824.757 771 884 c 2
 771 1053 l 2
 771 1092.88 745.008 1131 693 1131 c 2
 510 1131 l 1
 510 1026 l 2
 510 979.8 546.412 949 589 949 c 2
 615 949 l 1
 615 763 l 1
 523 763 l 2
 400.405 763 295 885.409 295 1026 c 2
 295 1315 l 1
 744 1315 l 2
 878.223 1315 983 1228.09 983 1120 c 2
 983 817 l 2
 983 754.022 934.198 709.06 699 548 c 1
 511 421 l 1
 511 287 l 2
 511 231.805 555.252 184 616 184 c 2
 852 184 l 2
 910.907 184 957 242.653 957 305 c 2
 957 393 l 1
 1168 393 l 1
 1168 315 l 2
 1168 246.451 1220.83 184 1299 184 c 2
 1510 184 l 2
 1564.23 184 1615 234.901 1615 305 c 2
 1615 491 l 2
 1615 545.561 1574.87 580 1527 580 c 2
 1457 580 l 1
 1457 763 l 1
 1640 763 l 2
EndSplineSet
EndChar

StartChar: u0C93
Encoding: 3219 3219 123
Width: 1773
Flags: HW
LayerCount: 2
Fore
SplineSet
1615 764 m 2
 1733.42 764 1826 658.125 1826 526 c 1
 1822 254 l 1
 1822 123.525 1731.59 1 1613 1 c 2
 1233 1 l 2
 1149.53 1 1083.24 56.145 1060 122 c 1
 1028.41 49.2159 959.8 1 893 1 c 2
 549 1 l 2
 409.784 1 295 96.4711 295 211 c 2
 295 502 l 1
 526 655 l 1
 732.135 788.783 772 825.757 772 885 c 2
 772 1027 l 2
 772 1082.73 729.921 1131 666 1131 c 2
 510 1131 l 1
 510 1026 l 2
 510 979.8 546.412 949 589 949 c 2
 615 949 l 1
 615 763 l 1
 523 763 l 2
 400.405 763 295 885.409 295 1026 c 2
 295 1315 l 1
 499 1315 l 1
 363 1399 295 1466 295 1516 c 2
 295 1684 l 2
 295 1764.14 380.269 1843 508 1843 c 2
 743 1843 l 1
 743 1657 l 1
 575 1657 l 2
 538.188 1657 509 1636 509 1606 c 2
 509 1525 l 2
 509 1471 579.333 1401.33 720 1316 c 1
 743 1316 l 2
 877.223 1316 982 1229.09 982 1121 c 2
 982 818 l 2
 982 755.022 933.198 710.06 698 549 c 1
 510 422 l 1
 510 288 l 2
 510 232.805 554.252 185 615 185 c 2
 851 185 l 2
 909.907 185 956 243.653 956 306 c 2
 956 394 l 1
 1167 394 l 1
 1167 288 l 2
 1167 233.518 1219.97 185 1298 185 c 2
 1509 185 l 2
 1563.23 185 1614 235.901 1614 306 c 2
 1614 492 l 2
 1614 546.561 1573.87 581 1526 581 c 2
 1456 581 l 1
 1456 764 l 1
 1615 764 l 2
EndSplineSet
EndChar

StartChar: u0C94
Encoding: 3220 3220 124
Width: 1764
Flags: HW
LayerCount: 2
Fore
SplineSet
1563 1849 m 2
 1731.75 1849 1867 1740.86 1867 1603 c 2
 1867 1003 l 1
 1298 1003 l 2
 1175.66 1003 1076 1119.09 1076 1257 c 2
 1076 1478 l 1
 1553 1478 l 1
 1553 1294 l 1
 1264 1294 l 1
 1264 1258 l 2
 1264 1216 1298.3 1188 1341 1188 c 2
 1657 1188 l 1
 1657 1547 l 2
 1657 1616.6 1599.21 1663 1537 1663 c 2
 982 1663 l 1
 1010.67 1645.67 1025 1625.33 1025 1602 c 2
 1025 1548 l 2
 1025 1460.45 962.468 1403 904 1403 c 2
 314 1403 l 1
 314 1586 l 1
 816 1586 l 2
 848.818 1586 866 1616.11 866 1636 c 0
 866 1643.33 849 1652.33 815 1663 c 1
 313 1663 l 1
 313 1849 l 1
 1563 1849 l 2
1635 765 m 2
 1743.04 765 1819 685.188 1819 582 c 2
 1817 229 l 2
 1817 108.724 1739.9 3 1633 3 c 2
 1220 3 l 2
 1140.45 3 1075.68 62.3921 1054 124 c 1
 1027.35 56.7341 965.2 3 906 3 c 2
 564 3 l 2
 414.598 3 289 124.658 289 268 c 2
 289 504 l 1
 518 656 l 1
 623.333 724.667 688.333 771 713 795 c 1
 745.667 823.667 762 853.667 762 885 c 2
 762 1078 l 2
 762 1114 736 1132 684 1132 c 2
 500 1132 l 1
 500 1027 l 2
 500 980.495 537.095 950 578 950 c 2
 629 950 l 1
 629 764 l 1
 511 764 l 2
 387.259 764 287 886.225 287 1028 c 2
 287 1317 l 1
 734 1317 l 2
 870.184 1317 971 1230.93 971 1123 c 2
 971 820 l 2
 971 758.8 901.931 701.794 855 667 c 1
 825.667 643.667 765.333 601.667 674 541 c 2
 501 424 l 1
 501 290 l 2
 501 235.264 543.583 187 607 187 c 2
 870 187 l 2
 920.358 187 949 250.143 949 308 c 2
 949 396 l 1
 1160 396 l 1
 1160 290 l 2
 1160 235.235 1204.22 187 1264 187 c 2
 1474 187 l 2
 1550.12 187 1606 242.691 1606 308 c 2
 1606 494 l 2
 1606 560.77 1546.05 582 1514 582 c 2
 1449 582 l 1
 1449 765 l 1
 1635 765 l 2
EndSplineSet
EndChar

StartChar: u0C95.base
Encoding: 65545 -1 126
Width: 1019
Flags: HW
LayerCount: 2
Fore
SplineSet
555 2 m 2
 443.227 2 357 83.8154 357 185 c 2
 357 422 l 2
 357 509.333 441.333 623.333 610 764 c 1
 197 764 l 1
 197 950 l 1
 699 950 l 1
 699 1133 l 1
 197 1133 l 1
 197 1317 l 1
 1072 1317 l 1
 1072 1133 l 1
 910 1133 l 1
 910 950 l 1
 1386 950 l 1
 1384 765 l 1
 1004 765 l 1
 1203.21 632.191 1251 508.2 1251 444 c 2
 1251 244 l 2
 1251 109.281 1151.36 7 1030 7 c 1
 1030 2 l 1
 555 2 l 2
979 192 m 2
 1020.05 192 1041.75 248.027 1043 293 c 1
 1043 416 l 2
 1043 531.183 916.356 644.241 806 706 c 1
 667.492 626.852 568 533.673 568 432 c 2
 568 288 l 2
 568 234.375 610.25 197 646 197 c 1
 646 192 l 1
 979 192 l 2
EndSplineSet
AnchorPoint: "s" 278 -62 basechar 0


EndChar

StartChar: u0C95.imathra
Encoding: 65546 -1 127
Width: 1198
Flags: HW
LayerCount: 2
Fore
SplineSet
939 1662 m 2
 1047.49 1662 1121 1580.34 1121 1479 c 2
 1121 1124 l 1
 979 952 l 1
 1256 952 l 1
 1258 765 l 1
 964 765 l 1
 1177.94 620.678 1230 482.6 1230 412 c 2
 1230 186 l 2
 1230 81.332 1148.02 3 1048 3 c 2
 544 3 l 2
 427.434 3 335 86.4635 335 187 c 2
 335 440 l 2
 335 499.596 384.911 551.911 465 632 c 2
 597 765 l 1
 281 765 l 1
 281 951 l 1
 754 951 l 1
 912 1151 l 1
 912 1440 l 2
 912 1464.67 903.667 1477 887 1477 c 2
 754 1477 l 1
 754 1360 l 2
 754 1343.6 773.15 1319 807 1319 c 2
 833 1319 l 1
 833 1135 l 1
 727 1135 l 2
 622.29 1135 542 1212.12 542 1294 c 2
 542 1662 l 1
 939 1662 l 2
961 188 m 2
 983.4 188 1013.49 205.647 1017 267 c 1
 1017 423 l 2
 1017 479 937.667 572.667 779 704 c 1
 620.333 567.333 541 470.333 541 413 c 2
 541 240 l 2
 541 212.493 576.877 188 610 188 c 2
 961 188 l 2
EndSplineSet
AnchorPoint: "s" 270 -80 basechar 0


Ligature2: "'abvs' Above Base Substitutions in Kannada lookup 11 subtable" u0C95 u0CBF
LCarets2: 1 0 

EndChar

StartChar: u0C95.sub
Encoding: 65547 -1 128
Width: 316
Flags: HW
LayerCount: 2
Fore
SplineSet
34 -794 m 1
 -87.3409 -787.476 -194 -704.455 -194 -591 c 2
 -194 -502 l 2
 -194 -436.667 -145 -361.333 -47 -276 c 1
 -310 -276 l 1
 -310 -117 l 1
 97 -117 l 1
 111 -99.6667 129.333 -78.5 152 -53.5 c 130
 312 125 l 1
 326 146.333 333 165.333 333 182 c 2
 333 435 l 2
 333 478.333 297.667 514.667 227 544 c 1
 348 650 l 1
 460 572 516 507 516 455 c 2
 516 150 l 2
 516 124 502 94.6667 474 62 c 1
 411 -7 l 1
 296 -124 l 1
 640 -124 l 1
 638 -281 l 1
 400 -281 l 1
 494.667 -344.333 542 -405.667 542 -465 c 2
 542 -620 l 2
 542 -712.765 452.35 -794 333 -794 c 2
 34 -794 l 1
299 -651 m 2
 336.8 -651 364.793 -616.472 362 -562 c 1
 362 -469 l 2
 362 -395.8 275.654 -321.965 169 -286 c 1
 53.7598 -319.551 -5 -411.4 -5 -495 c 2
 -5 -572 l 2
 -5 -625.653 46.3082 -651 89 -651 c 2
 299 -651 l 2
EndSplineSet
Position2: "SubMove-1" dx=-100 dy=0 dh=0 dv=0
Ligature2: "'blwf' Below Base Forms in Kannada lookup 5 subtable" u0C95 u0CCD
LCarets2: 1 0 

EndChar

StartChar: u0C95_u0CC3.sub
Encoding: 65548 -1 129
Width: 627
Flags: HW
LayerCount: 2
Fore
SplineSet
1116 262 m 1
 1190.05 226.632 1264 152.182 1264 52 c 2
 1262 -533 l 2
 1262 -676.63 1165.65 -795 1036 -795 c 2
 285 -791 l 2
 170.456 -791 76 -704.15 76 -591 c 2
 76 -237 l 1
 367 -237 l 1
 216.283 -178.486 181 -111.4 181 -80 c 2
 181 104 l 2
 181 162.667 225.667 223.667 315 287 c 1
 104 287 l 1
 104 448 l 1
 474 448 l 1
 474 658 l 1
 684 658 l 1
 684 448 l 1
 1053 448 l 1
 1053 287 l 1
 774 287 l 1
 882.014 252.329 948 177.8 948 105 c 2
 948 -11 l 2
 948 -129.097 850.681 -236 722 -236 c 2
 552 -236 l 1
 552 -392 l 1
 264 -392 l 1
 264 -562 l 2
 264 -602.305 306.603 -628 352 -628 c 2
 984 -628 l 2
 1025.4 -628 1053 -555.13 1053 -484 c 2
 1053 46 l 2
 1053 82.6667 1030 110.333 984 129 c 1
 1116 262 l 1
711 -81 m 2
 741.6 -81 762 -37.5 762 15 c 2
 762 104 l 2
 762 175.6 720.92 246.064 630 283 c 1
 485 283 l 1
 437.026 251.958 370 189.308 370 113 c 2
 370 -20 l 2
 370 -55.0551 407.09 -86 447 -86 c 1
 447 -81 l 1
 711 -81 l 2
EndSplineSet
EndChar

StartChar: u0C96
Encoding: 3222 3222 130
Width: 1805
Flags: HW
LayerCount: 2
Fore
SplineSet
1641 1313 m 2
 1755.21 1313 1854 1219.38 1854 1103 c 2
 1854 205 l 2
 1854 102.352 1798.19 -5 1714 -5 c 2
 1433 -5 l 2
 1385 -5 1333 17.3333 1277 62 c 1
 1118 171 l 1
 1092.03 77.0165 1001.89 -4 881 -4 c 2
 449 -4 l 1
 449 1 l 1
 331.767 1 249 72.2153 249 150 c 2
 249 411 l 2
 249 505.482 327.76 581 422 581 c 2
 801 581 l 2
 863 581 907.333 563 934 527 c 1
 934 1029 l 2
 934 1086.01 907.304 1133 870 1133 c 2
 631 1133 l 2
 623.4 1133 593 1118.42 593 1046 c 2
 593 845 l 1
 382 845 l 1
 382 1123 l 2
 382 1234.68 470.854 1319 592 1319 c 2
 923 1319 l 2
 1039.47 1319 1144 1211.45 1144 1070 c 2
 1144 391 l 1
 1327 232 l 2
 1369 196 1412.67 178 1458 178 c 2
 1579 178 l 2
 1615.6 178 1640 229.55 1640 284 c 2
 1640 1051 l 2
 1640 1099.75 1603.63 1129 1552 1129 c 2
 1326 1129 l 1
 1326 1313 l 1
 1641 1313 l 2
841 179 m 2
 881.856 179 928.309 219.287 931 261 c 1
 931 328 l 1
 892.333 370.667 839.667 392 773 392 c 2
 535 392 l 2
 499.8 392 456 377.6 456 356 c 2
 456 233 l 1
 458.625 204.125 488.061 179 522 179 c 2
 841 179 l 2
EndSplineSet
Substitution2: "Single Substitution lookup 15 subtable" u0C96.base
Ligature2: "Ligature Substitution lookup 14 subtable" u0C96 u0CCD
LCarets2: 1 0 

EndChar

StartChar: u0C96.base
Encoding: 65549 -1 131
Width: 1491
Flags: HW
LayerCount: 2
Fore
SplineSet
1546 1310 m 1
 1734.1 1278.99 1859 1104.64 1859 906 c 2
 1860 205 l 2
 1860 90.0965 1795.99 -5 1718 -5 c 1
 1713 0 l 1
 1432 0 l 2
 1384 0 1332 22.3333 1276 67 c 1
 1132 159 l 1
 1115.42 78.4721 1026.05 -1.93176e-18 885 0 c 2
 453 0 l 2
 337.319 0 253 68.7078 253 149 c 2
 253 410 l 2
 253 504.33 332.599 580 435 580 c 2
 805 580 l 2
 862.333 580 905.667 562 935 526 c 1
 935 1055 l 2
 935 1099.59 909.069 1133 872 1133 c 2
 661 1133 l 2
 621.075 1133 594 1094.55 594 1045 c 2
 594 844 l 1
 383 844 l 1
 383 1122 l 2
 383 1224.49 469.865 1317 593 1317 c 2
 926 1317 l 2
 1042.85 1317 1146 1209.02 1146 1068 c 2
 1146 389 l 1
 1329 258 l 1
 1389.67 203.333 1434 176 1462 176 c 2
 1610 176 l 2
 1633.33 176 1645 190.333 1645 219 c 2
 1645 906 l 2
 1645 1034.96 1542.75 1126 1424 1126 c 2
 1329 1126 l 1
 1329 1310 l 1
 1546 1310 l 1
844 175 m 2
 880 175 930.795 205.122 934 258 c 1
 934 309 l 1
 873.333 361.667 807.667 388 737 388 c 2
 511 388 l 2
 490.6 388 460 373.6 460 352 c 2
 460 229 l 1
 462.508 201.407 490.377 175 527 175 c 2
 844 175 l 2
EndSplineSet
EndChar

StartChar: u0C96.imathra
Encoding: 65550 -1 132
Width: 1805
Flags: HW
LayerCount: 2
Fore
SplineSet
1663 1497 m 2
 1773.27 1497 1859 1398.75 1859 1276 c 2
 1860 205 l 2
 1860 90.0965 1795.99 -5 1718 -5 c 1
 1713 0 l 1
 1432 0 l 2
 1384 0 1332 22.3333 1276 67 c 1
 1117 173 l 1
 1090.8 76.9206 1013.26 0 901 0 c 2
 453 0 l 2
 337.319 0 253 68.7078 253 149 c 2
 253 410 l 2
 253 504.33 332.599 580 435 580 c 2
 805 580 l 2
 843 580 886.667 553.667 936 501 c 1
 936 1028 l 2
 936 1085.37 899.061 1132 848 1132 c 2
 662 1132 l 2
 622.075 1132 595 1093.55 595 1044 c 2
 595 843 l 1
 384 843 l 1
 384 1121 l 2
 384 1223.49 470.865 1316 594 1316 c 2
 927 1316 l 2
 1043.85 1316 1147 1208.02 1147 1067 c 2
 1147 388 l 1
 1303 257 l 1
 1379 202.333 1449.67 175 1515 175 c 2
 1582 175 l 2
 1619.8 175 1645 206.55 1645 246 c 2
 1645 1221 l 2
 1645 1268.26 1625.79 1310 1583 1310 c 2
 1516 1310 l 1
 1492.72 1308.89 1463 1297.27 1463 1276 c 2
 1463 1233 l 2
 1463 1179.7 1494.2 1155 1515 1155 c 2
 1594 1155 l 1
 1594 968 l 1
 1424 968 l 2
 1333.5 968 1252 1049.88 1252 1155 c 2
 1252 1338 l 2
 1252 1430.72 1346.02 1497 1452 1497 c 2
 1663 1497 l 2
844 176 m 2
 877.834 176 930.654 205.132 934 257 c 1
 934 297 l 1
 862.667 357.667 801.333 388 750 388 c 2
 528 388 l 2
 496.925 388 460 373.026 460 352 c 2
 460 246 l 2
 460 205.969 483.45 176 502 176 c 2
 844 176 l 2
EndSplineSet
Ligature2: "'abvs' Above Base Substitutions in Kannada lookup 11 subtable" u0C96 u0CBF
LCarets2: 1 0 

EndChar

StartChar: u0C96.sub
Encoding: 65551 -1 133
Width: 301
Flags: HW
LayerCount: 2
Fore
SplineSet
305 633 m 2
 463.888 633 595 529.047 595 388 c 2
 592 -459 l 2
 592 -611.541 476.945 -737 329 -737 c 2
 198 -737 l 2
 178 -737 129.333 -724 52 -698 c 1
 -30.6667 -760 -96.6667 -791 -146 -791 c 2
 -423 -791 l 2
 -512.344 -791 -598 -725.99 -598 -643 c 2
 -598 -527 l 2
 -598 -434.753 -523.811 -355 -422 -355 c 2
 -212 -355 l 2
 -192.667 -355 -176 -360 -162 -370 c 2
 -34 -458 l 1
 -34 -300 l 2
 -34 -234.745 -73.3738 -185 -128 -185 c 2
 -154 -185 l 1
 -154 -288 l 1
 -337 -288 l 1
 -337 -38 l 1
 -84 -38 l 2
 50.2092 -38 154 -151.421 154 -300 c 2
 154 -564 l 1
 185.333 -581.333 208.667 -590 224 -590 c 2
 330 -590 l 2
 376.2 -590 407 -535.125 407 -448 c 2
 407 372 l 2
 407 424.197 357.143 467 288 467 c 2
 182 467 l 1
 182 633 l 1
 305 633 l 2
-422 -616 m 2
 -422 -628.464 -397.444 -640 -382 -640 c 2
 -170 -640 l 1
 -153.933 -638.539 -129.202 -626.164 -92 -607 c 1
 -127.494 -574.041 -194.85 -526 -266 -526 c 2
 -382 -526 l 2
 -408.667 -526 -422 -534.667 -422 -552 c 2
 -422 -616 l 2
EndSplineSet
Position2: "SubMove-1" dx=-100 dy=0 dh=0 dv=0
Ligature2: "'blwf' Below Base Forms in Kannada lookup 5 subtable" u0C96 u0CCD
LCarets2: 1 0 

EndChar

StartChar: u0C97.base
Encoding: 65552 -1 135
Width: 1062
Flags: HW
LayerCount: 2
Fore
SplineSet
1116 1319 m 1
 1308.25 1271.28 1432 1111.5 1432 940 c 2
 1430 0 l 1
 1219 0 l 1
 1219 940 l 2
 1219 1046.69 1124.68 1134 999 1134 c 2
 798 1134 l 2
 678.528 1134 590 1050.38 590 941 c 2
 590 1 l 1
 379 1 l 1
 379 952 l 2
 379 1022 414 1083 484 1135 c 1
 379 1135 l 1
 379 1319 l 1
 1116 1319 l 1
EndSplineSet
EndChar

StartChar: u0C97.imathra
Encoding: 65553 -1 136
Width: 1408
Flags: HW
LayerCount: 2
Fore
SplineSet
931 1715 m 2
 1215.49 1715 1456 1449.43 1456 1108 c 2
 1457 0 l 1
 1246 0 l 1
 1246 940 l 2
 1246 1053.01 1182.5 1134 1088 1134 c 2
 744 1134 l 2
 652.633 1134 590 1053.33 590 952 c 2
 590 1 l 1
 379 1 l 1
 379 941 l 2
 379 1074.58 448.1 1180.04 535 1229 c 1
 454.095 1254.43 379 1316.68 379 1412 c 2
 379 1545 l 2
 379 1645.03 473.384 1715 576 1715 c 2
 931 1715 l 2
591 1413 m 2
 591 1370.28 609.105 1325.8 641 1320 c 1
 1090 1320 l 2
 1146.67 1320 1198.33 1289.67 1245 1229 c 1
 1215.57 1399.18 1067.28 1528 868 1528 c 2
 684 1528 l 2
 622 1528 591 1511.33 591 1478 c 2
 591 1413 l 2
EndSplineSet
Ligature2: "'abvs' Above Base Substitutions in Kannada lookup 11 subtable" u0C97 u0CBF
LCarets2: 1 0 

EndChar

StartChar: u0C97.sub
Encoding: 65554 -1 137
Width: 184
Flags: HW
LayerCount: 2
Fore
SplineSet
110 -106 m 2
 262.103 -106 375 -208.922 375 -342 c 2
 376 -792 l 1
 190 -792 l 1
 190 -371 l 2
 190 -312.867 147.071 -267 84 -267 c 2
 -74 -267 l 2
 -129.3 -267 -177 -305.381 -177 -371 c 2
 -177 -792 l 1
 -364 -792 l 1
 -364 -371 l 2
 -364 -221.678 -252.45 -106 -116 -106 c 2
 110 -106 l 2
EndSplineSet
Position2: "SubMove-1" dx=-100 dy=0 dh=0 dv=0
Ligature2: "'blwf' Below Base Forms in Kannada lookup 5 subtable" u0C97 u0CCD
LCarets2: 1 0 

EndChar

StartChar: u0C98.base
Encoding: 65555 -1 139
Width: 1874
Flags: HW
LayerCount: 2
Fore
SplineSet
1555 914 m 2
 1555 1037.92 1445.77 1136 1307 1136 c 2
 316 1136 l 1
 316 1320 l 1
 2268 1320 l 1
 2265 1135 l 1
 1658 1135 l 1
 1755.7 1072.47 1764 983.016 1764 942 c 1
 1823.33 843.333 1881.33 794 1938 794 c 0
 1991.69 794 2025 831.024 2025 871 c 2
 2025 1057 l 1
 2236 1057 l 1
 2236 898 l 2
 2236 756.964 2156.24 612 2026 612 c 2
 1921 612 l 2
 1862.33 612 1810 637.667 1764 689 c 1
 1764 269 l 2
 1764 117.109 1664.67 4 1553 4 c 2
 1237 4 l 2
 1129.05 4 1055.39 94.8929 1027 188 c 1
 988.198 74.2713 911.2 4 834 4 c 2
 501 4 l 2
 404.169 4 317 102.387 317 230 c 2
 317 795 l 1
 608 795 l 2
 739.422 795 845 694.514 845 558 c 2
 845 507 l 1
 631 507 l 1
 631 547 l 2
 631 587.822 604.033 612 570 612 c 2
 527 612 l 1
 527 285 l 2
 527 232.567 558.117 189 597 189 c 2
 808 189 l 2
 870.577 189 923 277.148 923 389 c 2
 923 530 l 1
 1133 530 l 1
 1133 389 l 2
 1133 300.975 1210.58 188 1266 188 c 2
 1476 188 l 2
 1525.04 188 1555 226.938 1555 283 c 2
 1555 914 l 2
1133 793 m 1
 923 793 l 1
 923 1004 l 1
 1133 1004 l 1
 1133 793 l 1
1133 -275 m 1
 923 -275 l 1
 923 -11 l 1
 1133 -11 l 1
 1133 -275 l 1
EndSplineSet
EndChar

StartChar: u0C98.imathra
Encoding: 65556 -1 140
Width: 2233
Flags: HW
LayerCount: 2
Fore
SplineSet
979 1715 m 2
 1061.33 1715 1136 1641.25 1136 1529 c 2
 1135 1163 l 2
 1135 1042.24 1061.8 952 953 952 c 2
 611 952 l 1
 611 1135 l 1
 872 1135 l 2
 903.523 1135 926 1174.69 926 1212 c 2
 926 1440 l 2
 926 1504.2 893.6 1527 872 1527 c 2
 777 1527 l 2
 752.333 1527 740 1515.33 740 1492 c 2
 740 1439 l 1
 741.211 1417.21 755.703 1398 777 1398 c 2
 872 1398 l 1
 872 1212 l 1
 700 1212 l 2
 607.54 1212 530 1291.46 530 1372 c 2
 530 1519 l 2
 530 1637.74 627.784 1715 727 1715 c 2
 979 1715 l 2
2027 843 m 2
 2048.6 843 2081 866.7 2081 948 c 2
 2081 1316 l 1
 2292 1316 l 1
 2293 897 l 2
 2293 758.853 2210.36 660 2108 660 c 2
 1924 660 l 2
 1868 660 1815.33 686 1766 738 c 1
 1766 267 l 2
 1766 115.611 1667.66 4.9206 1560 2 c 1
 1243 2 l 2
 1141.78 2 1060.73 74.4435 1034 161 c 1
 1006.63 76.5141 932.153 2 836 2 c 2
 509 2 l 2
 403.782 2 323 96.0016 323 201 c 2
 323 793 l 1
 615 793 l 2
 744.716 793 851 699.65 851 584 c 2
 851 505 l 1
 639 505 l 1
 639 572 l 2
 639 594.8 610.7 610 573 610 c 2
 536 610 l 1
 536 283 l 2
 536 221.069 573.8 187 599 187 c 2
 810 187 l 2
 884.236 187 931 289.686 931 387 c 2
 931 528 l 1
 1140 528 l 1
 1140 387 l 2
 1140 298.975 1217.58 186 1273 186 c 2
 1484 186 l 2
 1521.53 186 1561 220.199 1561 281 c 2
 1561 1029 l 2
 1561 1084.01 1518.14 1133 1456 1133 c 2
 1308 1133 l 1
 1308 1317 l 1
 1520 1317 l 2
 1660.85 1317 1770 1174.41 1770 1001 c 1
 1836.67 895.667 1891.33 843 1934 843 c 2
 2027 843 l 2
1135 -320 m 1
 926 -320 l 1
 926 -59 l 1
 1135 -59 l 1
 1135 -320 l 1
EndSplineSet
Ligature2: "'abvs' Above Base Substitutions in Kannada lookup 11 subtable" u0C98 u0CBF
LCarets2: 1 0 

EndChar

StartChar: u0C98.sub
Encoding: 65557 -1 141
Width: 386
Flags: HW
LayerCount: 2
Fore
SplineSet
600 316 m 1
 697.635 252.759 773 182.971 773 106 c 2
 771 -61 l 1
 771 -155.667 726.667 -231 638 -287 c 1
 638 -457 l 2
 638 -571.32 564.8 -666 455 -666 c 2
 175 -666 l 2
 69.2561 -666 -12.0436 -581.572 -46 -508 c 1
 -106.699 -612.056 -196.6 -683 -297 -683 c 2
 -571 -683 l 2
 -674.25 -683 -755 -600.402 -755 -508 c 2
 -755 -325 l 2
 -755 -207.616 -666.379 -132 -571 -132 c 2
 -308 -132 l 1
 -308 -287 l 1
 -506 -287 l 2
 -539.38 -287 -570 -315.807 -570 -354 c 2
 -570 -474 l 2
 -570 -498.375 -543.062 -525 -517 -525 c 2
 -280 -525 l 2
 -223.864 -525 -140 -418.526 -140 -341 c 2
 -140 -264 l 1
 47 -264 l 1
 47 -353 l 2
 47 -420.924 125.247 -499 193 -499 c 2
 414 -499 l 2
 442 -499 456 -481.333 456 -446 c 2
 456 -340 l 1
 247 -340 l 1
 247 -182 l 1
 484 -182 l 2
 538.004 -182 590 -127.588 590 -53 c 2
 590 96 l 2
 590 114.667 558.333 144.333 495 185 c 1
 600 316 l 1
45 -791 m 1
 -142 -791 l 1
 -142 -670 l 1
 -47 -554 l 1
 45 -670 l 1
 45 -791 l 1
EndSplineSet
Position2: "SubMove-1" dx=-100 dy=0 dh=0 dv=0
Ligature2: "'blwf' Below Base Forms in Kannada lookup 5 subtable" u0C98 u0CCD
LCarets2: 1 0 

EndChar

StartChar: u0C99
Encoding: 3225 3225 142
Width: 1684
Flags: HW
LayerCount: 2
Fore
SplineSet
1555 765 m 2
 1654.94 765 1741 684.373 1741 570 c 2
 1744 211 l 2
 1744 100.108 1662.71 1 1558 1 c 2
 1187 1 l 2
 1114.6 1 1038.64 47.1144 1006 148 c 1
 987.566 70.8085 933.977 -1 849 -1 c 2
 497 -1 l 2
 382.523 -1 293 83.0213 293 183 c 2
 293 464 l 1
 680 790 l 1
 704.667 805.333 717 840 717 894 c 2
 717 1053 l 2
 717 1091.39 676.8 1130 613 1130 c 2
 507 1130 l 1
 507 1052 l 2
 507 1009.76 530.859 974 558 974 c 2
 586 974 l 1
 586 790 l 1
 453 790 l 2
 371.816 790 292 876.099 292 990 c 2
 292 1317 l 1
 653 1317 l 2
 770.621 1317 867.24 1263.04 889 1176 c 1
 971.667 1270 1059.33 1317 1152 1317 c 2
 1546 1317 l 2
 1631.2 1317 1688 1247.9 1688 1162 c 2
 1688 1003 l 1
 1478 1003 l 1
 1478 1070 l 2
 1478 1093.57 1465 1133 1413 1133 c 2
 1213 1133 l 2
 1087 1133 966.373 1066.23 898 950 c 1
 898 834 l 2
 898 748.667 872.333 687 821 649 c 1
 504 360 l 1
 504 256 l 2
 504 214.6 543.756 187 598 187 c 2
 766 187 l 2
 840.343 187 897 233.375 897 290 c 2
 897 396 l 1
 1108 396 l 1
 1108 290 l 2
 1108 239.618 1161.8 187 1239 187 c 2
 1478 187 l 2
 1507.97 187 1527 208.689 1527 239 c 2
 1527 503 l 2
 1527 555.667 1515.33 582 1492 582 c 2
 1344 582 l 1
 1344 765 l 1
 1555 765 l 2
1106 503 m 1
 895 503 l 1
 895 714 l 1
 1106 714 l 1
 1106 503 l 1
EndSplineSet
Ligature2: "Ligature Substitution lookup 14 subtable" u0C99 u0CCD
LCarets2: 1 0 

EndChar

StartChar: u0C99.sub
Encoding: 65558 -1 143
Width: 359
Flags: HW
LayerCount: 2
Fore
SplineSet
121 -422 m 1
 -62 -422 l 1
 -62 -288 l 1
 121 -288 l 1
 121 -422 l 1
481 -642 m 2
 515.513 -642 542 -612.304 542 -582 c 2
 542 -449 l 1
 718 -449 l 1
 718 -618 l 2
 718 -715.373 643.797 -791 559 -791 c 2
 190 -791 l 2
 121.623 -791 56.2949 -741.87 35 -670 c 1
 15.9153 -734.888 -50.7089 -791 -125 -791 c 2
 -519 -791 l 2
 -615.094 -791 -704 -718.147 -704 -632 c 2
 -704 -487 l 2
 -704 -401.302 -621.8 -343 -545 -343 c 2
 -414 -343 l 2
 -397.333 -343 -389 -334.333 -389 -317 c 2
 -389 -267 l 2
 -389 -248.333 -397.333 -239 -414 -239 c 2
 -678 -239 l 1
 -678 -81 l 1
 -334 -81 l 2
 -269.741 -81 -223.47 -117.666 -218 -171 c 1
 -186.667 -111 -138 -81 -72 -81 c 2
 245 -81 l 2
 361.472 -81 428 -154.755 428 -238 c 2
 428 -343 l 1
 245 -343 l 1
 245 -266 l 2
 245 -236.667 221.667 -222 175 -222 c 2
 -36 -222 l 2
 -102.8 -222 -169.271 -275.051 -203 -356 c 1
 -203 -423 l 2
 -203 -464.864 -250.643 -502 -324 -502 c 2
 -468 -502 l 2
 -501.333 -502 -518 -514 -518 -538 c 2
 -518 -591 l 2
 -518 -612.902 -493.859 -630 -469 -630 c 2
 -168 -630 l 2
 -110.095 -630 -60 -596.804 -60 -553 c 2
 -60 -475 l 1
 123 -475 l 1
 123 -538 l 2
 123 -597.875 172.341 -642 227 -642 c 2
 481 -642 l 2
EndSplineSet
Position2: "SubMove-1" dx=-100 dy=0 dh=0 dv=0
Ligature2: "'blwf' Below Base Forms in Kannada lookup 5 subtable" u0C99 u0CCD
LCarets2: 1 0 

EndChar

StartChar: u0C9A.base
Encoding: 65559 -1 145
Width: 1506
Flags: HW
LayerCount: 2
Fore
SplineSet
1514 544 m 2
 1514 611.763 1464.31 660 1408 660 c 2
 1145 660 l 1
 1145 846 l 1
 1469 846 l 1
 1469 1135 l 1
 1145 1135 l 1
 1145 1319 l 1
 1565 1319 l 1
 1681 1135 l 1
 1681 846 l 1
 1882 846 l 1
 1880 659 l 1
 1669 659 l 1
 1704.33 629.667 1722 595 1722 555 c 2
 1722 212 l 2
 1722 95.4844 1634.52 2 1522 2 c 2
 1143 2 l 2
 1071.57 2 1010.3 50.6265 1000 106 c 1
 985.509 48.0365 918.098 2 839 2 c 2
 512 2 l 2
 399.486 2 299 101.629 299 228 c 2
 299 517 l 1
 698 781 l 1
 698 1047 l 2
 698 1099.8 654.5 1135 603 1135 c 2
 514 1135 l 1
 514 1047 l 2
 514 1011.6 538 978 574 978 c 2
 617 978 l 1
 617 794 l 1
 471 794 l 2
 372.659 794 300 884.558 300 977 c 2
 300 1319 l 1
 710 1319 l 2
 820.955 1319 908 1222.72 908 1098 c 2
 908 677 l 1
 514 396 l 1
 514 290 l 2
 514 235.994 544.282 187 593 187 c 2
 814 187 l 2
 863.586 187 906 224.719 906 268 c 2
 906 396 l 1
 1117 396 l 1
 1117 290 l 2
 1117 225.617 1161.38 187 1194 187 c 2
 1416 187 l 2
 1479.84 187 1514 229.027 1514 267 c 2
 1514 544 l 2
EndSplineSet
EndChar

StartChar: u0C9A.imathra
Encoding: 65560 -1 146
Width: 1833
Flags: HW
LayerCount: 2
Fore
SplineSet
1557 1509 m 2
 1653.05 1509 1731 1425.16 1731 1311 c 2
 1731 981 l 2
 1731 927 1713 883.333 1677 850 c 1
 1888 850 l 1
 1889 659 l 1
 1678 659 l 1
 1714 629.667 1732 595 1732 555 c 2
 1732 212 l 2
 1732 90.7196 1663.24 1 1583 1 c 2
 1152 1 l 2
 1081.25 1 1019.25 51.1719 1009 105 c 1
 1002.58 51.0512 932.465 1 848 1 c 2
 496 1 l 2
 393.336 1 311 83.586 311 174 c 2
 311 543 l 1
 708 781 l 1
 708 1047 l 2
 708 1106.68 655.419 1135 614 1135 c 2
 522 1135 l 1
 522 1047 l 2
 522 1008.85 548 978 587 978 c 2
 654 978 l 1
 654 794 l 1
 481 794 l 2
 387.53 794 313 868.372 313 953 c 2
 313 1321 l 1
 735 1321 l 2
 844.2 1321 917 1223.28 917 1111 c 2
 917 679 l 1
 521 426 l 1
 521 270 l 2
 521 220.915 566.512 190 601 190 c 2
 795 190 l 2
 859.912 190 915 222.4 915 271 c 2
 915 454 l 1
 1126 454 l 1
 1126 293 l 2
 1126 237.771 1161.74 191 1204 191 c 2
 1451 191 l 2
 1490.35 191 1520 226.69 1520 271 c 2
 1520 548 l 2
 1520 592.151 1493.14 648.062 1425 662 c 1
 1152 662 l 1
 1152 848 l 1
 1441 848 l 1
 1493.67 876 1520 911.333 1520 954 c 2
 1520 1297 l 2
 1520 1313.67 1496.67 1322 1450 1322 c 2
 1373 1322 l 1
 1365 1320.67 1361 1300.67 1361 1262 c 2
 1361 1218 l 2
 1361 1193.69 1393.4 1168 1423 1168 c 2
 1493 1168 l 1
 1493 982 l 1
 1306 982 l 2
 1226.19 982 1152 1050.21 1152 1139 c 2
 1152 1350 l 2
 1152 1443.41 1225.26 1509 1307 1509 c 2
 1557 1509 l 2
EndSplineSet
Ligature2: "'abvs' Above Base Substitutions in Kannada lookup 11 subtable" u0C9A u0CBF
LCarets2: 1 0 

EndChar

StartChar: u0C9A.sub
Encoding: 65561 -1 147
Width: 359
Flags: HW
LayerCount: 2
Fore
SplineSet
454 -388 m 2
 454 -327.357 406.171 -283 350 -283 c 2
 113 -283 l 1
 113 -128 l 1
 272 -128 l 1
 358.667 -42.6667 402 33 402 99 c 2
 402 453 l 1
 589 453 l 1
 589 99 l 2
 589 23 553.667 -52.6667 483 -128 c 1
 720 -128 l 1
 719 -288 l 1
 570 -288 l 1
 615.333 -316.667 638 -362.667 638 -426 c 2
 638 -612 l 2
 638 -705.904 570.868 -784 482 -784 c 2
 218 -784 l 2
 109.852 -784 24.8158 -720.351 9 -636 c 1
 -21.345 -720.966 -96.9091 -784 -201 -784 c 2
 -506 -784 l 1
 -506 -789 l 1
 -612.426 -789 -703 -730.465 -703 -656 c 2
 -703 -484 l 2
 -703 -400.282 -633.645 -340 -561 -340 c 2
 -429 -340 l 2
 -385.3 -340 -363 -315.4 -363 -299 c 2
 -363 -264 l 2
 -363 -245.333 -380 -236 -414 -236 c 2
 -678 -236 l 1
 -678 -78 l 1
 -352 -78 l 2
 -253.767 -78 -176 -127.988 -176 -193 c 2
 -176 -368 l 2
 -176 -450.831 -252.577 -524 -352 -524 c 2
 -468 -524 l 2
 -492.814 -524 -517 -538.91 -517 -561 c 2
 -517 -587 l 2
 -517 -608.902 -492.859 -626 -468 -626 c 2
 -229 -626 l 2
 -154.17 -626 -87 -563.901 -87 -481 c 2
 -87 -389 l 1
 97 -389 l 1
 97 -496 l 2
 97 -565.459 176.062 -625 218 -625 c 2
 387 -625 l 2
 425.011 -625 454 -589.876 454 -547 c 2
 454 -388 l 2
EndSplineSet
Position2: "SubMove-1" dx=-100 dy=0 dh=0 dv=0
Ligature2: "'blwf' Below Base Forms in Kannada lookup 5 subtable" u0C9A u0CCD
LCarets2: 1 0 

EndChar

StartChar: u0C9B.base
Encoding: 65562 -1 149
Width: 1341
Flags: HW
LayerCount: 2
Fore
SplineSet
1418 1311 m 1
 1589.95 1288.81 1710 1160.8 1710 1028 c 2
 1712 226 l 2
 1712 99.9466 1613.73 -3.45084e-18 1501 0 c 2
 1237 0 l 2
 1149.01 0 1072.36 57.1537 1053 132 c 1
 1030.05 48.813 954.946 1.63093e-18 886 0 c 2
 597 0 l 2
 474.914 0 372 94.6992 372 210 c 2
 372 1069 l 2
 372 1212.84 489.638 1317 598 1317 c 2
 976 1317 l 1
 976 975 l 2
 976 841.929 892.653 764 810 764 c 2
 662 764 l 1
 662 950 l 1
 715 950 l 2
 747.863 950 766 989.456 766 1027 c 2
 766 1132 l 1
 677 1132 l 2
 624.119 1132 582 1094.04 582 1045 c 2
 582 280 l 2
 582 227.267 617.945 185 660 185 c 2
 835 185 l 2
 898.901 185 949 232.299 949 287 c 2
 949 421 l 1
 1160 421 l 1
 1160 287 l 2
 1160 232.235 1204.22 184 1264 184 c 2
 1420 184 l 2
 1472.35 184 1500 240.044 1500 287 c 2
 1500 1028 l 2
 1500 1077.33 1465 1110.33 1395 1127 c 1
 1129 1127 l 1
 1129 1311 l 1
 1418 1311 l 1
1156 -318 m 1
 945 -318 l 1
 945 -57 l 1
 1156 -57 l 1
 1156 -318 l 1
EndSplineSet
EndChar

StartChar: u0C9B.imathra
Encoding: 65563 -1 150
Width: 1657
Flags: HW
LayerCount: 2
Fore
SplineSet
1518 1529 m 2
 1622.56 1529 1713 1425.31 1713 1284 c 2
 1712 226 l 2
 1712 104.401 1634.27 -3.56612e-18 1526 0 c 2
 1238 0 l 2
 1150.01 0 1073.36 57.1537 1054 132 c 1
 1029.48 61.9496 971.483 0 886 0 c 2
 597 0 l 2
 474.914 0 372 94.6992 372 210 c 2
 372 1069 l 2
 372 1212.84 489.638 1317 598 1317 c 2
 976 1317 l 1
 976 975 l 2
 976 841.929 892.653 764 810 764 c 2
 662 764 l 1
 662 950 l 1
 715 950 l 2
 748.267 950 766 977.609 766 1001 c 2
 766 1132 l 1
 677 1132 l 2
 624.119 1132 582 1094.04 582 1045 c 2
 582 280 l 2
 582 224.94 626.073 184 677 184 c 2
 836 184 l 2
 899.901 184 950 231.299 950 286 c 2
 950 420 l 1
 1161 420 l 1
 1161 286 l 2
 1161 231.235 1205.22 183 1265 183 c 2
 1421 183 l 2
 1473.35 183 1501 239.044 1501 286 c 2
 1501 1256 l 2
 1501 1303.2 1475.4 1344 1437 1344 c 2
 1358 1344 l 2
 1319.85 1344 1291 1315.57 1291 1282 c 2
 1291 1203 l 2
 1291 1162.2 1326.1 1135 1358 1135 c 2
 1421 1135 l 1
 1421 952 l 1
 1291 952 l 2
 1175.6 952 1078 1043.44 1078 1152 c 2
 1078 1335 l 2
 1078 1446.08 1161.9 1529 1265 1529 c 2
 1518 1529 l 2
1159 -316 m 1
 948 -316 l 1
 948 -55 l 1
 1159 -55 l 1
 1159 -316 l 1
EndSplineSet
Ligature2: "'abvs' Above Base Substitutions in Kannada lookup 11 subtable" u0C9B u0CBF
LCarets2: 1 0 

EndChar

StartChar: u0C9B.sub
Encoding: 65564 -1 151
Width: 288
Flags: HW
LayerCount: 2
Fore
SplineSet
296 388 m 1
 481.692 350.017 593 160.435 593 -46 c 2
 592 -453 l 2
 592 -605.941 527.614 -728 445 -728 c 2
 213 -728 l 2
 117.227 -728 50.1012 -671.858 31 -598 c 1
 9.37006 -671.302 -47.3605 -729 -135 -729 c 2
 -396 -729 l 1
 -407 -725 l 1
 -494.594 -725 -577 -638.784 -577 -529 c 2
 -577 -318 l 2
 -577 -211.68 -504.6 -119 -396 -119 c 2
 -174 -119 l 1
 -174 -303 l 1
 -344 -303 l 2
 -374.6 -303 -395 -334.425 -395 -372 c 2
 -395 -488 l 2
 -395 -528.556 -365.225 -554 -344 -554 c 2
 -156 -554 l 2
 -96.0149 -554 -64 -489.897 -64 -423 c 2
 -64 -356 l 1
 108 -356 l 1
 108 -433 l 2
 108 -504.758 155.644 -554 202 -554 c 2
 335 -554 l 2
 387.345 -554 428 -511.637 428 -450 c 2
 428 -39 l 2
 428 94.0039 355.735 206.538 235 229 c 1
 296 388 l 1
120 -856 m 1
 -67 -856 l 1
 -67 -767 l 1
 28 -651 l 1
 120 -767 l 1
 120 -856 l 1
EndSplineSet
Position2: "SubMove-1" dx=-100 dy=0 dh=0 dv=0
Ligature2: "'blwf' Below Base Forms in Kannada lookup 5 subtable" u0C9B u0CCD
LCarets2: 1 0 

EndChar

StartChar: u0C9C
Encoding: 3228 3228 152
Width: 1706
Flags: HW
LayerCount: 2
Fore
SplineSet
1595 741 m 2
 1686.66 741 1762 642.368 1762 521 c 2
 1764 211 l 2
 1764 105.109 1689.38 2 1580 2 c 2
 1174 2 l 2
 1100.95 2 1045.75 59.2547 1027 123 c 1
 1016.75 55.0835 965.055 2 895 2 c 2
 491 2 l 2
 374.312 2 288 88.1414 288 186 c 2
 288 517 l 1
 702 738 l 1
 742.667 776.667 763 812.333 763 845 c 2
 763 1029 l 2
 763 1091.36 707.806 1133 648 1133 c 2
 527 1133 l 1
 527 1017 l 2
 527 999.667 554 991 608 991 c 2
 659 991 l 1
 659 791 l 1
 501 791 l 2
 404.212 791 317 864.307 317 975 c 2
 317 1317 l 1
 729 1317 l 2
 843.834 1317 972 1248.57 972 1123 c 1
 1020 1061 1069.67 1030 1121 1030 c 2
 1385 1030 l 2
 1422.82 1030 1446 1059.4 1446 1079 c 2
 1446 1122 l 2
 1446 1148 1433.67 1161 1409 1161 c 2
 1370 1161 l 1
 1370 1344 l 1
 1463 1344 l 2
 1579.83 1344 1656 1255.22 1656 1152 c 2
 1656 1031 l 2
 1656 921.2 1570.22 848 1473 848 c 2
 1147 848 l 2
 1087.67 848 1029.33 874.333 972 927 c 1
 972 783 l 2
 972 719 946 666 894 624 c 1
 500 415 l 1
 500 285 l 2
 500 224.516 546.772 189 593 189 c 2
 831 189 l 2
 879.968 189 920 236.061 920 292 c 2
 920 374 l 1
 1130 374 l 1
 1130 310 l 2
 1130 256.969 1176.17 190 1251 190 c 2
 1445 190 l 2
 1504.89 190 1551 249.741 1551 311 c 2
 1551 480 l 2
 1551 528.086 1514.1 558 1462 558 c 2
 1341 558 l 1
 1341 741 l 1
 1595 741 l 2
EndSplineSet
Substitution2: "Single Substitution lookup 15 subtable" u0C9C.base
Ligature2: "Ligature Substitution lookup 14 subtable" u0C9C u0CCD
LCarets2: 1 0 

EndChar

StartChar: u0C9C.base
Encoding: 65565 -1 153
Width: 1390
Flags: HW
LayerCount: 2
Fore
SplineSet
1581 734 m 2
 1691.4 734 1765 652.519 1765 540 c 1
 1768 237 l 1
 1768 106.02 1673.44 -3.50323e-18 1559 0 c 2
 1174 0 l 2
 1104.38 0 1051.81 61.0506 1033 121 c 1
 1023.15 59.4085 963.662 -1.96641e-18 876 0 c 2
 493 0 l 2
 384.769 0 295 85.7117 295 184 c 2
 295 515 l 1
 677 736 l 1
 740.333 792 772 845 772 895 c 2
 772 1027 l 2
 772 1082.35 734.4 1131 678 1131 c 2
 536 1131 l 1
 536 1067 l 2
 536 1016.1 567.8 991 589 991 c 2
 639 991 l 1
 639 791 l 1
 509 791 l 2
 399.494 791 324 878.561 324 975 c 2
 324 1317 l 1
 732 1317 l 2
 867.331 1317 982 1215.47 982 1095 c 1
 1024 1050.33 1062.67 1028 1098 1028 c 2
 1351 1028 l 2
 1382.2 1028 1403 1055.7 1403 1094 c 2
 1403 1131 l 1
 1112 1131 l 1
 1112 1315 l 1
 1408 1315 l 2
 1523.8 1315 1613 1235.97 1613 1131 c 2
 1613 1026 l 2
 1613 923.228 1525.2 842 1427 842 c 2
 1149 842 l 2
 1094.33 842 1038.33 868.333 981 921 c 1
 981 805 l 2
 981 758.333 945.667 705.333 875 646 c 1
 507 409 l 1
 507 279 l 2
 507 225.066 546.049 183 595 183 c 2
 833 183 l 2
 882.63 183 927 231.617 927 286 c 2
 927 368 l 1
 1136 368 l 1
 1136 304 l 2
 1136 234.317 1180.54 183 1225 183 c 2
 1451 183 l 2
 1514 183 1556 237.151 1556 286 c 2
 1556 490 l 2
 1556 524.819 1515.95 551 1461 551 c 2
 1345 551 l 1
 1345 734 l 1
 1581 734 l 2
EndSplineSet
EndChar

StartChar: u0C9C.imathra
Encoding: 65566 -1 154
Width: 1727
Flags: HW
LayerCount: 2
Fore
SplineSet
1573 736 m 2
 1697.88 736 1783 642.385 1783 543 c 2
 1785 211 l 2
 1785 95.0488 1690.91 1 1575 1 c 2
 1165 1 l 2
 1093.32 1 1041.08 61.1846 1022 122 c 1
 1011.26 50.8266 952.641 1 891 1 c 2
 507 1 l 2
 388.762 1 287 93.3594 287 211 c 2
 287 492 l 1
 719 765 l 1
 745.667 794.333 759 829 759 869 c 2
 759 1045 l 2
 759 1096.69 729.778 1133 681 1133 c 2
 522 1133 l 1
 522 1045 l 1
 524.43 1014.63 543.867 991 574 991 c 2
 625 991 l 1
 625 791 l 1
 497 791 l 2
 389.477 791 312 879.507 312 974 c 2
 312 1316 l 1
 719 1316 l 2
 861.116 1316 969 1238.41 969 1149 c 1
 1043.67 1113 1115 1095 1183 1095 c 2
 1262 1095 l 1
 1262 1344 l 2
 1262 1453.2 1344.44 1526 1445 1526 c 2
 1576 1526 l 2
 1686.26 1526 1758 1435.06 1758 1317 c 2
 1758 1106 l 2
 1758 985.188 1661.02 896 1549 896 c 2
 1216 896 l 2
 1122.67 896 1039.67 914 967 950 c 1
 967 791 l 2
 967 736.333 950 698 916 676 c 2
 496 412 l 1
 496 267 l 2
 496 216.5 534.5 186 572 186 c 2
 822 186 l 2
 870.788 186 913 224.808 913 282 c 2
 913 371 l 1
 1124 371 l 1
 1124 307 l 2
 1124 243.265 1167 186 1213 186 c 2
 1479 186 l 2
 1527.95 186 1572 233.921 1572 289 c 2
 1572 466 l 2
 1572 515.503 1522.55 553 1466 553 c 2
 1335 553 l 1
 1335 736 l 1
 1573 736 l 2
1521 1080 m 2
 1541.4 1080 1572 1099.15 1572 1163 c 2
 1572 1294 l 2
 1572 1328 1557.67 1345 1529 1345 c 2
 1494 1345 l 2
 1465.35 1345 1442 1324.6 1442 1294 c 2
 1442 1080 l 1
 1521 1080 l 2
EndSplineSet
Ligature2: "'abvs' Above Base Substitutions in Kannada lookup 11 subtable" u0C9C u0CBF
LCarets2: 1 0 

EndChar

StartChar: u0C9C.sub
Encoding: 65567 -1 155
Width: 348
Flags: HW
LayerCount: 2
Fore
SplineSet
434 -237 m 2
 473.132 -237 503 -207.984 503 -184 c 2
 503 -105 l 2
 503 -79 485.333 -53.6667 450 -29 c 1
 555 78 l 1
 642.333 18.6667 686 -42.6667 686 -106 c 2
 686 -221 l 2
 686 -327.919 615.11 -394 530 -394 c 2
 136 -394 l 2
 42.6667 -394 -54.6667 -345.667 -156 -249 c 1
 -77 -133 l 1
 29 -202.333 94 -237 118 -237 c 2
 434 -237 l 2
472 -635 m 2
 499.5 -635 522 -615 522 -585 c 2
 522 -452 l 1
 708 -452 l 1
 708 -593 l 2
 708 -701.415 644.256 -793 549 -793 c 2
 233 -793 l 2
 147.801 -793 66.5545 -730.995 51 -661 c 1
 8.33333 -749.667 -52 -794 -130 -794 c 2
 -504 -794 l 2
 -607.674 -794 -688 -722.112 -688 -647 c 2
 -688 -506 l 2
 -688 -406.897 -615.151 -347 -545 -347 c 2
 -414 -347 l 2
 -381.35 -347 -363 -325.5 -363 -306 c 2
 -363 -271 l 2
 -363 -252.333 -374.667 -243 -398 -243 c 2
 -662 -243 l 1
 -662 -67 l 1
 -346 -67 l 2
 -251.294 -67 -177 -134.922 -177 -216 c 2
 -177 -385 l 2
 -177 -443.498 -237.599 -506 -320 -506 c 2
 -451 -506 l 2
 -487 -506 -505 -518 -505 -542 c 2
 -505 -595 l 2
 -505 -615.231 -475.942 -635 -451 -635 c 2
 -163 -635 l 2
 -93.7383 -635 -47 -576.489 -47 -514 c 2
 -47 -453 l 1
 140 -453 l 1
 140 -514 l 2
 140 -582.062 199.531 -635 261 -635 c 2
 472 -635 l 2
EndSplineSet
Position2: "SubMove-1" dx=-100 dy=0 dh=0 dv=0
Ligature2: "'blwf' Below Base Forms in Kannada lookup 5 subtable" u0C9C u0CCD
LCarets2: 1 0 

EndChar

StartChar: u0C9D.sub
Encoding: 65571 -1 160
Width: 380
Flags: HW
LayerCount: 2
Fore
SplineSet
547 -59 m 1
 688.574 -106.191 775 -198.8 775 -292 c 1
 771 -510 l 1
 771 -636.186 674.887 -736 561 -736 c 2
 378 -736 l 2
 336 -736 302.667 -713.667 278 -669 c 1
 250.667 -713.667 207.333 -736 148 -736 c 2
 -13 -736 l 2
 -49 -736 -83.6667 -719 -117 -685 c 1
 -144.333 -719 -184.333 -736 -237 -736 c 2
 -531 -736 l 2
 -651.628 -736 -751 -629.527 -751 -510 c 2
 -751 -266 l 2
 -751 -147.581 -645.125 -55 -513 -55 c 2
 -276 -55 l 2
 -142.339 -55 -42 -155.407 -42 -275 c 2
 -42 -501 l 2
 -42 -538.75 -5.99062 -580 40 -580 c 2
 117 -580 l 2
 151.61 -580 179 -547.152 179 -509 c 2
 179 -300 l 2
 179 -248.8 129.406 -194.29 50 -172 c 1
 171 -56 l 1
 289.833 -96.5111 365 -195.8 365 -289 c 2
 365 -528 l 2
 365 -557.85 391.55 -582 416 -582 c 2
 512 -582 l 2
 561.725 -582 590 -541.05 590 -504 c 2
 590 -318 l 2
 590 -259.962 528.604 -192.869 431 -164 c 1
 547 -59 l 1
369 -796 m 1
 182 -796 l 1
 182 -770 l 1
 279 -719 l 1
 368 -770 l 1
 369 -796 l 1
-317 -587 m 2
 -268.965 -587 -222.603 -546.464 -224 -492 c 1
 -224 -322 l 2
 -224 -267.633 -267.499 -217 -329 -217 c 2
 -477 -217 l 2
 -523.874 -217 -564 -251.996 -564 -306 c 2
 -564 -492 l 2
 -564 -545.642 -513.824 -587 -461 -587 c 2
 -317 -587 l 2
EndSplineSet
Position2: "SubMove-1" dx=-100 dy=0 dh=0 dv=0
Ligature2: "'blwf' Below Base Forms in Kannada lookup 5 subtable" u0C9D u0CCD
LCarets2: 1 0 

EndChar

StartChar: u0C9D_base
Encoding: 65572 -1 161
Width: 792
Flags: HW
LayerCount: 2
Fore
SplineSet
592 1318 m 2
 737.094 1318 845 1182.29 845 1018 c 2
 845 254 l 2
 845 118.145 752.982 -3.54777e-18 633 0 c 2
 317 0 l 2
 219 0 123 66.6667 29 200 c 1
 29 502 l 1
 114.226 318.827 261.026 185 395 185 c 2
 511 185 l 2
 582.063 185 632 238.849 632 316 c 2
 632 1018 l 2
 632 1078.5 588.584 1134 528 1134 c 2
 289 1134 l 1
 289 1318 l 1
 592 1318 l 2
845 -372 m 1
 633 -372 l 1
 633 -106 l 1
 845 -106 l 1
 845 -372 l 1
EndSplineSet
EndChar

StartChar: u0C9E
Encoding: 3230 3230 163
Width: 2133
Flags: HW
LayerCount: 2
Fore
SplineSet
2019 1327 m 2
 2118.57 1327 2195 1242.46 2195 1132 c 1
 2198 940 l 1
 2198 828.957 2128.8 738 2039 738 c 2
 1908 738 l 1
 1908 925 l 1
 1934 925 l 2
 1967.33 925 1984 951 1984 1003 c 2
 1984 1080 l 2
 1984 1116 1958.33 1134 1907 1134 c 2
 1812 1134 l 2
 1747.59 1134 1697 1078.92 1697 1004 c 2
 1697 715 l 2
 1697 603 1652.67 502.333 1564 413 c 1
 1564 268 l 2
 1564 220 1607.8 188 1642 188 c 2
 1723 188 l 1
 1723 4 l 1
 1564 4 l 2
 1447.06 4 1355 100.454 1355 214 c 2
 1355 345 l 1
 1145 345 l 2
 1037.74 345 961 429.629 961 518 c 2
 961 660 l 2
 961 736.616 1039.87 793 1126 793 c 2
 1354 793 l 2
 1418.42 793 1465.26 726.074 1486 678 c 1
 1486 1049 l 2
 1486 1104.45 1426.63 1137 1364 1137 c 2
 1248 1137 l 2
 1172.25 1137 1117 1083.48 1117 1033 c 2
 1117 901 l 1
 906 901 l 1
 906 1022 l 2
 906 1078.15 857.914 1138 775 1138 c 2
 602 1138 l 2
 581.7 1138 539 1119.45 539 1061 c 2
 539 930 l 2
 539 889.727 565.962 852 602 852 c 2
 669 852 l 1
 669 640 l 1
 521 640 l 2
 418.445 640 327 739.887 327 867 c 2
 327 1114 l 2
 327 1230.36 417.361 1325 521 1325 c 2
 828 1325 l 2
 918.545 1325 1003.21 1270.36 1010 1193 c 1
 1039.79 1259.45 1105.58 1325 1192 1325 c 2
 1442 1325 l 2
 1536.8 1325 1585.85 1243.81 1600 1211 c 1
 1626.42 1277.67 1686.59 1327 1772 1327 c 2
 2019 1327 l 2
1142 577 m 2
 1142 554.084 1176.41 536 1202 536 c 2
 1281 536 l 2
 1295.67 536 1318.67 545 1350 563 c 1
 1350 595.963 1305.8 616 1257 616 c 2
 1178 616 l 2
 1154 616 1142 612.333 1142 605 c 2
 1142 577 l 2
EndSplineSet
Ligature2: "Ligature Substitution lookup 14 subtable" u0C9E u0CCD
LCarets2: 1 0 

EndChar

StartChar: u0C9E.sub
Encoding: 65574 -1 164
Width: 432
Flags: HW
LayerCount: 2
Fore
SplineSet
646 -23 m 2
 716.673 -23 786 -80.3422 786 -176 c 2
 788 -422 l 2
 788 -511.7 732 -589 648 -589 c 2
 531 -589 l 1
 531 -445 l 1
 585 -445 l 2
 615.4 -445 623 -415.6 623 -396 c 2
 623 -243 l 2
 623 -190.333 610 -164 584 -164 c 2
 444 -164 l 2
 436.084 -164 392.404 -160.445 362 -256 c 1
 362 -501 l 2
 362 -598.459 261.88 -683 128 -683 c 1
 128 -703.194 150.58 -728 173 -728 c 2
 245 -728 l 1
 245 -847 l 1
 126 -847 l 2
 58.2906 -847 -17 -799.8 -17 -729 c 2
 -17 -683 l 1
 -102 -683 l 2
 -173.666 -683 -230 -636.75 -230 -589 c 2
 -230 -480 l 2
 -230 -426.816 -185.8 -377 -112 -377 c 2
 7 -377 l 2
 98.3375 -377 126 -438.8 126 -480 c 2
 126 -541 l 1
 172.667 -541 196 -525 196 -493 c 2
 196 -218 l 2
 196 -199.709 174.205 -164 102 -164 c 2
 -88 -164 l 2
 -149.886 -164 -194 -204.581 -194 -256 c 2
 -194 -291 l 1
 -359 -291 l 1
 -359 -243 l 2
 -359 -191.606 -399.513 -164 -455 -164 c 2
 -558 -164 l 2
 -577.6 -164 -607 -178.825 -607 -232 c 2
 -607 -386 l 2
 -607 -409.789 -559.374 -431 -512 -431 c 1
 -512 -589 l 1
 -665.634 -589 -772 -481.634 -772 -387 c 2
 -772 -189 l 2
 -772 -83.7609 -693.082 -22 -622 -22 c 2
 -418 -22 l 2
 -339.503 -22 -276 -82.3516 -276 -142 c 1
 -248.712 -77.933 -201 -23 -151 -23 c 2
 173 -23 l 2
 242.333 -23 289.333 -46.6667 314 -94 c 1
 349.333 -46.6667 388.667 -23 432 -23 c 2
 646 -23 l 2
-21 -531 m 2
 -21 -506 l 2
 -21 -486 -33 -476 -57 -476 c 0
 -80.3333 -476 -92 -483.333 -92 -498 c 2
 -92 -546 l 2
 -92 -561.333 -76.6667 -569 -46 -569 c 0
 -29.3333 -569 -21 -556.333 -21 -531 c 2
EndSplineSet
Position2: "SubMove-1" dx=-100 dy=0 dh=0 dv=0
Ligature2: "'blwf' Below Base Forms in Kannada lookup 5 subtable" u0C9E u0CCD
LCarets2: 1 0 

EndChar

StartChar: u0C9F
Encoding: 3231 3231 165
Width: 1695
Flags: HW
LayerCount: 2
Fore
SplineSet
1612 794 m 1
 1693.64 794 1757 717.404 1757 624 c 2
 1757 211 l 2
 1757 92.7256 1682.49 1 1575 1 c 2
 1254 1 l 2
 1157.97 1 1084.77 74.9224 1061 160 c 1
 1049.15 74.4159 968.188 2 876 2 c 2
 603 2 l 2
 466.259 2 366 108.545 366 228 c 2
 366 739 l 2
 366 791.667 410.333 844.333 499 897 c 1
 410.333 951.667 366 1001.33 366 1046 c 2
 366 1282 l 2
 366 1411.3 468.284 1503 588 1503 c 2
 786 1503 l 1
 786 1317 l 1
 638 1317 l 2
 606.8 1317 576 1286.43 576 1257 c 2
 576 1080 l 2
 576 1034.16 611.71 991.687 654 979 c 1
 945 979 l 1
 945 678 l 2
 945 558.499 858.052 452 742 452 c 2
 626 452 l 1
 626 635 l 1
 690 635 l 2
 724.4 635 733 666.2 733 687 c 2
 733 793 l 1
 626 793 l 1
 592 774.333 575 748.333 575 715 c 2
 575 283 l 2
 575 220.075 622.4 188 654 188 c 2
 824 188 l 2
 897.999 188 957.759 247.712 967 319 c 1
 967 425 l 1
 1181 425 l 1
 1181 319 l 1
 1202.64 229.349 1257.2 190 1308 190 c 2
 1506 190 l 2
 1543.46 190 1572 237.854 1572 292 c 2
 1572 612 l 2
 1572 658.497 1542.93 689 1494 689 c 2
 1335 689 l 1
 1335 873 l 1
 1441 873 l 2
 1495.37 873 1546 916.499 1546 978 c 2
 1546 1231 l 2
 1546 1251.76 1535.47 1294 1467 1294 c 2
 1336 1294 l 1
 1336 1478 l 1
 1574 1478 l 2
 1665.03 1478 1733 1384.43 1733 1267 c 2
 1733 940 l 2
 1733 877.701 1695.06 817.316 1612 794 c 1
EndSplineSet
Substitution2: "Single Substitution lookup 15 subtable" u0C9F.base
Ligature2: "Ligature Substitution lookup 14 subtable" u0C9F u0CCD
LCarets2: 1 0 

EndChar

StartChar: u0C9F.base
Encoding: 65575 -1 166
Width: 1414
Flags: HW
LayerCount: 2
Fore
SplineSet
1644 792 m 1
 1730.4 792 1788 715.119 1788 623 c 2
 1785 217 l 2
 1785 102.059 1712.2 6 1603 6 c 1
 1598 1 l 1
 1254 1 l 2
 1158.83 1 1089.82 75.9201 1067 160 c 1
 1051.19 74.3652 972.255 2 883 2 c 2
 605 2 l 2
 472.05 2 368 90.1172 368 201 c 2
 368 738 l 2
 368 790.667 412.333 843.333 501 896 c 1
 395.211 958.812 369 1030.9 369 1066 c 2
 369 1302 l 2
 369 1413.11 447.65 1522 567 1522 c 2
 788 1522 l 1
 788 1339 l 1
 646 1339 l 2
 600.08 1339 552 1304.12 552 1252 c 2
 552 1075 l 2
 552 1035.8 591.57 995.32 657 977 c 1
 948 977 l 1
 948 678 l 2
 948 552.603 846.75 451 728 451 c 2
 630 451 l 1
 630 635 l 1
 701 635 l 2
 722.6 635 737 668.8 737 715 c 2
 737 792 l 1
 630 792 l 1
 596 773.333 579 747.667 579 715 c 2
 579 280 l 2
 579 227.77 616.925 187 657 187 c 2
 832 187 l 2
 898.996 187 963.224 244.821 970 318 c 1
 970 477 l 1
 1184 477 l 1
 1184 318 l 1
 1205.64 228.349 1260.2 189 1311 189 c 2
 1488 189 l 2
 1551.22 189 1575 251.297 1575 291 c 2
 1575 610 l 2
 1575 658.601 1523.52 689 1469 689 c 2
 1338 689 l 1
 1338 872 l 1
 1444 872 l 2
 1499.53 872 1548 926.844 1548 1002 c 2
 1548 1045 l 2
 1548 1088.99 1516.9 1135 1459 1135 c 2
 1286 1135 l 1
 1286 1318 l 1
 1543 1318 l 1
 1664.3 1306.13 1758 1199.8 1758 1056 c 2
 1758 940 l 2
 1758 886.308 1732.67 823.198 1644 792 c 1
EndSplineSet
EndChar

StartChar: u0C9F.imathra
Encoding: 65576 -1 167
Width: 1727
Flags: HW
LayerCount: 2
Fore
SplineSet
1630 796 m 1
 1714.35 796 1785 723.874 1785 628 c 2
 1785 217 l 2
 1785 102.059 1712.2 6 1603 6 c 1
 1598 1 l 1
 1254 1 l 2
 1162.88 1 1094.46 77.2611 1072 160 c 1
 1051.28 71.9499 974.449 1 876 1 c 2
 603 1 l 2
 467.929 1 366 106.4 366 238 c 2
 366 737 l 2
 366 789.667 410.333 842.333 499 895 c 1
 410.166 948.607 367 1028.14 367 1077 c 2
 367 1280 l 2
 367 1409.33 460.63 1502 561 1502 c 2
 787 1502 l 1
 787 1316 l 1
 615 1316 l 2
 589 1316 550 1295.32 550 1237 c 2
 550 1106 l 2
 550 1045.58 597.097 987.844 655 976 c 1
 946 976 l 1
 946 675 l 2
 946 553.878 846.948 449 720 449 c 2
 628 449 l 1
 628 632 l 1
 665 632 l 2
 702.056 632 734 669.623 734 712 c 2
 734 790 l 1
 655 790 l 2
 603.7 790 577 746.8 577 718 c 2
 577 293 l 2
 577 238.761 618.926 190 666 190 c 2
 852 190 l 2
 899.2 190 958.945 231.559 970 320 c 1
 970 479 l 1
 1184 479 l 1
 1184 320 l 1
 1205.64 230.349 1260.2 191 1311 191 c 2
 1455 191 l 2
 1543.51 191 1576 253.694 1576 293 c 2
 1576 612 l 2
 1576 661.35 1539.86 691 1498 691 c 2
 1339 691 l 1
 1339 874 l 1
 1445 874 l 2
 1502.18 874 1550 915.057 1550 967 c 2
 1550 1286 l 2
 1550 1318.32 1534.4 1348 1511 1348 c 2
 1405 1348 l 2
 1380.33 1348 1368 1339.33 1368 1322 c 2
 1368 1294 l 1
 1369.53 1266.39 1398.17 1244 1418 1244 c 2
 1499 1244 l 1
 1499 1061 l 1
 1324 1061 l 2
 1230.75 1061 1157 1133.5 1157 1217 c 2
 1157 1366 l 2
 1157 1460.5 1244.93 1533 1339 1533 c 2
 1561 1533 l 2
 1668.31 1533 1758 1457.26 1758 1350 c 2
 1758 1034 l 2
 1758 922.719 1708.3 817.98 1630 796 c 1
EndSplineSet
Ligature2: "'abvs' Above Base Substitutions in Kannada lookup 11 subtable" u0C9F u0CBF
LCarets2: 1 0 

EndChar

StartChar: u0C9F.sub
Encoding: 65577 -1 168
Width: 312
Flags: HW
LayerCount: 2
Fore
SplineSet
497 -247 m 1
 566.055 -265.172 626 -325.646 626 -403 c 2
 627 -655 l 2
 627 -729.807 567.367 -786 482 -786 c 2
 207 -786 l 2
 120.485 -786 51 -727.042 51 -665 c 1
 22.2953 -746.582 -51.2933 -786 -108 -786 c 2
 -374 -786 l 1
 -374 -791 l 1
 -502.084 -791 -609 -705.223 -609 -591 c 2
 -609 -380 l 2
 -609 -268.637 -520.793 -185 -414 -185 c 2
 -108 -185 l 1
 -108 -502 l 1
 -291 -502 l 1
 -291 -371 l 1
 -345 -371 l 2
 -388.65 -371 -422 -391.4 -422 -422 c 2
 -422 -538 l 2
 -422 -594.055 -377.776 -631 -318 -631 c 2
 -150 -631 l 2
 -91.5 -631 -46 -589.4 -46 -527 c 2
 -46 -449 l 1
 141 -449 l 1
 141 -527 l 2
 141 -585.508 181.171 -631 234 -631 c 2
 367 -631 l 2
 407.55 -631 445 -611 445 -581 c 2
 445 -380 l 2
 445 -340.853 371.559 -329 324 -329 c 2
 208 -329 l 1
 208 -173 l 1
 314 -173 l 2
 376.555 -173 428 -123.828 428 -65 c 2
 428 156 l 2
 428 232.634 332 269.881 332 293 c 1
 334.667 297.667 336.667 300.333 338 301 c 2
 417 417 l 1
 530.927 349.843 612 262.8 612 160 c 2
 612 -54 l 2
 612 -157.684 560.517 -227.825 497 -247 c 1
EndSplineSet
Position2: "SubMove-1" dx=-100 dy=0 dh=0 dv=0
Ligature2: "'blwf' Below Base Forms in Kannada lookup 5 subtable" u0C9F u0CCD
LCarets2: 1 0 

EndChar

StartChar: u0CA0.base
Encoding: 65578 -1 170
Width: 1187
Flags: HW
LayerCount: 2
Fore
SplineSet
1242 1293 m 1
 1398.04 1184.88 1513 1009.2 1513 820 c 2
 1512 306 l 2
 1512 138.375 1368.18 1 1192 1 c 2
 683 1 l 2
 496.221 1 351 137.952 351 307 c 2
 351 820 l 2
 351 942.667 404 1047.33 510 1134 c 1
 379 1134 l 1
 379 1318 l 1
 1242 1318 l 1
 1242 1293 l 1
1171 185 m 2
 1246.02 185 1301.71 240.24 1299 316 c 1
 1299 820 l 2
 1299 961.194 1205.04 1076.67 1117 1134 c 1
 747 1134 l 1
 647.795 1075.64 564 962.903 564 820 c 2
 564 316 l 2
 564 244.653 620.177 185 697 185 c 2
 1171 185 l 2
1051 527 m 1
 837 527 l 1
 837 737 l 1
 1051 737 l 1
 1051 527 l 1
EndSplineSet
EndChar

StartChar: u0CA0.imathra
Encoding: 65579 -1 171
Width: 1451
Flags: HW
LayerCount: 2
Fore
SplineSet
360 1528 m 2
 360 1646.92 472.554 1742 607 1742 c 2
 790 1742 l 2
 872 1742 942.333 1711.33 1001 1650 c 1
 1252.99 1439.5 1518 1159.58 1518 941 c 2
 1516 316 l 2
 1516 114.245 1400.7 3 1306 3 c 2
 674 3 l 2
 508.537 3 360 138.78 360 317 c 2
 360 926 l 2
 360 1025.33 411.667 1117.67 515 1203 c 1
 444.97 1239.91 360 1307.45 360 1412 c 2
 360 1528 l 2
653 1557 m 2
 614.226 1557 574 1526.64 574 1495 c 2
 574 1414 l 2
 574 1368.67 600.333 1337.67 653 1321 c 1
 1077 1320 l 1
 922 1479 l 2
 872 1531 826 1557 784 1557 c 2
 653 1557 l 2
1188 188 m 2
 1256.12 188 1305.67 243.756 1307 318 c 1
 1307 927 l 2
 1307 995.667 1276 1065.33 1214 1136 c 1
 703 1136 l 1
 614.333 1048 570 978.333 570 927 c 2
 570 345 l 2
 570 264.859 625.804 188 703 188 c 2
 1188 188 l 2
1053 530 m 1
 839 530 l 1
 839 740 l 1
 1053 740 l 1
 1053 530 l 1
EndSplineSet
Ligature2: "'abvs' Above Base Substitutions in Kannada lookup 11 subtable" u0CA0 u0CBF
LCarets2: 1 0 

EndChar

StartChar: u0CA0.sub
Encoding: 65580 -1 172
Width: 190
Flags: HW
LayerCount: 2
Fore
SplineSet
101 -56 m 2
 263.46 -56 391 -169.666 391 -317 c 2
 392 -554 l 2
 392 -689.071 286.6 -791 155 -791 c 2
 -109 -791 l 2
 -258.762 -791 -374 -680.384 -374 -565 c 2
 -374 -301 l 2
 -374 -162.048 -249.279 -56 -100 -56 c 2
 101 -56 l 2
73 -632 m 2
 145.958 -632 203.682 -576.908 205 -511 c 1
 205 -344 l 2
 205 -275.149 142.178 -213 49 -213 c 2
 -74 -213 l 2
 -140.414 -213 -189 -280.021 -189 -344 c 2
 -189 -511 l 2
 -189 -570.457 -135.67 -632 -58 -632 c 2
 73 -632 l 2
109 -503 m 1
 -102 -503 l 1
 -102 -344 l 1
 109 -344 l 1
 109 -503 l 1
EndSplineSet
Position2: "SubMove-1" dx=-100 dy=0 dh=0 dv=0
Ligature2: "'blwf' Below Base Forms in Kannada lookup 5 subtable" u0CA0 u0CCD
LCarets2: 1 0 

EndChar

StartChar: u0CA1.base
Encoding: 65581 -1 174
Width: 1446
Flags: HW
LayerCount: 2
Fore
SplineSet
1508 1280 m 1
 1716.16 1202.29 1770 1019.06 1770 923 c 2
 1770 834 l 2
 1770 770 1743.67 717 1691 675 c 1
 1743.67 633 1770 575.333 1770 502 c 1
 1764 226 l 1
 1764 93.9539 1654.82 -3.38346e-18 1543 0 c 2
 1238 0 l 2
 1149.12 0 1070.86 64.4172 1055 149 c 1
 1031.8 54.7541 955.665 0 888 0 c 2
 599 0 l 2
 476.914 0 374 94.6992 374 210 c 2
 374 859 l 2
 374 983.445 471.83 1081.7 556 1132 c 1
 373 1132 l 1
 373 1316 l 1
 1508 1316 l 1
 1508 1280 l 1
1548 675 m 1
 1529.33 734.333 1494.33 764 1443 764 c 2
 1392 764 l 2
 1363.33 764 1349 754.667 1349 736 c 2
 1349 658 l 2
 1349 640.667 1380.67 632 1444 632 c 0
 1464 632 1498.67 646.333 1548 675 c 1
1452 183 m 2
 1512.37 183 1557.71 233.919 1559 288 c 1
 1559 502 l 1
 1494 454 l 1
 1480 450 l 1
 1338 450 l 2
 1239.62 450 1167 517.235 1167 597 c 2
 1167 765 l 2
 1167 849.763 1230.95 924 1312 924 c 2
 1445 924 l 2
 1490.33 924 1528.67 902.667 1560 860 c 1
 1560 924 l 2
 1560 1007.2 1489.11 1099.35 1350 1132 c 1
 824 1132 l 1
 725.782 1085.52 585 988.451 585 843 c 2
 585 286 l 2
 585 237.13 627 183 690 183 c 2
 838 183 l 2
 905.771 183 954 242.544 954 304 c 2
 954 368 l 1
 1165 368 l 1
 1165 286 l 2
 1165 231.235 1209.22 183 1269 183 c 2
 1452 183 l 2
EndSplineSet
EndChar

StartChar: u0CA1.imathra
Encoding: 65582 -1 175
Width: 1738
Flags: HW
LayerCount: 2
Fore
SplineSet
372 1519 m 2
 372 1637.28 464.704 1741 581 1741 c 2
 1068 1741 l 2
 1125.6 1741 1174.25 1714.83 1212 1692 c 1
 1295.69 1637.5 1413.05 1538.66 1565 1319 c 1
 1717 1105 1793 955.667 1793 871 c 2
 1793 810 l 2
 1793 770 1770.33 729 1725 687 c 1
 1770.33 645 1793 597.667 1793 545 c 2
 1790 200 l 2
 1790 89.9874 1712.2 2 1618 2 c 2
 1193 2 l 2
 1129.99 2 1070.05 50.7844 1054 123 c 1
 1042.49 46.7225 974.096 2 907 2 c 2
 608 2 l 2
 472.929 2 371 107.4 371 239 c 2
 371 862 l 2
 371 977.6 459.3 1085.61 554 1151 c 1
 443.761 1203.43 372 1299.2 372 1398 c 2
 372 1519 l 2
680 1562 m 2
 614.384 1562 574 1530.97 574 1502 c 2
 574 1432 l 2
 574 1387.33 595 1352.67 637 1328 c 1
 1338 1327 l 1
 1197.72 1493.58 1086 1562 1023 1562 c 2
 680 1562 l 2
1587 696 m 1
 1543.67 748 1514.67 774 1500 774 c 2
 1405 774 l 2
 1380.33 774 1368 761 1368 735 c 2
 1368 668 l 2
 1368 634 1380.33 617 1405 617 c 2
 1477 617 l 2
 1526.33 617 1563 643.333 1587 696 c 1
1526 188 m 2
 1560.2 188 1578.23 223.511 1583 270 c 1
 1583 520 l 1
 1533.67 475.333 1502.67 453 1490 453 c 2
 1357 453 l 2
 1263.46 453 1190 528.753 1190 612 c 2
 1190 768 l 2
 1190 854.677 1252.19 927 1330 927 c 2
 1489 927 l 1
 1499 925.667 1508 921 1516 913 c 2
 1581 839 l 1
 1581 890 l 1
 1570.33 970.667 1526.33 1052.67 1449 1136 c 1
 818 1136 l 1
 776.048 1108.03 580 973.367 580 851 c 2
 580 315 l 2
 580 251.129 625.62 194 669 194 c 1
 669 189 l 1
 845 189 l 2
 898.98 189 950 222.616 950 269 c 2
 950 425 l 1
 1161 425 l 1
 1161 284 l 2
 1161 223.841 1206.97 188 1248 188 c 2
 1526 188 l 2
EndSplineSet
Ligature2: "'abvs' Above Base Substitutions in Kannada lookup 11 subtable" u0CA1 u0CBF
LCarets2: 1 0 

EndChar

StartChar: u0CA1.sub
Encoding: 65583 -1 176
Width: 343
Flags: HW
LayerCount: 2
Fore
SplineSet
539 -342 m 1
 630.225 -342 697 -399.2 697 -485 c 2
 698 -592 l 2
 698 -687.625 624.166 -765 539 -765 c 2
 222 -765 l 2
 138 -765 53.3333 -698.333 -32 -565 c 1
 -96.4136 -682.46 -204.2 -764 -319 -764 c 2
 -489 -764 l 2
 -590.101 -764 -671 -666.205 -671 -553 c 2
 -671 -380 l 2
 -671 -266.279 -456.235 -106 -304 -106 c 2
 223 -106 l 2
 390.162 -106 539 -203.943 539 -342 c 1
442 -606 m 2
 485.333 -606 507.633 -583.122 510 -563 c 1
 510 -509 l 2
 510 -485.667 497 -474 471 -474 c 2
 170 -474 l 1
 170 -342 l 1
 354 -342 l 1
 354 -302.631 301.952 -266 211 -266 c 2
 -276 -266 l 2
 -363.203 -266 -485 -357.247 -485 -402 c 2
 -485 -525 l 2
 -485 -559.411 -452.027 -589 -422 -589 c 2
 -332 -589 l 2
 -237.2 -589 -152.998 -522.127 -95 -420 c 1
 61 -420 l 1
 106.218 -506.326 188.8 -606 274 -606 c 2
 442 -606 l 2
EndSplineSet
Position2: "SubMove-1" dx=-100 dy=0 dh=0 dv=0
Ligature2: "'blwf' Below Base Forms in Kannada lookup 5 subtable" u0CA1 u0CCD
LCarets2: 1 0 

EndChar

StartChar: u0CA2.base
Encoding: 65584 -1 178
Width: 1446
Flags: HW
LayerCount: 2
Fore
SplineSet
1508 1280 m 1
 1716.16 1202.29 1770 1019.06 1770 923 c 2
 1770 834 l 2
 1770 770 1743.67 717 1691 675 c 1
 1743.67 633 1770 575.333 1770 502 c 1
 1764 226 l 1
 1764 93.9539 1654.82 -3.38346e-18 1543 0 c 2
 1238 0 l 2
 1149.12 0 1070.86 64.4172 1055 149 c 1
 1031.8 54.7541 955.665 0 888 0 c 2
 599 0 l 2
 476.914 0 374 94.6992 374 210 c 2
 374 859 l 2
 374 983.445 471.83 1081.7 556 1132 c 1
 373 1132 l 1
 373 1316 l 1
 1508 1316 l 1
 1508 1280 l 1
1548 675 m 1
 1529.33 734.333 1494.33 764 1443 764 c 2
 1392 764 l 2
 1363.33 764 1349 754.667 1349 736 c 2
 1349 658 l 2
 1349 640.667 1380.67 632 1444 632 c 0
 1464 632 1498.67 646.333 1548 675 c 1
1452 183 m 2
 1512.37 183 1557.71 233.919 1559 288 c 1
 1559 502 l 1
 1494 454 l 1
 1480 450 l 1
 1338 450 l 2
 1239.62 450 1167 517.235 1167 597 c 2
 1167 765 l 2
 1167 849.763 1230.95 924 1312 924 c 2
 1445 924 l 2
 1490.33 924 1528.67 902.667 1560 860 c 1
 1560 924 l 2
 1560 1007.2 1489.11 1099.35 1350 1132 c 1
 824 1132 l 1
 725.782 1085.52 585 988.451 585 843 c 2
 585 286 l 2
 585 237.13 627 183 690 183 c 2
 838 183 l 2
 905.771 183 954 242.544 954 304 c 2
 954 368 l 1
 1165 368 l 1
 1165 286 l 2
 1165 231.235 1209.22 183 1269 183 c 2
 1452 183 l 2
1164 -277 m 1
 954 -277 l 1
 954 -13 l 1
 1164 -13 l 1
 1164 -277 l 1
EndSplineSet
EndChar

StartChar: u0CA2.imathra
Encoding: 65585 -1 179
Width: 1738
Flags: HW
LayerCount: 2
Fore
SplineSet
372 1519 m 2
 372 1637.28 464.704 1741 581 1741 c 2
 1068 1741 l 2
 1125.6 1741 1174.25 1714.83 1212 1692 c 1
 1295.69 1637.5 1413.05 1538.66 1565 1319 c 1
 1717 1105 1793 955.667 1793 871 c 2
 1793 810 l 2
 1793 770 1770.33 729 1725 687 c 1
 1770.33 645 1793 597.667 1793 545 c 2
 1790 200 l 2
 1790 89.9874 1712.2 2 1618 2 c 2
 1193 2 l 2
 1129.99 2 1070.05 50.7844 1054 123 c 1
 1042.49 46.7225 974.096 2 907 2 c 2
 608 2 l 2
 472.929 2 371 107.4 371 239 c 2
 371 862 l 2
 371 977.6 459.3 1085.61 554 1151 c 1
 443.761 1203.43 372 1299.2 372 1398 c 2
 372 1519 l 2
680 1562 m 2
 614.384 1562 574 1530.97 574 1502 c 2
 574 1432 l 2
 574 1387.33 595 1352.67 637 1328 c 1
 1338 1327 l 1
 1197.72 1493.58 1086 1562 1023 1562 c 2
 680 1562 l 2
1587 696 m 1
 1543.67 748 1514.67 774 1500 774 c 2
 1405 774 l 2
 1380.33 774 1368 761 1368 735 c 2
 1368 668 l 2
 1368 634 1380.33 617 1405 617 c 2
 1477 617 l 2
 1526.33 617 1563 643.333 1587 696 c 1
1526 188 m 2
 1560.2 188 1578.23 223.511 1583 270 c 1
 1583 520 l 1
 1533.67 475.333 1502.67 453 1490 453 c 2
 1357 453 l 2
 1263.46 453 1190 528.753 1190 612 c 2
 1190 768 l 2
 1190 854.677 1252.19 927 1330 927 c 2
 1489 927 l 1
 1499 925.667 1508 921 1516 913 c 2
 1581 839 l 1
 1581 890 l 1
 1570.33 970.667 1526.33 1052.67 1449 1136 c 1
 818 1136 l 1
 776.048 1108.03 580 973.367 580 851 c 2
 580 315 l 2
 580 251.129 625.62 194 669 194 c 1
 669 189 l 1
 845 189 l 2
 898.98 189 950 222.616 950 269 c 2
 950 425 l 1
 1161 425 l 1
 1161 284 l 2
 1161 223.841 1206.97 188 1248 188 c 2
 1526 188 l 2
1158 -272 m 1
 948 -272 l 1
 948 -8 l 1
 1158 -8 l 1
 1158 -272 l 1
EndSplineSet
Ligature2: "'abvs' Above Base Substitutions in Kannada lookup 11 subtable" u0CA2 u0CBF
LCarets2: 1 0 

EndChar

StartChar: u0CA2.sub
Encoding: 65586 -1 180
Width: 343
Flags: HW
LayerCount: 2
Fore
SplineSet
539 -341 m 1
 630.225 -341 697 -398.2 697 -484 c 2
 698 -592 l 2
 698 -669.37 626.271 -736 539 -736 c 2
 222 -736 l 2
 144 -736 59.3333 -678.667 -32 -564 c 1
 -120.665 -703.538 -241.482 -763 -319 -763 c 2
 -489 -763 l 2
 -590.101 -763 -671 -665.205 -671 -552 c 2
 -671 -379 l 2
 -671 -265.279 -456.235 -105 -304 -105 c 2
 223 -105 l 2
 390.162 -105 539 -202.943 539 -341 c 1
66 -789 m 1
 -117 -789 l 1
 -117 -711 l 1
 -29 -641 l 1
 66 -711 l 1
 66 -789 l 1
441 -606 m 2
 484.333 -606 506.633 -583.122 509 -563 c 1
 509 -509 l 2
 509 -485.667 496 -474 470 -474 c 2
 169 -474 l 1
 169 -342 l 1
 353 -342 l 1
 353 -302.631 300.952 -266 210 -266 c 2
 -277 -266 l 2
 -364.203 -266 -486 -357.247 -486 -402 c 2
 -486 -525 l 2
 -486 -559.411 -453.027 -589 -423 -589 c 2
 -333 -589 l 2
 -238.2 -589 -153.998 -522.127 -96 -420 c 1
 60 -420 l 1
 105.218 -506.326 187.8 -606 273 -606 c 2
 441 -606 l 2
EndSplineSet
Position2: "SubMove-1" dx=-100 dy=0 dh=0 dv=0
Ligature2: "'blwf' Below Base Forms in Kannada lookup 5 subtable" u0CA2 u0CCD
LCarets2: 1 0 

EndChar

StartChar: u0CA3
Encoding: 3235 3235 181
Width: 1849
Flags: HW
LayerCount: 2
Fore
SplineSet
1632 1322 m 2
 1777.31 1322 1897 1209.02 1897 1050 c 2
 1901 254 l 2
 1901 116.064 1794.74 -3.49788e-18 1663 0 c 2
 1269 0 l 1
 1269 333 l 2
 1269 455.748 1348.53 553 1442 553 c 2
 1583 553 l 1
 1583 370 l 1
 1547 370 l 2
 1507.47 370 1481 338.042 1481 307 c 2
 1481 186 l 1
 1602 186 l 2
 1654.18 186 1689 244.306 1689 307 c 2
 1689 1047 l 2
 1689 1099.75 1640.47 1135 1583 1135 c 2
 1336 1135 l 2
 1275.9 1135 1215 1100.1 1215 1048 c 2
 1215 927 l 1
 1005 927 l 1
 1005 1048 l 2
 1005 1103.09 951.094 1136 889 1136 c 2
 651 1136 l 2
 598.119 1136 556 1098.04 556 1049 c 2
 556 823 l 2
 556 741.191 611.248 689 660 689 c 2
 793 689 l 1
 793 506 l 1
 651 506 l 2
 591.421 506 556 462.571 556 416 c 2
 556 286 l 2
 556 230.94 600.073 190 651 190 c 2
 926 190 l 1
 926 6 l 1
 571 6 l 2
 448.037 6 345 96.0348 345 205 c 2
 345 443 l 2
 345 510.6 425.132 577.647 503 612 c 1
 417.914 643.158 344 722.859 344 822 c 2
 344 1099 l 2
 344 1220.21 447.106 1321 582 1321 c 2
 912 1321 l 2
 1019.17 1321 1092.31 1267.2 1107 1206 c 1
 1145.67 1283.33 1215.67 1322 1317 1322 c 2
 1632 1322 l 2
EndSplineSet
Substitution2: "Single Substitution lookup 15 subtable" u0CA3.base
Ligature2: "Ligature Substitution lookup 14 subtable" u0CA3 u0CCD
LCarets2: 1 0 

EndChar

StartChar: u0CA3.base
Encoding: 65587 -1 182
Width: 1384
Flags: HW
LayerCount: 2
Fore
SplineSet
1442 1135 m 1
 387 1135 l 1
 387 1319 l 1
 1442 1319 l 1
 1442 1135 l 1
1426 1027 m 2
 1594.6 1027 1707 893.077 1707 735 c 2
 1706 226 l 2
 1706 105.724 1628.9 0 1522 0 c 2
 1125 0 l 1
 1125 281 l 2
 1125 416.886 1227.89 526 1347 526 c 2
 1442 526 l 1
 1442 342 l 1
 1414 342 l 2
 1376.15 342 1336 311.6 1336 266 c 2
 1336 185 l 1
 1442 185 l 2
 1489.4 185 1521 232.125 1521 288 c 2
 1521 737 l 2
 1521 794.527 1464.87 844 1390 844 c 2
 1204 844 l 2
 1158.88 844 1126 793.142 1126 737 c 2
 1126 686 l 1
 915 686 l 1
 915 765 l 2
 915 810.917 887.07 843 839 843 c 2
 653 843 l 2
 611.216 843 574 810.338 574 764 c 2
 574 658 l 2
 574 628.353 615.391 597 663 597 c 2
 733 597 l 1
 733 394 l 1
 663 394 l 2
 617.566 394 574 357.665 574 307 c 2
 574 239 l 2
 574 193.953 626.812 162 680 162 c 2
 864 162 l 1
 864 3 l 1
 547 3 l 2
 439.535 3 365 85.4109 365 162 c 2
 365 335 l 2
 365 409.616 419.655 469.152 480 494 c 1
 422.055 511.043 365 554.93 365 621 c 2
 365 845 l 2
 365 953.429 465.825 1028 587 1028 c 2
 892 1028 l 2
 954 1028 997.333 1002 1022 950 c 1
 1042.75 995.651 1106.27 1027 1180 1027 c 2
 1426 1027 l 2
EndSplineSet
EndChar

StartChar: u0CA3.imathra
Encoding: 65588 -1 183
Width: 1849
Flags: HW
LayerCount: 2
Fore
SplineSet
1701 1294 m 1
 1819.16 1273.22 1895 1174.95 1895 1048 c 2
 1901 254 l 1
 1901 116.064 1794.74 -3.49788e-18 1663 0 c 2
 1269 0 l 1
 1269 333 l 2
 1269 455.748 1348.53 553 1442 553 c 2
 1583 553 l 1
 1583 370 l 1
 1547 370 l 2
 1520.6 370 1481 348.85 1481 289 c 2
 1481 186 l 1
 1602 186 l 2
 1654.18 186 1689 244.306 1689 307 c 2
 1689 1030 l 2
 1689 1092.4 1637.5 1134 1583 1134 c 2
 1336 1134 l 2
 1272.2 1134 1215 1083.8 1215 1030 c 2
 1215 926 l 1
 1005 926 l 1
 1005 1030 l 2
 1005 1087.54 955.13 1134 889 1134 c 2
 678 1134 l 2
 616.078 1134 557 1078.74 557 1019 c 2
 557 821 l 2
 557 739.191 612.248 687 661 687 c 2
 794 687 l 1
 794 504 l 1
 661 504 l 2
 587.461 504 558 439.966 558 397 c 2
 558 284 l 2
 558 228.94 602.073 188 653 188 c 2
 928 188 l 1
 928 4 l 1
 573 4 l 2
 450.037 4 347 94.0348 347 203 c 2
 347 441 l 2
 347 508.6 427.132 575.647 505 610 c 1
 419.914 641.158 346 720.859 346 820 c 2
 346 1097 l 2
 346 1218.21 449.106 1319 584 1319 c 2
 914 1319 l 2
 1021.17 1319 1094.31 1265.2 1109 1204 c 1
 1133.35 1265.45 1190.01 1320 1267 1320 c 2
 1493 1320 l 2
 1546.69 1320 1579 1374.87 1579 1441 c 2
 1579 1572 l 2
 1579 1643.6 1543 1661 1519 1661 c 2
 1412 1661 l 2
 1366.55 1661 1345 1640 1345 1626 c 1
 1347.61 1601.24 1367.08 1582 1397 1582 c 2
 1476 1582 l 1
 1476 1413 l 1
 1317 1413 l 2
 1228.06 1413 1161 1479.06 1161 1556 c 2
 1161 1704 l 2
 1161 1775.06 1224.15 1846 1317 1846 c 2
 1598 1846 l 2
 1698.7 1846 1789 1773.17 1789 1661 c 2
 1789 1423 l 2
 1789 1368.33 1759.67 1325.33 1701 1294 c 1
EndSplineSet
Ligature2: "'abvs' Above Base Substitutions in Kannada lookup 11 subtable" u0CA3 u0CBF
LCarets2: 1 0 

EndChar

StartChar: u0CA3.sub
Encoding: 65589 -1 184
Width: 333
Flags: HW
LayerCount: 2
Fore
SplineSet
423 -78 m 2
 575.4 -78 677 -196.591 677 -340 c 1
 681 -609 l 1
 681 -709.124 586.289 -792 472 -792 c 2
 102 -792 l 1
 102 -566 l 1
 143.501 -460.102 245.894 -383.149 348 -357 c 1
 416 -504 l 1
 305.458 -539.531 284 -572.8 284 -590 c 2
 284 -630 l 1
 426 -630 l 2
 467.4 -630 495 -593.625 495 -552 c 2
 495 -354 l 2
 495 -284.612 438.82 -237 375 -237 c 2
 205 -237 l 2
 145.753 -237 84 -301.527 84 -393 c 1
 -100 -393 l 1
 -100 -304.064 -146.499 -237 -204 -237 c 2
 -415 -237 l 2
 -457.667 -237 -479 -246.333 -479 -265 c 2
 -479 -315 l 1
 -477.588 -336.187 -451.817 -353 -425 -353 c 2
 -242 -353 l 1
 -242 -508 l 1
 -425 -508 l 2
 -444.5 -508 -479 -516.4 -479 -550 c 2
 -479 -604 l 1
 -477.667 -619.333 -456.667 -627 -416 -627 c 2
 -138 -627 l 1
 -138 -786 l 1
 -507 -786 l 2
 -590.849 -786 -663 -736.848 -663 -680 c 2
 -663 -549 l 2
 -663 -511 -637.333 -476.333 -586 -445 c 1
 -637.333 -406.333 -663 -375.333 -663 -352 c 2
 -663 -235 l 2
 -663 -143.124 -582.993 -78 -480 -78 c 2
 -205 -78 l 2
 -88.2621 -78 -20.9053 -141.499 -6 -208 c 1
 14.3178 -143.839 61.2 -78 162 -78 c 2
 423 -78 l 2
EndSplineSet
Position2: "SubMove-1" dx=-100 dy=0 dh=0 dv=0
Ligature2: "'blwf' Below Base Forms in Kannada lookup 5 subtable" u0CA3 u0CCD
LCarets2: 1 0 

EndChar

StartChar: u0CA4.base
Encoding: 65590 -1 186
Width: 1187
Flags: HW
LayerCount: 2
Fore
SplineSet
1187 1316 m 2
 1358.51 1316 1505 1200.49 1505 1055 c 2
 1505 911 l 2
 1505 859.667 1469.67 798.667 1399 728 c 1
 1469.67 671.333 1505 602.667 1505 522 c 2
 1506 260 l 2
 1506 123.881 1385.59 6 1214 6 c 2
 528 6 l 1
 533 1 l 1
 388.562 1 271 108.624 271 238 c 2
 271 686 l 1
 482 686 l 1
 482 282 l 2
 482 225.523 528.05 186 569 186 c 2
 1166 186 l 2
 1244.34 186 1295 239.728 1295 289 c 2
 1295 543 l 2
 1295 581.667 1287.33 607.333 1272 620 c 1
 1189.33 558 1131 527 1097 527 c 2
 836 527 l 2
 728.744 527 640 607.931 640 703 c 2
 640 844 l 2
 640 931.267 724.978 1001 825 1001 c 2
 1088 1001 l 2
 1140 1001 1194.33 965.667 1251 895 c 1
 1294 962 l 1
 1294 1054 l 2
 1294 1098.83 1243.96 1132 1187 1132 c 2
 289 1132 l 1
 289 1316 l 1
 1187 1316 l 2
822 761 m 2
 822 730.684 858.45 721 871 721 c 2
 1057 721 l 2
 1093 721 1128 737.667 1162 771 c 1
 1140.67 806.333 1100.33 824 1041 824 c 2
 882 824 l 2
 854.06 824 822 810.501 822 787 c 2
 822 761 l 2
EndSplineSet
EndChar

StartChar: u0CA4.imathra
Encoding: 65591 -1 187
Width: 1457
Flags: HW
LayerCount: 2
Fore
SplineSet
1273 1525 m 2
 1403.3 1525 1510 1421.74 1510 1280 c 2
 1510 989 l 2
 1510 922.333 1465.67 843.333 1377 752 c 1
 1465.67 679.333 1510 600.333 1510 515 c 2
 1512 254 l 1
 1512 116.064 1405.74 -3.49788e-18 1274 0 c 2
 482 0 l 2
 366.11 0 272 106.141 272 237 c 2
 272 685 l 1
 483 685 l 1
 483 306 l 2
 483 245.716 523.681 185 575 185 c 2
 1167 185 l 2
 1245 185 1297 243.392 1297 316 c 2
 1297 516 l 2
 1297 559.333 1280 594 1246 620 c 1
 1193.33 558 1146 527 1104 527 c 2
 843 527 l 2
 727.668 527 641 605.727 641 702 c 2
 641 843 l 2
 641 930.267 725.978 1000 826 1000 c 2
 1089 1000 l 2
 1148.33 1000 1206.33 964.667 1263 894 c 1
 1286.33 926.667 1298 949 1298 961 c 2
 1298 1236 l 2
 1298 1297.65 1266.8 1342 1220 1342 c 2
 1037 1342 l 2
 1018.33 1342 1009 1329 1009 1303 c 2
 1009 1280 l 1
 1011.39 1260.85 1030.2 1238 1062 1238 c 2
 1190 1238 l 1
 1190 1079 l 1
 981 1079 l 2
 897.245 1079 825 1157.8 825 1237 c 2
 825 1371 l 2
 825 1457.12 879.186 1525 957 1525 c 2
 1273 1525 l 2
824 753 m 2
 824 730.271 848.23 714 875 714 c 2
 1034 714 l 2
 1088 714 1132 730.667 1166 764 c 1
 1144.67 800 1097.33 818 1024 818 c 2
 891 818 l 2
 846.333 818 824 805 824 779 c 2
 824 753 l 2
EndSplineSet
Ligature2: "'abvs' Above Base Substitutions in Kannada lookup 11 subtable" u0CA4 u0CBF
LCarets2: 1 0 

EndChar

StartChar: u0CA4.sub
Encoding: 65592 -1 188
Width: 281
Flags: HW
LayerCount: 2
Fore
SplineSet
75 -302 m 2
 75 -184.4 173.147 -106 284 -106 c 2
 575 -106 l 1
 575 -459 l 2
 575 -580.966 473.474 -685 338 -685 c 2
 -559 -685 l 1
 -559 -510 l 1
 271 -510 l 2
 339.15 -510 391 -479.2 391 -433 c 2
 391 -277 l 1
 337 -277 l 2
 295.168 -277 261 -305.607 261 -356 c 2
 261 -423 l 1
 75 -423 l 1
 75 -302 l 2
EndSplineSet
Position2: "SubMove-1" dx=-100 dy=0 dh=0 dv=0
Ligature2: "'blwf' Below Base Forms in Kannada lookup 5 subtable" u0CA4 u0CCD
LCarets2: 1 0 

EndChar

StartChar: u0CA4_u0CAF.sub
Encoding: 65593 -1 189
Width: 481
Flags: HW
LayerCount: 2
Fore
SplineSet
-199 -787 m 2
 -273.03 -787 -340 -734.2 -340 -655 c 2
 -340 -588 l 2
 -340 -541.333 -322.333 -502.667 -287 -472 c 1
 -104 -340 l 1
 -70 -311.333 -53 -289.333 -53 -274 c 0
 -53 -249.333 -61.3333 -237 -78 -237 c 2
 -148 -237 l 2
 -170 -237 -181 -249.333 -181 -274 c 2
 -181 -314 l 1
 -798 -312 l 1
 -798 -164 l 1
 -354 -165 l 1
 -344.402 -141.538 -304.252 -81 -223 -81 c 2
 -13 -81 l 2
 80.6062 -81 136 -150.337 136 -221 c 2
 136 -300 l 2
 136 -340 109 -380.333 55 -421 c 1
 -103 -526 l 2
 -138.333 -550 -156 -571.333 -156 -590 c 2
 -156 -606 l 1
 -154.667 -621.333 -146.333 -629 -131 -629 c 2
 290 -629 l 2
 329.614 -629 344 -582.08 344 -536 c 2
 344 -298 l 2
 344 -218.667 326 -166.667 290 -142 c 1
 162 -9 l 1
 108 39 81 77.3333 81 106 c 2
 81 317 l 2
 81 404.388 156.028 476 240 476 c 2
 504 476 l 2
 580.369 476 633 414.307 633 344 c 2
 633 186 l 1
 449 186 l 1
 449 267 l 2
 449 300.333 435 317 407 317 c 2
 318 317 l 1
 288.921 314.674 267 297.4 267 268 c 2
 267 162 l 2
 267 131.333 279 105 303 83 c 1
 434 -51 l 1
 497.333 -97.6667 529 -158.667 529 -234 c 2
 529 -605 l 2
 529 -709.289 444.663 -787 356 -787 c 2
 -199 -787 l 2
EndSplineSet
EndChar

StartChar: u0CA4_u0CB5.sub
Encoding: 65594 -1 190
Width: 481
Flags: HW
LayerCount: 2
Fore
SplineSet
308 -672 m 1
 300.828 -690.327 236.589 -792 150 -792 c 0
 142.667 -792 137.667 -791.667 135 -791 c 2
 -196 -792 l 2
 -270.03 -792 -337 -739.2 -337 -660 c 2
 -337 -593 l 2
 -337 -546.333 -319.333 -507.667 -284 -477 c 1
 -101 -345 l 1
 -67 -316.333 -50 -294.333 -50 -279 c 0
 -50 -254.333 -58.3333 -242 -75 -242 c 2
 -145 -242 l 2
 -167 -242 -178 -254.333 -178 -279 c 2
 -178 -319 l 1
 -795 -318 l 1
 -795 -169 l 1
 -355 -169 l 1
 -345.402 -145.538 -305.252 -85 -224 -85 c 2
 -14 -85 l 2
 79.6062 -85 135 -154.337 135 -225 c 2
 135 -304 l 2
 135 -344 108 -384.333 54 -425 c 1
 -104 -530 l 2
 -139.333 -554 -157 -575.333 -157 -594 c 2
 -157 -610 l 1
 -155.667 -625.333 -147.333 -633 -132 -633 c 2
 71 -633 l 2
 147.125 -633 203 -577.31 203 -512 c 2
 203 -451 l 1
 414 -451 l 1
 414 -529 l 2
 414 -584.27 447.164 -632 491 -632 c 2
 652 -632 l 2
 684.082 -632 703 -603.823 703 -581 c 2
 703 -474 l 1
 699.397 -428.958 667.201 -423 653 -423 c 2
 522 -423 l 1
 522 -265 l 1
 636 -265 l 2
 677.01 -265 703 -231.676 703 -198 c 2
 703 -15 l 1
 889 -15 l 1
 889 -215 l 2
 889 -263 862 -307 808 -347 c 1
 862 -370.333 889 -408.333 889 -461 c 2
 889 -634 l 2
 889 -722.309 827.801 -793 758 -793 c 2
 464 -793 l 2
 398 -793 346 -752.667 308 -672 c 1
EndSplineSet
EndChar

StartChar: u0CA4_u0CC3.sub
Encoding: 65595 -1 191
Width: 270
Flags: HW
LayerCount: 2
Fore
SplineSet
265 -608 m 2
 307.381 -608 358 -569.126 358 -502 c 2
 358 -38 l 1
 149 121 l 1
 265 280 l 1
 542 54 l 1
 543 -592 l 2
 543 -700.034 484.688 -792 387 -792 c 2
 -79 -792 l 2
 -183.051 -792 -274 -696.604 -274 -582 c 2
 -274 -503 l 1
 -537 -503 l 1
 -537 -317 l 1
 -274 -317 l 1
 -274 -197 l 2
 -274 -117.852 -215.784 -57 -144 -57 c 2
 28 -57 l 2
 133.519 -57 199 -127.828 199 -198 c 2
 199 -382 l 2
 199 -449.597 146.106 -503 79 -503 c 2
 -90 -503 l 1
 -90 -539 l 2
 -90 -575.647 -57.7349 -608 -29 -608 c 2
 265 -608 l 2
27 -301 m 2
 27 -276 l 2
 27 -251.333 17.6667 -239 -1 -239 c 2
 -55 -239 l 2
 -78.3333 -239 -90 -248.333 -90 -267 c 2
 -90 -317 l 1
 -1 -317 l 2
 17.6667 -317 27 -311.667 27 -301 c 2
EndSplineSet
EndChar

StartChar: u0CA4_u0CD6.sub
Encoding: 65596 -1 192
Width: 371
Flags: HW
LayerCount: 2
Fore
SplineSet
621 -140 m 1
 690.187 -167.917 742 -234.177 742 -322 c 2
 743 -522 l 2
 743 -674.697 632.524 -786 493 -786 c 2
 -61 -786 l 1
 -61 -791 l 1
 -205.256 -791 -311 -665.641 -311 -527 c 1
 -730 -527 l 1
 -730 -343 l 1
 -336 -343 l 1
 -336 -289 l 2
 -336 -161.075 -231.825 -56 -101 -56 c 2
 33 -56 l 2
 135.702 -56 216 -119.929 216 -212 c 2
 216 -381 l 2
 216 -451.316 155.342 -527 57 -527 c 2
 -101 -527 l 1
 -101 -568.881 -55.225 -607 -12 -607 c 2
 426 -607 l 2
 485.102 -607 532 -563.115 532 -510 c 2
 532 -343 l 2
 532 -306.337 516.2 -239 453 -239 c 2
 294 -239 l 1
 294 -56 l 1
 438 -56 l 2
 511.842 -56 559 10.9867 559 65 c 2
 559 263 l 2
 559 324.6 510.275 340 481 340 c 2
 376 340 l 1
 376 524 l 1
 542 524 l 2
 655.032 524 742 422.344 742 285 c 2
 742 64 l 2
 742 -31.362 685.494 -101.081 621 -140 c 1
-37 -208 m 2
 -76.0125 -208 -98 -237.094 -98 -262 c 2
 -98 -339 l 1
 -20 -339 l 2
 16.6667 -339 34.3333 -330.333 33 -313 c 1
 33 -262 l 2
 33 -239.025 22 -208 -22 -208 c 2
 -37 -208 l 2
EndSplineSet
EndChar

StartChar: u0CA5.base
Encoding: 65597 -1 194
Width: 1408
Flags: HW
LayerCount: 2
Fore
SplineSet
368 764 m 2
 368 908.8 454.988 1038.76 562 1126 c 1
 394 1126 l 1
 394 1310 l 1
 1469 1310 l 1
 1526 1126 l 1
 1711.46 976.939 1739 831.6 1739 758 c 2
 1738 232 l 2
 1738 97.1352 1646.26 -5 1537 -5 c 2
 1210 -5 l 2
 1138.21 -5 1070.91 49.7635 1053 115 c 1
 1022.54 40.2236 957.6 -6 894 -6 c 2
 578 -6 l 1
 578 -1 l 1
 466.326 -1 368 99.2521 368 225 c 2
 368 764 l 2
1420 176 m 2
 1470.65 176 1523.51 221.561 1525 311 c 1
 1525 758 l 2
 1525 902.8 1395.11 1032.72 1238 1120 c 1
 851 1120 l 1
 696.922 1046.14 579 909.4 579 769 c 2
 579 279 l 2
 579 217.223 617.791 172 658 172 c 2
 827 176 l 1
 896.803 176 948 226.202 948 282 c 2
 948 389 l 1
 1159 389 l 1
 1159 273 l 2
 1159 222.652 1204.93 176 1275 176 c 2
 1420 176 l 2
1158 -278 m 1
 948 -278 l 1
 948 -14 l 1
 1158 -14 l 1
 1158 -278 l 1
1166 578 m 1
 952 578 l 1
 952 788 l 1
 1166 788 l 1
 1166 578 l 1
EndSplineSet
EndChar

StartChar: u0CA5.imathra
Encoding: 65598 -1 195
Width: 1674
Flags: HW
LayerCount: 2
Fore
SplineSet
370 1539 m 2
 370 1650.89 450.728 1735 553 1735 c 2
 1012 1735 l 2
 1091.33 1735 1158.33 1699.67 1213 1629 c 1
 1528 1327 l 2
 1670.67 1190.33 1742 1044.67 1742 890 c 1
 1738 284 l 1
 1738 114.537 1632.62 -5 1525 -5 c 2
 1185 -5 l 2
 1106.81 -5 1041.49 53.4248 1026 127 c 1
 1005.65 61.4434 953.485 -5 878 -5 c 2
 605 -5 l 1
 605 0 l 1
 473.264 0 368 110.883 368 254 c 2
 368 870 l 2
 368 958.667 438 1073 578 1213 c 1
 465.146 1255.88 370 1328.8 370 1406 c 2
 370 1539 l 2
671 1549 m 2
 621.883 1549 582 1514.13 582 1470 c 2
 582 1434 l 2
 582 1396 617.333 1355.67 688 1313 c 1
 1293 1312 l 1
 1067 1513 l 2
 1040.33 1537 1005.67 1549 963 1549 c 2
 671 1549 l 2
1411 179 m 2
 1476.34 179 1528.7 224.115 1530 275 c 1
 1530 891 l 2
 1530 985.8 1460.11 1073.1 1376 1128 c 1
 804 1128 l 1
 703.761 1071.87 584 970.8 584 866 c 2
 584 276 l 2
 584 224.919 629.344 179 673 179 c 2
 822 179 l 2
 872.544 179 926 224.853 926 285 c 2
 926 392 l 1
 1136 392 l 1
 1136 301 l 2
 1136 241.284 1180.46 179 1225 179 c 2
 1411 179 l 2
1163 -274 m 1
 953 -274 l 1
 953 -10 l 1
 1163 -10 l 1
 1163 -274 l 1
1149 582 m 1
 935 582 l 1
 935 792 l 1
 1149 792 l 1
 1149 582 l 1
EndSplineSet
Ligature2: "'abvs' Above Base Substitutions in Kannada lookup 11 subtable" u0CA5 u0CBF
LCarets2: 1 0 

EndChar

StartChar: u0CA5.sub
Encoding: 65599 -1 196
Width: 322
Flags: HW
LayerCount: 2
Fore
SplineSet
-447 -713 m 2
 -547.514 -713 -631 -639.294 -631 -565 c 2
 -631 -395 l 2
 -631 -365.667 -605 -326.333 -553 -277 c 1
 -278 -82 l 1
 -185 -31 l 1
 222 -31 l 2
 256 -31 287.333 -48 316 -82 c 1
 563 -290 l 1
 626.333 -336.667 658 -384.667 658 -434 c 1
 655 -565 l 1
 655 -638.742 579.784 -713 483 -713 c 2
 208 -713 l 2
 122.875 -713 54.5198 -650.201 27 -582 c 1
 4.30846 -653.857 -73.6763 -713 -172 -713 c 2
 -447 -713 l 2
114 -793 m 1
 -70 -793 l 1
 -70 -715 l 1
 26 -634 l 1
 114 -726 l 1
 114 -793 l 1
421 -554 m 2
 461.251 -554 474.189 -526.596 475 -512 c 2
 475 -434 l 1
 462.333 -402.667 447.667 -384.333 431 -379 c 1
 221 -220 l 2
 196.769 -201.154 174.8 -194 144 -194 c 2
 -95 -194 l 2
 -135 -194 -169.667 -206 -199 -230 c 1
 -385 -351 l 1
 -385 -346 l 1
 -425.667 -390.667 -446 -420.333 -446 -435 c 2
 -446 -489 l 2
 -446 -527.838 -411.05 -555 -385 -555 c 2
 -159 -555 l 2
 -110.712 -555 -78 -518.742 -78 -477 c 1
 133 -477 l 1
 133 -522.812 169.719 -554 195 -554 c 2
 421 -554 l 2
113 -428 m 1
 -71 -428 l 1
 -71 -272 l 1
 113 -272 l 1
 113 -428 l 1
EndSplineSet
Position2: "SubMove-1" dx=-100 dy=0 dh=0 dv=0
Ligature2: "'blwf' Below Base Forms in Kannada lookup 5 subtable" u0CA5 u0CCD
LCarets2: 1 0 

EndChar

StartChar: u0CA6.base
Encoding: 65600 -1 198
Width: 1408
Flags: HW
LayerCount: 2
Fore
SplineSet
368 764 m 2
 368 908.8 454.988 1038.76 562 1126 c 1
 394 1126 l 1
 394 1310 l 1
 1469 1310 l 1
 1526 1126 l 1
 1711.46 976.939 1739 831.6 1739 758 c 2
 1738 232 l 2
 1738 97.1352 1646.26 -5 1537 -5 c 2
 1210 -5 l 2
 1138.21 -5 1070.91 49.7635 1053 115 c 1
 1022.54 40.2236 957.6 -6 894 -6 c 2
 578 -6 l 1
 578 -1 l 1
 466.326 -1 368 99.2521 368 225 c 2
 368 764 l 2
1420 176 m 2
 1470.65 176 1523.51 221.561 1525 311 c 1
 1525 758 l 2
 1525 902.8 1395.11 1032.72 1238 1120 c 1
 851 1120 l 1
 696.922 1046.14 579 909.4 579 769 c 2
 579 279 l 2
 579 217.223 617.791 172 658 172 c 2
 827 176 l 1
 896.803 176 948 226.202 948 282 c 2
 948 389 l 1
 1159 389 l 1
 1159 273 l 2
 1159 222.652 1204.93 176 1275 176 c 2
 1420 176 l 2
EndSplineSet
EndChar

StartChar: u0CA6.imathra
Encoding: 65601 -1 199
Width: 1674
Flags: HW
LayerCount: 2
Fore
SplineSet
370 1539 m 2
 370 1650.89 450.728 1735 553 1735 c 2
 1012 1735 l 2
 1091.33 1735 1158.33 1699.67 1213 1629 c 1
 1528 1327 l 2
 1670.67 1190.33 1742 1044.67 1742 890 c 1
 1738 284 l 1
 1738 114.537 1632.62 -5 1525 -5 c 2
 1185 -5 l 2
 1106.81 -5 1041.49 53.4248 1026 127 c 1
 1005.65 61.4434 953.485 -5 878 -5 c 2
 605 -5 l 1
 605 0 l 1
 473.264 0 368 110.883 368 254 c 2
 368 870 l 2
 368 958.667 438 1073 578 1213 c 1
 465.146 1255.88 370 1328.8 370 1406 c 2
 370 1539 l 2
671 1549 m 2
 621.883 1549 582 1514.13 582 1470 c 2
 582 1434 l 2
 582 1396 617.333 1355.67 688 1313 c 1
 1293 1312 l 1
 1067 1513 l 2
 1040.33 1537 1005.67 1549 963 1549 c 2
 671 1549 l 2
1411 179 m 2
 1476.34 179 1528.7 224.115 1530 275 c 1
 1530 891 l 2
 1530 985.8 1460.11 1073.1 1376 1128 c 1
 804 1128 l 1
 703.761 1071.87 584 970.8 584 866 c 2
 584 276 l 2
 584 224.919 629.344 179 673 179 c 2
 822 179 l 2
 872.544 179 926 224.853 926 285 c 2
 926 392 l 1
 1136 392 l 1
 1136 301 l 2
 1136 241.284 1180.46 179 1225 179 c 2
 1411 179 l 2
EndSplineSet
Ligature2: "'abvs' Above Base Substitutions in Kannada lookup 11 subtable" u0CA6 u0CBF
LCarets2: 1 0 

EndChar

StartChar: u0CA6.sub
Encoding: 65602 -1 200
Width: 306
Flags: HW
LayerCount: 2
Fore
SplineSet
-394 -713 m 2
 -513.235 -713 -606 -626.966 -606 -539 c 2
 -606 -395 l 2
 -606 -350.333 -584.667 -311 -542 -277 c 2
 -264 -63 l 1
 -230 -41 -199.667 -30 -173 -30 c 2
 210 -30 l 2
 251.333 -30 286.333 -47 315 -81 c 1
 578 -328 l 1
 612 -352.667 629 -384 629 -422 c 2
 627 -565 l 1
 627 -636.884 571.096 -713 483 -713 c 2
 180 -713 l 2
 88.2 -713 39.2492 -644.059 27 -592 c 1
 11.42 -660.812 -68.735 -713 -159 -713 c 2
 -394 -713 l 2
394 -553 m 2
 426.198 -553 444.741 -526.186 446 -501 c 1
 446 -458 l 2
 446 -422.667 429 -393.333 395 -370 c 1
 220 -221 l 1
 196 -197 170 -185 142 -185 c 2
 -97 -185 l 2
 -114.333 -185 -135.333 -193.667 -160 -211 c 2
 -371 -355 l 1
 -404.333 -385.667 -421 -408 -421 -422 c 2
 -421 -486 l 2
 -421 -518.476 -396.58 -553 -371 -553 c 2
 -160 -553 l 2
 -108.905 -553 -70 -521.594 -70 -476 c 2
 -70 -423 l 1
 114 -423 l 1
 114 -476 l 2
 114 -516.181 153.3 -553 193 -553 c 2
 394 -553 l 2
EndSplineSet
Position2: "SubMove-1" dx=-100 dy=0 dh=0 dv=0
Ligature2: "'blwf' Below Base Forms in Kannada lookup 5 subtable" u0CA6 u0CCD
LCarets2: 1 0 

EndChar

StartChar: u0CA7.base
Encoding: 65603 -1 202
Width: 1408
Flags: HW
LayerCount: 2
Fore
SplineSet
368 764 m 2
 368 908.8 454.988 1038.76 562 1126 c 1
 394 1126 l 1
 394 1310 l 1
 1469 1310 l 1
 1526 1126 l 1
 1711.46 976.939 1739 831.6 1739 758 c 2
 1738 232 l 2
 1738 97.1352 1646.26 -5 1537 -5 c 2
 1210 -5 l 2
 1138.21 -5 1070.91 49.7635 1053 115 c 1
 1022.54 40.2236 957.6 -6 894 -6 c 2
 578 -6 l 1
 578 -1 l 1
 466.326 -1 368 99.2521 368 225 c 2
 368 764 l 2
1420 176 m 2
 1470.65 176 1523.51 221.561 1525 311 c 1
 1525 758 l 2
 1525 902.8 1395.11 1032.72 1238 1120 c 1
 851 1120 l 1
 696.922 1046.14 579 909.4 579 769 c 2
 579 279 l 2
 579 217.223 617.791 172 658 172 c 2
 827 176 l 1
 896.803 176 948 226.202 948 282 c 2
 948 389 l 1
 1159 389 l 1
 1159 273 l 2
 1159 222.652 1204.93 176 1275 176 c 2
 1420 176 l 2
1158 -278 m 1
 948 -278 l 1
 948 -14 l 1
 1158 -14 l 1
 1158 -278 l 1
EndSplineSet
EndChar

StartChar: u0CA7.imathra
Encoding: 65604 -1 203
Width: 1674
Flags: HW
LayerCount: 2
Fore
SplineSet
370 1539 m 2
 370 1650.89 450.728 1735 553 1735 c 2
 1012 1735 l 2
 1091.33 1735 1158.33 1699.67 1213 1629 c 1
 1528 1327 l 2
 1670.67 1190.33 1742 1044.67 1742 890 c 1
 1738 284 l 1
 1738 114.537 1632.62 -5 1525 -5 c 2
 1185 -5 l 2
 1106.81 -5 1041.49 53.4248 1026 127 c 1
 1005.65 61.4434 953.485 -5 878 -5 c 2
 605 -5 l 1
 605 0 l 1
 473.264 0 368 110.883 368 254 c 2
 368 870 l 2
 368 958.667 438 1073 578 1213 c 1
 465.146 1255.88 370 1328.8 370 1406 c 2
 370 1539 l 2
671 1549 m 2
 621.883 1549 582 1514.13 582 1470 c 2
 582 1434 l 2
 582 1396 617.333 1355.67 688 1313 c 1
 1293 1312 l 1
 1067 1513 l 2
 1040.33 1537 1005.67 1549 963 1549 c 2
 671 1549 l 2
1411 179 m 2
 1476.34 179 1528.7 224.115 1530 275 c 1
 1530 891 l 2
 1530 985.8 1460.11 1073.1 1376 1128 c 1
 804 1128 l 1
 703.761 1071.87 584 970.8 584 866 c 2
 584 276 l 2
 584 224.919 629.344 179 673 179 c 2
 822 179 l 2
 872.544 179 926 224.853 926 285 c 2
 926 392 l 1
 1136 392 l 1
 1136 301 l 2
 1136 241.284 1180.46 179 1225 179 c 2
 1411 179 l 2
1163 -274 m 1
 953 -274 l 1
 953 -10 l 1
 1163 -10 l 1
 1163 -274 l 1
EndSplineSet
Ligature2: "'abvs' Above Base Substitutions in Kannada lookup 11 subtable" u0CA7 u0CBF
LCarets2: 1 0 

EndChar

StartChar: u0CA7.sub
Encoding: 65605 -1 204
Width: 306
Flags: HW
LayerCount: 2
Fore
SplineSet
-446 -712 m 2
 -532.594 -712 -605 -639.563 -605 -564 c 2
 -605 -394 l 2
 -605 -360.667 -587.333 -325.333 -552 -288 c 1
 -277 -80 l 1
 -184 -29 l 1
 223 -29 l 2
 257 -29 288.333 -46 317 -80 c 1
 564 -301 l 1
 608.667 -330.333 631 -373.667 631 -431 c 1
 627 -565 l 1
 627 -636.884 571.096 -713 483 -713 c 2
 208 -713 l 2
 122.875 -713 54.5198 -650.201 27 -582 c 1
 5.1341 -652.457 -73.8239 -712 -171 -712 c 2
 -446 -712 l 2
115 -790 m 1
 -69 -790 l 1
 -69 -712 l 1
 27 -631 l 1
 115 -712 l 1
 115 -790 l 1
399 -545 m 1
 424.095 -542.818 451.167 -530.753 448 -507 c 1
 448 -426 l 1
 437.333 -394.667 423.333 -376.333 406 -371 c 1
 223 -212 l 1
 199 -194.667 173 -186 145 -186 c 2
 -94 -186 l 2
 -111.333 -186 -132.333 -194.667 -157 -212 c 2
 -357 -343 l 1
 -411 -399 l 1
 -413.516 -404.032 -414.157 -407.627 -416 -415 c 1
 -416 -494 l 2
 -416 -528 -407.333 -545 -390 -545 c 2
 -155 -545 l 2
 -101 -545 -65 -502.275 -65 -441 c 1
 119 -441 l 1
 119 -497.541 153.732 -545 198 -545 c 2
 399 -545 l 1
EndSplineSet
Position2: "SubMove-1" dx=-100 dy=0 dh=0 dv=0
Ligature2: "'blwf' Below Base Forms in Kannada lookup 5 subtable" u0CA7 u0CCD
LCarets2: 1 0 

EndChar

StartChar: u0CA8.base
Encoding: 65606 -1 206
Width: 1295
Flags: HW
LayerCount: 2
Fore
SplineSet
1277 1318 m 1
 1506.12 1295.54 1624 1095.84 1624 925 c 2
 1622 237 l 2
 1622 104.634 1540.66 -3.45798e-18 1437 0 c 2
 1069 0 l 2
 968.75 0 884 91.4507 884 211 c 2
 884 632 l 2
 884 681.607 856.745 735 818 735 c 2
 648 735 l 2
 608.781 735 571 693.827 571 632 c 2
 571 266 l 2
 571 211.9 607.6 186 632 186 c 2
 675 186 l 1
 675 2 l 1
 580 2 l 2
 458.941 2 361 97.1141 361 212 c 2
 361 676 l 2
 361 819.207 455.65 925 570 925 c 2
 886 925 l 2
 999.335 925 1096 813.071 1096 659 c 2
 1096 255 l 2
 1096 215.85 1126.17 186 1160 186 c 2
 1343 186 l 2
 1379.25 186 1410 232.981 1410 289 c 2
 1410 941 l 2
 1410 1047.68 1306.3 1115.69 1201 1134 c 1
 384 1134 l 1
 384 1318 l 1
 1277 1318 l 1
EndSplineSet
EndChar

StartChar: u0CA8.imathra
Encoding: 65607 -1 207
Width: 1530
Flags: HW
LayerCount: 2
Fore
SplineSet
1397 1533 m 2
 1507.26 1533 1579 1442.06 1579 1324 c 1
 1589 211 l 1
 1589 92.7256 1514.49 1 1407 1 c 2
 1099 1 l 2
 995.238 1 905 94.8328 905 211 c 2
 905 621 l 2
 905 681.185 850.803 713 799 713 c 2
 624 713 l 2
 580.3 713 536 678.8 536 622 c 2
 536 267 l 2
 536 220.709 573.229 187 615 187 c 2
 666 187 l 1
 666 3 l 1
 561 3 l 2
 441.393 3 350 81.1855 350 176 c 2
 350 678 l 2
 350 803.159 446.529 899 560 899 c 2
 876 899 l 2
 1005.94 899 1085 776.762 1085 663 c 2
 1085 270 l 2
 1085 227.408 1113.78 190 1149 190 c 2
 1294 190 l 2
 1343.79 190 1374 231.969 1374 286 c 2
 1374 1272 l 2
 1374 1329.1 1342.2 1350 1321 1350 c 2
 1226 1350 l 2
 1200 1350 1187 1333 1187 1299 c 2
 1187 1218 l 1
 1188.35 1192.38 1208.54 1169 1240 1169 c 2
 1291 1169 l 1
 1291 983 l 1
 1172 983 l 2
 1061.84 983 975 1063.45 975 1157 c 2
 975 1351 l 2
 975 1455.81 1060.35 1533 1171 1533 c 2
 1397 1533 l 2
EndSplineSet
Ligature2: "'abvs' Above Base Substitutions in Kannada lookup 11 subtable" u0CA8 u0CBF
LCarets2: 1 0 

EndChar

StartChar: u0CA8.sub
Encoding: 65608 -1 208
Width: 270
Flags: HW
LayerCount: 2
Fore
SplineSet
313 -634 m 0
 338.2 -634 365 -615.996 365 -585 c 2
 365 -531 l 1
 548 -531 l 1
 548 -644 l 2
 548 -734.102 483.553 -792 417 -792 c 2
 261 -792 l 2
 208.333 -792 138.333 -747.667 51 -659 c 1
 -29 -736.333 -100 -775 -162 -775 c 2
 -388 -775 l 2
 -472.385 -775 -529 -706.088 -529 -633 c 2
 -529 -477 l 2
 -529 -429.667 -512 -389.333 -478 -356 c 1
 -446.667 -320.667 -408.333 -303 -363 -303 c 2
 -125 -303 l 2
 -80.3333 -303 -21.6667 -337.333 51 -406 c 1
 110.333 -346.667 140 -304 140 -278 c 2
 140 -174 l 2
 140 -111.3 114.8 -59 77 -59 c 1
 77 117 l 1
 205.288 117 324 -1.6957 324 -174 c 2
 324 -278 l 2
 324 -360 276 -447.667 180 -541 c 1
 248.667 -603 293 -634 313 -634 c 0
-346 -584 m 2
 -346 -605.824 -322.307 -619 -292 -619 c 2
 -204 -619 l 2
 -154 -619 -105.333 -589.667 -58 -531 c 1
 -80.6667 -504.333 -107.333 -491 -138 -491 c 2
 -293 -491 l 2
 -311.534 -491 -346 -497.268 -346 -530 c 2
 -346 -584 l 2
EndSplineSet
Position2: "SubMove-1" dx=-100 dy=0 dh=0 dv=0
Ligature2: "'blwf' Below Base Forms in Kannada lookup 5 subtable" u0CA8 u0CCD
LCarets2: 1 0 

EndChar

StartChar: u0CAA.base
Encoding: 65609 -1 210
Width: 1558
Flags: HW
LayerCount: 2
Fore
SplineSet
1611 1129 m 1
 343 1129 l 1
 343 1313 l 1
 1611 1313 l 1
 1611 1129 l 1
1187 713 m 1
 978 713 l 1
 978 963 l 1
 1187 963 l 1
 1187 713 l 1
1634 1048 m 1
 1766.97 987.005 1873 883.6 1873 774 c 2
 1874 220 l 2
 1874 102.775 1795.6 -6 1678 -6 c 1
 1678 -1 l 1
 1268 -1 l 2
 1171.46 -1 1092.65 68.8388 1082 158 c 1
 1065.7 66.9791 983.924 -1 900 -1 c 2
 520 -1 l 2
 409.073 -1 321 87.9281 321 198 c 2
 321 790 l 1
 654 790 l 2
 782.213 790 900 687.886 900 542 c 2
 900 449 l 1
 689 449 l 1
 689 527 l 2
 689 576.833 658.949 607 612 607 c 2
 531 607 l 1
 531 305 l 2
 531 241.357 588.664 184 652 184 c 2
 848 184 l 2
 929.214 184 979 247.231 979 305 c 2
 979 526 l 1
 1188 526 l 1
 1188 305 l 2
 1188 240.85 1246.49 184 1308 184 c 2
 1547 184 l 2
 1609.1 184 1662 236.325 1662 305 c 2
 1662 764 l 2
 1662 808.667 1615 850.333 1521 889 c 1
 1634 1048 l 1
EndSplineSet
EndChar

StartChar: u0CAA.imathra
Encoding: 65610 -1 211
Width: 1822
Flags: HW
LayerCount: 2
Fore
SplineSet
1211 1285 m 0
 1211 1219.32 1166.48 1166 1117 1166 c 0
 1100 1166 1073.66 1170.59 1032 1181 c 1
 968.047 1190.92 898.269 1191.83 865 1275 c 1
 852 1315.5 l 130
 838.623 1358.14 836 1386.3 836 1404 c 0
 836 1404.02 842.251 1616.87 950.5 1658.5 c 128
 950.524 1658.51 1063.77 1696 1163 1696 c 0
 1211.62 1696 1342.63 1682.19 1385 1660 c 0
 1442.2 1628.91 1468.85 1584.31 1479 1493 c 1
 1491 1435.67 1497 1383.67 1497 1337 c 0
 1497 1228.24 1451.85 1068.87 1450 1064 c 0
 1430.92 1013.13 1394.37 973.949 1347 955 c 1
 1311 943 1282.33 934 1261 928 c 2
 1141 889 l 130
 1099.67 875.667 1064.67 869 1036 869 c 0
 922.526 869 903 988.821 903 1024 c 0
 903 1055.35 922.428 1142 990 1142 c 0
 1032.13 1142 1118.24 1102 1160 1102 c 0
 1191.37 1102 1210.38 1112.48 1223 1115 c 1
 1244.9 1121.84 1255.71 1135.2 1261 1159 c 130
 1267 1186 l 1
 1286.32 1253.63 1300 1306.65 1300 1345 c 0
 1300 1381.42 1291.23 1415.34 1267 1449 c 2
 1251 1472 l 1
 1231.04 1497.28 1195.2 1516 1158 1516 c 0
 1136.78 1516 1079 1500.34 1070.5 1489 c 128
 1064.1 1480.47 1059 1453.26 1059 1431 c 256
 1059 1378.69 1083.56 1369.12 1110 1362 c 1
 1164 1362 l 1
 1191.76 1353.17 1211 1321.82 1211 1285 c 0
1632 1049 m 1
 1764.97 988.005 1871 884.6 1871 775 c 2
 1874 221 l 2
 1874 103.775 1795.6 -5 1678 -5 c 1
 1678 0 l 1
 1268 0 l 2
 1177.04 0 1105.56 79.4638 1081 159 c 1
 1064.7 67.9791 982.924 1.73316e-18 899 0 c 2
 519 0 l 2
 408.073 0 320 88.9281 320 199 c 2
 320 791 l 1
 653 791 l 2
 781.213 791 899 688.886 899 543 c 2
 899 450 l 1
 688 450 l 1
 688 528 l 2
 688 577.833 657.949 608 611 608 c 2
 530 608 l 1
 530 306 l 2
 530 242.357 587.664 185 651 185 c 2
 872 185 l 2
 932.469 185 977 244.76 977 316 c 2
 977 527 l 1
 1186 527 l 1
 1186 316 l 2
 1186 241.536 1241.77 186 1305 186 c 2
 1527 186 l 2
 1601.92 186 1660 250.36 1660 333 c 2
 1660 737 l 2
 1660 800.333 1613 851.333 1519 890 c 1
 1632 1049 l 1
EndSplineSet
Ligature2: "'abvs' Above Base Substitutions in Kannada lookup 11 subtable" u0CAA u0CBF
LCarets2: 1 0 

EndChar

StartChar: u0CAA.sub
Encoding: 65611 -1 212
Width: 316
Flags: HW
LayerCount: 2
Fore
SplineSet
406 334 m 1
 542.005 261.14 645 139 645 9 c 2
 644 -466 l 2
 644 -604.12 573.866 -719 488 -719 c 2
 250 -719 l 2
 175.6 -719 99.4083 -646.047 64 -589 c 1
 24.6429 -655.688 -45.2 -720 -118 -720 c 2
 -382 -720 l 1
 -382 -715 l 1
 -512.352 -715 -616 -623.964 -616 -505 c 2
 -616 -358 l 2
 -616 -233.505 -487.669 -136 -328 -136 c 2
 -145 -136 l 1
 -145 -425 l 1
 -328 -425 l 1
 -328 -319 l 1
 -385.493 -319 -431 -344.2 -431 -382 c 2
 -431 -477 l 2
 -431 -515.925 -383.084 -554 -327 -554 c 2
 -168 -554 l 2
 -86.225 -554 -29 -502 -29 -424 c 2
 -29 -318 l 1
 158 -318 l 1
 158 -396 l 2
 158 -484.773 218.466 -555 279 -555 c 2
 407 -555 l 2
 439.4 -555 461 -514.75 461 -451 c 2
 461 -2 l 2
 461 80 412 148.333 314 203 c 1
 406 334 l 1
155 -798 m 1
 -32 -798 l 1
 -32 -706 l 1
 63 -652 l 1
 155 -706 l 1
 155 -798 l 1
EndSplineSet
Position2: "SubMove-1" dx=-100 dy=0 dh=0 dv=0
Ligature2: "'blwf' Below Base Forms in Kannada lookup 5 subtable" u0CAA u0CCD
LCarets2: 1 0 

EndChar

StartChar: u0CAB.base
Encoding: 65612 -1 214
Width: 1558
Flags: HW
LayerCount: 2
Fore
SplineSet
1611 1129 m 1
 343 1129 l 1
 343 1313 l 1
 1611 1313 l 1
 1611 1129 l 1
1187 713 m 1
 978 713 l 1
 978 963 l 1
 1187 963 l 1
 1187 713 l 1
1634 1048 m 1
 1766.97 987.005 1873 883.6 1873 774 c 2
 1874 220 l 2
 1874 102.775 1795.6 -6 1678 -6 c 1
 1678 -1 l 1
 1268 -1 l 2
 1171.46 -1 1092.65 68.8388 1082 158 c 1
 1065.7 66.9791 983.924 -1 900 -1 c 2
 520 -1 l 2
 409.073 -1 321 87.9281 321 198 c 2
 321 790 l 1
 654 790 l 2
 782.213 790 900 687.886 900 542 c 2
 900 449 l 1
 689 449 l 1
 689 527 l 2
 689 576.833 658.949 607 612 607 c 2
 531 607 l 1
 531 305 l 2
 531 241.357 588.664 184 652 184 c 2
 848 184 l 2
 929.214 184 979 247.231 979 305 c 2
 979 526 l 1
 1188 526 l 1
 1188 305 l 2
 1188 240.85 1246.49 184 1308 184 c 2
 1547 184 l 2
 1609.1 184 1662 236.325 1662 305 c 2
 1662 764 l 2
 1662 808.667 1615 850.333 1521 889 c 1
 1634 1048 l 1
1183 -277 m 1
 974 -277 l 1
 974 -13 l 1
 1183 -13 l 1
 1183 -277 l 1
EndSplineSet
EndChar

StartChar: u0CAB.imathra
Encoding: 65613 -1 215
Width: 1822
Flags: HW
LayerCount: 2
Fore
SplineSet
1281 1690 m 2
 1403.44 1690 1476 1595.32 1476 1497 c 2
 1479 1187 l 1
 1479 1045.53 1381.87 926 1258 926 c 2
 925 926 l 1
 925 1109 l 1
 1203 1109 l 2
 1237.92 1109 1267 1145.7 1267 1187 c 2
 1267 1451 l 2
 1267 1487 1249 1505 1213 1505 c 2
 1097 1505 l 1
 1082.67 1503.41 1057 1492.12 1057 1452 c 2
 1057 1415 l 1
 1058.38 1388.78 1082.13 1364 1107 1364 c 2
 1161 1364 l 1
 1161 1181 l 1
 1028 1181 l 2
 928.855 1181 844 1239.7 844 1321 c 2
 844 1507 l 2
 844 1611.59 930.195 1690 1045 1690 c 2
 1281 1690 l 2
1628 1052 m 1
 1760.97 991.005 1867 887.6 1867 778 c 2
 1870 224 l 2
 1870 106.775 1791.6 -2 1674 -2 c 1
 1674 3 l 1
 1264 3 l 2
 1173.04 3 1101.56 82.4638 1077 162 c 1
 1060.7 70.9791 978.924 3 895 3 c 2
 515 3 l 2
 404.073 3 316 91.9281 316 202 c 2
 316 794 l 1
 649 794 l 2
 777.213 794 895 691.886 895 546 c 2
 895 453 l 1
 684 453 l 1
 684 531 l 2
 684 580.833 653.949 611 607 611 c 2
 526 611 l 1
 526 309 l 2
 526 245.357 583.664 188 647 188 c 2
 868 188 l 2
 928.469 188 973 247.76 973 319 c 2
 973 530 l 1
 1182 530 l 1
 1182 319 l 2
 1182 244.536 1237.77 189 1301 189 c 2
 1523 189 l 2
 1597.92 189 1656 253.36 1656 336 c 2
 1656 740 l 2
 1656 803.333 1609 854.333 1515 893 c 1
 1628 1052 l 1
1181 -273 m 1
 971 -273 l 1
 971 -9 l 1
 1181 -9 l 1
 1181 -273 l 1
EndSplineSet
Ligature2: "'abvs' Above Base Substitutions in Kannada lookup 11 subtable" u0CAB u0CBF
LCarets2: 1 0 

EndChar

StartChar: u0CAB.sub
Encoding: 65614 -1 216
Width: 288
Flags: HW
LayerCount: 2
Fore
SplineSet
284 419 m 1
 470.466 376.437 590 205.752 590 -3 c 1
 592 -404 l 2
 592 -557.933 526.219 -669 445 -669 c 2
 213 -669 l 2
 116.207 -669 47.2653 -615.662 30 -554 c 1
 11.2029 -616.327 -36 -685 -135 -685 c 2
 -407 -685 l 2
 -493.174 -685 -577 -605.955 -577 -488 c 2
 -577 -277 l 2
 -577 -181.151 -499.759 -107 -395 -107 c 2
 -173 -107 l 1
 -173 -268 l 1
 -317 -268 l 2
 -349.725 -268 -395 -280.2 -395 -329 c 2
 -395 -460 l 2
 -395 -485.49 -373.929 -511 -344 -511 c 2
 -156 -511 l 2
 -101.4 -511 -65 -453.712 -65 -382 c 2
 -65 -318 l 1
 107 -318 l 1
 107 -396 l 2
 107 -460.277 152.911 -511 201 -511 c 2
 360 -511 l 2
 397.574 -511 411 -450.498 411 -405 c 2
 411 -1 l 2
 411 144.17 328.988 244.039 233 263 c 1
 284 419 l 1
103 -795 m 1
 -69 -795 l 1
 -69 -717 l 1
 26 -612 l 1
 103 -701 l 1
 103 -795 l 1
EndSplineSet
Position2: "SubMove-1" dx=-100 dy=0 dh=0 dv=0
Ligature2: "'blwf' Below Base Forms in Kannada lookup 5 subtable" u0CAB u0CCD
LCarets2: 1 0 

EndChar

StartChar: u0CAC
Encoding: 3244 3244 217
Width: 1745
Flags: HW
LayerCount: 2
Fore
SplineSet
1481 1316 m 2
 1642.47 1316 1794 1190 1794 1001 c 2
 1794 281 l 2
 1794 115.526 1659.16 0 1507 0 c 2
 1215 0 l 2
 1134.75 0 1055.8 52.9572 1034 132 c 1
 1013.85 58.9661 946.402 1.85257e-18 851 0 c 2
 523 0 l 2
 386.641 0 273 121.125 273 280 c 2
 273 474 l 1
 693 727 l 2
 727 747 744 782 744 832 c 2
 744 1026 l 2
 744 1083.03 700.678 1129 641 1129 c 2
 485 1129 l 1
 485 1051 l 2
 485 1009.05 515.071 972 551 972 c 2
 616 972 l 1
 616 788 l 1
 500 788 l 2
 377.201 788 274 891.289 274 1014 c 2
 274 1314 l 1
 667 1314 l 2
 837.386 1314 959 1183.03 959 1025 c 2
 959 733 l 2
 959 687.667 941 653 905 629 c 1
 484 368 l 1
 484 286 l 2
 484 227.567 519.263 184 561 184 c 2
 815 184 l 2
 881.713 184 930 246.48 930 305 c 2
 930 393 l 1
 1139 393 l 1
 1139 287 l 2
 1139 236.948 1187.82 184 1261 184 c 2
 1469 184 l 2
 1529.32 184 1584 245.115 1584 331 c 2
 1584 990 l 2
 1584 1075.45 1516.39 1132 1443 1132 c 2
 1215 1132 l 1
 1215 1316 l 1
 1481 1316 l 2
EndSplineSet
Substitution2: "Single Substitution lookup 15 subtable" u0CAC.base
Ligature2: "Ligature Substitution lookup 14 subtable" u0CAC u0CCD
LCarets2: 1 0 

EndChar

StartChar: u0CAC.base
Encoding: 65615 -1 218
Width: 1479
Flags: HW
LayerCount: 2
Fore
SplineSet
1533 1268 m 1
 1685.2 1214.79 1793 1084.63 1793 898 c 2
 1790 266 l 2
 1790 117.742 1666.88 1 1516 1 c 2
 1236 1 l 2
 1135.27 1 1047.59 59.6375 1027 133 c 1
 1007.58 62.6053 934.672 1 819 1 c 2
 544 1 l 2
 389.943 1 266 118.919 266 255 c 2
 266 476 l 1
 687 714 l 2
 720.333 733.333 737 768.667 737 820 c 2
 737 1029 l 2
 737 1090.16 690.234 1133 633 1133 c 2
 478 1133 l 1
 478 1028 l 2
 478 993.5 501.4 977 517 977 c 2
 581 977 l 1
 581 793 l 1
 493 793 l 2
 370.201 793 267 896.289 267 1019 c 2
 267 1319 l 1
 661 1319 l 2
 825.717 1319 951 1189.98 951 1030 c 2
 951 738 l 2
 951 692.667 933 658 897 634 c 1
 477 373 l 1
 477 268 l 2
 477 217.613 519.491 187 554 187 c 2
 835 187 l 2
 886.842 187 923 230.359 923 283 c 2
 923 396 l 1
 1133 396 l 1
 1133 290 l 2
 1133 235.397 1177.57 187 1227 187 c 2
 1465 187 l 2
 1531.71 187 1580 249.48 1580 308 c 2
 1580 889 l 2
 1580 1031.26 1460.39 1135 1333 1135 c 2
 1213 1135 l 1
 1213 1319 l 1
 1533 1319 l 1
 1533 1268 l 1
EndSplineSet
EndChar

StartChar: u0CAC.imathra
Encoding: 65616 -1 219
Width: 1733
Flags: HW
LayerCount: 2
Fore
SplineSet
1587 1555 m 2
 1695.62 1555 1782 1423.69 1782 1257 c 2
 1779 288 l 2
 1779 136.281 1661.18 1 1507 1 c 2
 1226 1 l 2
 1122.12 1 1040.34 58.7092 1016 133 c 1
 997.247 55.3106 911.975 1 807 1 c 2
 507 1 l 2
 367.698 1 254 121.77 254 255 c 2
 254 438 l 1
 648 685 l 2
 702 718.333 729 763 729 819 c 2
 729 1028 l 2
 729 1090.4 677.5 1132 623 1132 c 2
 464 1132 l 1
 464 1054 l 2
 464 1017.3 491.2 975 532 975 c 2
 569 975 l 1
 569 791 l 1
 507 791 l 2
 373.256 791 255 906.178 255 1045 c 2
 255 1317 l 1
 649 1317 l 2
 826.759 1317 963 1188.43 963 1028 c 2
 963 736 l 2
 963 689.333 937.667 646.667 887 608 c 1
 493 342 l 1
 493 288 l 2
 493 233.235 537.221 185 597 185 c 2
 797 185 l 2
 863.713 185 912 247.48 912 306 c 2
 912 394 l 1
 1123 394 l 1
 1123 316 l 2
 1123 244.051 1185.29 185 1271 185 c 2
 1454 185 l 2
 1513.45 185 1570 230.258 1570 315 c 2
 1570 1257 l 2
 1570 1322.85 1545.19 1372 1519 1372 c 2
 1412 1372 l 1
 1381.95 1369.27 1362 1345.24 1362 1319 c 2
 1362 1186 l 1
 1363.4 1160.88 1390.83 1135 1412 1135 c 2
 1494 1135 l 1
 1494 952 l 1
 1350 952 l 2
 1240.39 952 1151 1045.15 1151 1162 c 2
 1151 1345 l 2
 1151 1464.19 1259.82 1555 1379 1555 c 2
 1587 1555 l 2
EndSplineSet
Ligature2: "'abvs' Above Base Substitutions in Kannada lookup 11 subtable" u0CAC u0CBF
LCarets2: 1 0 

EndChar

StartChar: u0CAC.sub
Encoding: 65617 -1 220
Width: 316
Flags: HW
LayerCount: 2
Fore
SplineSet
369 -592 m 2
 424.8 -592 462 -546.756 462 -504 c 2
 462 103 l 2
 462 195.667 431 262.333 369 303 c 1
 569 303 l 1
 621 262.333 647 210.333 647 147 c 2
 644 -487 l 2
 644 -627.556 543.079 -749 418 -749 c 2
 302 -749 l 2
 194.938 -749 107.583 -684.319 92 -609 c 1
 44.1735 -694.025 -47.2 -750 -140 -750 c 2
 -407 -750 l 2
 -527.17 -750 -616 -672.584 -616 -592 c 2
 -616 -423 l 2
 -616 -352.912 -556.116 -302 -477 -302 c 2
 -302 -302 l 2
 -285.333 -302 -277 -293.667 -277 -277 c 2
 -277 -240 l 1
 -278.333 -229.333 -286.333 -224 -301 -224 c 2
 -592 -224 l 1
 -592 -65 l 1
 -221 -65 l 2
 -145.689 -65 -90 -115.836 -90 -173 c 2
 -90 -318 l 2
 -90 -392.922 -154.36 -451 -237 -451 c 2
 -379 -451 l 2
 -413 -451 -430 -459.667 -430 -477 c 2
 -430 -555 l 2
 -430 -575.893 -403.057 -592 -379 -592 c 2
 -167 -592 l 2
 -76.6031 -592 0 -521.897 0 -434 c 2
 0 -357 l 1
 183 -357 l 1
 183 -450 l 2
 183 -529.95 237.347 -592 288 -592 c 2
 369 -592 l 2
EndSplineSet
Position2: "SubMove-1" dx=-100 dy=0 dh=0 dv=0
Ligature2: "'blwf' Below Base Forms in Kannada lookup 5 subtable" u0CAC u0CCD
LCarets2: 1 0 

EndChar

StartChar: u0CAD.base
Encoding: 65618 -1 222
Width: 1479
Flags: HW
LayerCount: 2
Fore
SplineSet
1533 1268 m 1
 1685.2 1214.79 1793 1084.63 1793 898 c 2
 1790 266 l 2
 1790 117.742 1666.88 1 1516 1 c 2
 1236 1 l 2
 1135.27 1 1047.59 59.6375 1027 133 c 1
 1007.58 62.6053 934.672 1 819 1 c 2
 544 1 l 2
 389.943 1 266 118.919 266 255 c 2
 266 476 l 1
 687 714 l 2
 720.333 733.333 737 768.667 737 820 c 2
 737 1029 l 2
 737 1090.16 690.234 1133 633 1133 c 2
 478 1133 l 1
 478 1028 l 2
 478 993.5 501.4 977 517 977 c 2
 581 977 l 1
 581 793 l 1
 493 793 l 2
 370.201 793 267 896.289 267 1019 c 2
 267 1319 l 1
 661 1319 l 2
 825.717 1319 951 1189.98 951 1030 c 2
 951 738 l 2
 951 692.667 933 658 897 634 c 1
 477 373 l 1
 477 268 l 2
 477 217.613 519.491 187 554 187 c 2
 835 187 l 2
 886.842 187 923 230.359 923 283 c 2
 923 396 l 1
 1133 396 l 1
 1133 290 l 2
 1133 235.397 1177.57 187 1227 187 c 2
 1465 187 l 2
 1531.71 187 1580 249.48 1580 308 c 2
 1580 889 l 2
 1580 1031.26 1460.39 1135 1333 1135 c 2
 1213 1135 l 1
 1213 1319 l 1
 1533 1319 l 1
 1533 1268 l 1
1135 -273 m 1
 925 -274 l 1
 925 -10 l 1
 1135 -10 l 1
 1135 -273 l 1
EndSplineSet
EndChar

StartChar: u0CAD.imathra
Encoding: 65619 -1 223
Width: 1733
Flags: HW
LayerCount: 2
Fore
SplineSet
1587 1555 m 2
 1695.62 1555 1782 1423.69 1782 1257 c 2
 1779 288 l 2
 1779 136.281 1661.18 1 1507 1 c 2
 1226 1 l 2
 1122.12 1 1040.34 58.7092 1016 133 c 1
 997.247 55.3106 911.975 1 807 1 c 2
 507 1 l 2
 367.698 1 254 121.77 254 255 c 2
 254 438 l 1
 648 685 l 2
 702 718.333 729 763 729 819 c 2
 729 1028 l 2
 729 1090.4 677.5 1132 623 1132 c 2
 464 1132 l 1
 464 1054 l 2
 464 1017.3 491.2 975 532 975 c 2
 569 975 l 1
 569 791 l 1
 507 791 l 2
 373.256 791 255 906.178 255 1045 c 2
 255 1317 l 1
 649 1317 l 2
 826.759 1317 963 1188.43 963 1028 c 2
 963 736 l 2
 963 689.333 937.667 646.667 887 608 c 1
 493 342 l 1
 493 288 l 2
 493 233.235 537.221 185 597 185 c 2
 797 185 l 2
 863.713 185 912 247.48 912 306 c 2
 912 394 l 1
 1123 394 l 1
 1123 316 l 2
 1123 244.051 1185.29 185 1271 185 c 2
 1454 185 l 2
 1513.45 185 1570 230.258 1570 315 c 2
 1570 1257 l 2
 1570 1322.85 1545.19 1372 1519 1372 c 2
 1412 1372 l 1
 1381.95 1369.27 1362 1345.24 1362 1319 c 2
 1362 1186 l 1
 1363.4 1160.88 1390.83 1135 1412 1135 c 2
 1494 1135 l 1
 1494 952 l 1
 1350 952 l 2
 1240.39 952 1151 1045.15 1151 1162 c 2
 1151 1345 l 2
 1151 1464.19 1259.82 1555 1379 1555 c 2
 1587 1555 l 2
1120 -276 m 1
 911 -277 l 1
 911 -13 l 1
 1120 -13 l 1
 1120 -276 l 1
EndSplineSet
Ligature2: "'abvs' Above Base Substitutions in Kannada lookup 11 subtable" u0CAD u0CBF
LCarets2: 1 0 

EndChar

StartChar: u0CAD.sub
Encoding: 65620 -1 224
Width: 316
Flags: HW
LayerCount: 2
Fore
SplineSet
459 161 m 2
 459 269.991 390.842 307.126 358 314 c 1
 577 314 l 1
 622.333 278 645 230.667 645 172 c 2
 644 -475 l 2
 644 -611.409 548.739 -736 418 -736 c 2
 313 -736 l 2
 204.849 -736 124.578 -653.589 92 -564 c 1
 49.8712 -634.52 -35.5274 -736 -147 -736 c 2
 -435 -736 l 2
 -538.629 -736 -617 -669.766 -617 -591 c 2
 -617 -404 l 2
 -617 -352.016 -538.849 -317 -462 -317 c 2
 -303 -317 l 2
 -286.333 -317 -278 -300.333 -278 -267 c 2
 -278 -239 l 2
 -278 -221.667 -291.333 -213 -318 -213 c 2
 -593 -213 l 1
 -593 -57 l 1
 -222 -57 l 2
 -147.3 -57 -91 -98.6 -91 -161 c 2
 -91 -302 l 2
 -91 -387.808 -145.235 -459 -222 -459 c 2
 -381 -459 l 2
 -415 -459 -432 -468.333 -432 -487 c 2
 -432 -538 l 2
 -432 -558.279 -396.64 -581 -371 -581 c 2
 -185 -581 l 2
 -77.8531 -581 -2 -504.054 -2 -422 c 2
 -2 -343 l 1
 181 -343 l 1
 181 -422 l 2
 181 -507.319 254.741 -580 329 -580 c 2
 366 -580 l 2
 413.438 -580 459 -538.786 459 -485 c 2
 459 161 l 2
172 -794 m 1
 13 -794 l 1
 13 -716 l 1
 91 -635 l 1
 172 -716 l 1
 172 -794 l 1
EndSplineSet
Position2: "SubMove-1" dx=-100 dy=0 dh=0 dv=0
Ligature2: "'blwf' Below Base Forms in Kannada lookup 5 subtable" u0CAD u0CCD
LCarets2: 1 0 

EndChar

StartChar: u0CAE.sub
Encoding: 65623 -1 228
Width: 316
Flags: HW
LayerCount: 2
Fore
SplineSet
534 -632 m 2
 581.4 -632 676.064 -613.13 771 -476 c 1
 902 -582 l 1
 828.833 -689.598 714.2 -791 589 -791 c 2
 175 -791 l 2
 33.2562 -791 -99 -711 -99 -591 c 2
 -99 -394 l 2
 -99 -355.333 -63.6667 -316 7 -276 c 2
 166 -186 l 1
 166 -39 l 2
 166 2.57656 130.802 26 98 26 c 1
 98 182 l 1
 168 182 l 2
 271.026 182 350 117.432 350 27 c 2
 350 -106 l 1
 534 -106 l 2
 602.956 -106 664 -164.967 664 -249 c 2
 664 -380 l 2
 664 -450.304 613.039 -501 559 -501 c 2
 270 -501 l 2
 204.133 -501 175 -446.747 175 -405 c 2
 175 -372 l 1
 115.667 -405.333 86 -431.333 86 -450 c 2
 86 -566 l 2
 86 -597.079 131.223 -632 201 -632 c 2
 534 -632 l 2
466 -371 m 1
 501.402 -369.033 507.294 -339.301 508 -328 c 2
 508 -302 l 2
 508 -278.667 494 -267 466 -267 c 2
 349 -267 l 1
 349 -328 l 2
 349 -356.667 358.333 -371 377 -371 c 2
 466 -371 l 1
EndSplineSet
Position2: "SubMove-1" dx=-100 dy=0 dh=0 dv=0
Ligature2: "'blwf' Below Base Forms in Kannada lookup 5 subtable" u0CAE u0CCD
LCarets2: 1 0 

EndChar

StartChar: u0CAF.sub
Encoding: 65628 -1 234
Width: 481
Flags: HW
LayerCount: 2
Fore
SplineSet
507 476 m 2
 583.369 476 636 414.307 636 344 c 2
 638 184 l 1
 454 184 l 1
 454 265 l 2
 454 298.333 440 315 412 315 c 2
 323 315 l 1
 293.921 312.674 272 295.4 272 266 c 2
 272 160 l 2
 272 129.333 284 103 308 81 c 1
 439 -53 l 1
 502.333 -99.6667 534 -160.667 534 -236 c 2
 534 -607 l 2
 534 -711.289 449.663 -789 361 -789 c 2
 -194 -789 l 2
 -268.03 -789 -335 -736.2 -335 -657 c 2
 -335 -590 l 2
 -335 -543.333 -317.333 -504.667 -282 -474 c 1
 -99 -342 l 1
 -65 -313.333 -48 -291.333 -48 -276 c 0
 -48 -251.333 -56.3333 -239 -73 -239 c 2
 -143 -239 l 2
 -165 -239 -176 -251.333 -176 -276 c 2
 -176 -316 l 1
 -363 -316 l 1
 -363 -221 l 2
 -363 -146.727 -304.646 -81 -220 -81 c 2
 -10 -81 l 2
 83.6062 -81 139 -150.337 139 -221 c 2
 139 -300 l 2
 139 -340 112 -380.333 58 -421 c 1
 -100 -526 l 2
 -135.333 -550 -153 -571.333 -153 -590 c 2
 -153 -606 l 1
 -151.667 -621.333 -143.333 -629 -128 -629 c 2
 293 -629 l 2
 332.614 -629 347 -582.08 347 -536 c 2
 347 -298 l 2
 347 -218.667 329 -166.667 293 -142 c 1
 165 -9 l 1
 111 39 84 77.3333 84 106 c 2
 84 317 l 2
 84 404.388 159.028 476 243 476 c 2
 507 476 l 2
EndSplineSet
Position2: "SubMove-1" dx=-150 dy=0 dh=0 dv=0
Ligature2: "'blwf' Below Base Forms in Kannada lookup 5 subtable" u0CAF u0CCD
LCarets2: 1 0 

EndChar

StartChar: u0CAF_base
Encoding: 65629 -1 235
Width: 1874
Flags: HW
LayerCount: 2
Fore
SplineSet
1949 995 m 2
 1949 1079.03 1870.39 1138 1791 1138 c 2
 1474 1138 l 1
 1474 1321 l 1
 1856 1321 l 1
 1931 1297 l 1
 1988.33 1275 2029.33 1252 2054 1228 c 0
 2102.26 1182.42 2158 1121.88 2158 1024 c 2
 2160 270 l 2
 2160 119.342 2045.99 6 1907 6 c 2
 1525 6 l 2
 1417.1 6 1335.56 63.2008 1300 138 c 1
 1257.99 64.7815 1172.44 6 1065 6 c 2
 616 6 l 2
 477.324 6 369 124.692 369 269 c 2
 369 1034 l 2
 369 1197.96 504.914 1323 667 1323 c 2
 1064 1323 l 2
 1231.02 1323 1370 1197.11 1370 1034 c 2
 1370 390 l 2
 1370 272.225 1468.03 189 1579 189 c 2
 1800 189 l 2
 1889.26 189 1949 262.615 1949 335 c 2
 1949 995 l 2
1035 191 m 2
 1100.42 191 1156 248.495 1156 322 c 2
 1156 1024 l 2
 1156 1088.53 1105.65 1141 1050 1141 c 2
 692 1141 l 2
 621.459 1141 575 1077.34 575 1024 c 2
 575 312 l 2
 575 248.129 620.62 191 664 191 c 2
 1035 191 l 2
EndSplineSet
EndChar

StartChar: u0CAF_base_i
Encoding: 65630 -1 236
Width: 2090
Flags: HW
LayerCount: 2
Fore
SplineSet
1907 1553 m 2
 2053.34 1553 2160 1412.29 2160 1265 c 2
 2156 343 l 2
 2156 171.511 2017.57 1 1824 1 c 2
 1549 1 l 2
 1426.02 1 1326.99 55.0188 1288 133 c 1
 1264.57 95.1539 1193.6 -2.48956e-18 1052 0 c 2
 638 0 l 2
 480.372 0 368 142.847 368 286 c 2
 368 1027 l 2
 368 1189.62 512.075 1316 693 1316 c 2
 1064 1316 l 2
 1230.56 1316 1369 1188.09 1369 1027 c 2
 1369 384 l 2
 1369 273.443 1453.13 183 1553 183 c 2
 1828 183 l 2
 1894.56 183 1949 250.637 1949 331 c 2
 1949 1266 l 2
 1949 1316.03 1921.55 1371 1880 1371 c 2
 1817 1371 l 2
 1773.47 1371 1739 1349.4 1739 1317 c 2
 1739 1228 l 2
 1739 1187.09 1771.24 1162 1817 1162 c 2
 1867 1162 l 1
 1867 976 l 1
 1774 976 l 2
 1620.88 976 1528 1098.82 1528 1201 c 2
 1528 1343 l 2
 1528 1459.63 1641.34 1553 1774 1553 c 2
 1907 1553 l 2
1036 183 m 2
 1101.76 183 1157 235.663 1157 314 c 2
 1157 1044 l 2
 1157 1102.5 1097.18 1131 1053 1131 c 2
 692 1131 l 2
 630.365 1131 577 1093.77 577 1044 c 2
 577 304 l 2
 577 240.265 620.002 183 666 183 c 2
 1036 183 l 2
EndSplineSet
EndChar

StartChar: u0CB0.base
Encoding: 65632 -1 239
Width: 1187
Flags: HW
LayerCount: 2
Fore
SplineSet
1242 1293 m 1
 1398.04 1184.88 1513 1009.2 1513 820 c 2
 1512 306 l 2
 1512 138.375 1368.18 1 1192 1 c 2
 683 1 l 2
 496.221 1 351 137.952 351 307 c 2
 351 820 l 2
 351 942.667 404 1047.33 510 1134 c 1
 379 1134 l 1
 379 1318 l 1
 1242 1318 l 1
 1242 1293 l 1
1171 185 m 2
 1246.02 185 1301.71 240.24 1299 316 c 1
 1299 820 l 2
 1299 961.194 1205.04 1076.67 1117 1134 c 1
 747 1134 l 1
 647.795 1075.64 564 962.903 564 820 c 2
 564 316 l 2
 564 244.653 620.177 185 697 185 c 2
 1171 185 l 2
EndSplineSet
EndChar

StartChar: u0CB0.below
Encoding: 65633 -1 240
Width: 42
Flags: HW
LayerCount: 2
Fore
SplineSet
-1143 -200 m 1
 -1124.86 -329.584 -1018.55 -437 -889 -437 c 2
 -98 -437 l 2
 16.6819 -437 157.42 -347.562 184 -176 c 1
 361 -175 l 1
 334.65 -387.558 180.959 -595 -58 -595 c 2
 -923 -595 l 2
 -1158.34 -595 -1325 -382.497 -1325 -200 c 1
 -1143 -200 l 1
EndSplineSet
EndChar

StartChar: u0CB0.imathra
Encoding: 65634 -1 241
Width: 1451
Flags: HW
LayerCount: 2
Fore
SplineSet
360 1528 m 2
 360 1646.92 472.554 1742 607 1742 c 2
 790 1742 l 2
 872 1742 942.333 1711.33 1001 1650 c 1
 1252.99 1439.5 1518 1159.58 1518 941 c 2
 1516 316 l 2
 1516 114.245 1400.7 3 1306 3 c 2
 674 3 l 2
 508.537 3 360 138.78 360 317 c 2
 360 926 l 2
 360 1025.33 411.667 1117.67 515 1203 c 1
 444.97 1239.91 360 1307.45 360 1412 c 2
 360 1528 l 2
653 1557 m 2
 614.226 1557 574 1526.64 574 1495 c 2
 574 1414 l 2
 574 1368.67 600.333 1337.67 653 1321 c 1
 1077 1320 l 1
 922 1479 l 2
 872 1531 826 1557 784 1557 c 2
 653 1557 l 2
1188 188 m 2
 1256.12 188 1305.67 243.756 1307 318 c 1
 1307 927 l 2
 1307 995.667 1276 1065.33 1214 1136 c 1
 703 1136 l 1
 614.333 1048 570 978.333 570 927 c 2
 570 345 l 2
 570 264.859 625.804 188 703 188 c 2
 1188 188 l 2
EndSplineSet
Ligature2: "'abvs' Above Base Substitutions in Kannada lookup 11 subtable" u0CB0 u0CBF
LCarets2: 1 0 

EndChar

StartChar: u0CB0.below.ra
Encoding: 65635 -1 242
Width: 294
Flags: HW
LayerCount: 2
Fore
SplineSet
-159 -475 m 2
 -4.75965 -475 116 -340.167 116 -171 c 2
 116 527 l 1
 300 527 l 1
 301 -159 l 2
 301 -400.432 118.197 -631 -149 -631 c 2
 -492 -631 l 1
 -492 -475 l 1
 -159 -475 l 2
EndSplineSet
Position2: "SubMove-1" dx=-100 dy=0 dh=0 dv=0
Ligature2: "'blwf' Below Base Forms in Kannada lookup 4 subtable" u0CB0 u0CCD
LCarets2: 1 0 

EndChar

StartChar: u0CB0.below.angleright
Encoding: 65636 -1 243
Width: 294
Flags: HW
LayerCount: 2
Fore
SplineSet
788 -341 m 2
 788 -430.573 767.438 -657.56 729 -730 c 1
 658.158 -858.696 521.885 -966 339 -966 c 2
 -298 -966 l 1
 -298 -810 l 1
 329 -810 l 2
 406.333 -810 471.333 -780.333 524 -721 c 0
 573.262 -666.265 602 -462.177 602 -353 c 2
 602 401 l 1
 786 401 l 1
 788 -341 l 2
EndSplineSet
EndChar

StartChar: u0CB0.below.large
Encoding: 65637 -1 244
Width: 40
Flags: HW
LayerCount: 2
Fore
SplineSet
-1677 -200 m 1
 -1658.86 -329.584 -1552.55 -437 -1423 -437 c 2
 -465 -437 l 2
 -350.318 -437 -209.58 -347.562 -183 -176 c 1
 -4 -175 l 1
 -29.5279 -380.925 -178.894 -595 -424 -595 c 2
 -1457 -595 l 2
 -1692.33 -595 -1858 -383.934 -1858 -200 c 1
 -1677 -200 l 1
EndSplineSet
EndChar

StartChar: u0CB0_u0CD6.sub
Encoding: 65638 -1 245
Width: 343
Flags: HW
LayerCount: 2
Fore
SplineSet
-160 -477 m 2
 -5.75965 -477 115 -342.167 115 -173 c 2
 115 525 l 1
 299 525 l 1
 299 -162 l 2
 299 -234.667 283.667 -304.333 253 -371 c 1
 538 -371 l 1
 538 -554 l 1
 299 -554 l 1
 299 -595.981 346.05 -631 407 -631 c 2
 653 -631 l 2
 708.8 -631 746 -590.562 746 -527 c 2
 746 -380 l 2
 746 -334.35 709.705 -288 653 -288 c 2
 537 -288 l 1
 537 -105 l 1
 640 -105 l 2
 703.6 -105 746 -49.3125 746 16 c 2
 746 158 l 2
 746 204.729 719.595 235 679 235 c 2
 432 235 l 1
 432 391 l 1
 758 391 l 2
 853.962 391 933 308.576 933 197 c 2
 933 -14 l 2
 933 -95.1526 884.009 -164.692 827 -187 c 1
 898.872 -214.526 932 -287.166 932 -339 c 2
 932 -561 l 2
 932 -686.491 843.928 -787 731 -787 c 2
 351 -787 l 1
 351 -792 l 1
 205.008 -792 102.478 -674.19 88 -561 c 1
 -10.9972 -626.998 -102.4 -633 -150 -633 c 2
 -493 -633 l 1
 -493 -477 l 1
 -160 -477 l 2
EndSplineSet
EndChar

StartChar: u0CB1
Encoding: 3249 3249 246
Width: 1537
Flags: HW
LayerCount: 2
Fore
SplineSet
1649 1326 m 2
 1788.86 1326 1941 1233.04 1941 1076 c 2
 1938 270 l 2
 1938 128.227 1825.61 7 1675 7 c 1
 1675 2 l 1
 1409 2 l 2
 1295.08 2 1202.07 77.0748 1169 175 c 1
 1134.11 77.8118 1042.06 2 922 2 c 2
 658 2 l 2
 489.312 2 360 124.033 360 266 c 2
 360 1057 l 2
 360 1207.53 481.454 1320 622 1320 c 2
 962 1320 l 1
 962 978 l 2
 962 928 923 868 845 798 c 1
 1439 798 l 1
 1368.33 868.667 1333 930 1333 982 c 2
 1333 1326 l 1
 1649 1326 l 2
1579 193 m 2
 1676.3 193 1723.48 291.634 1730 378 c 1
 1730 1037 l 2
 1730 1095.65 1681.01 1143 1625 1143 c 2
 1544 1143 l 1
 1544 983 l 2
 1544 925.667 1588.33 864.333 1677 799 c 1
 1677 616 l 1
 622 616 l 1
 622 799 l 1
 709.333 870.333 753 931.667 753 983 c 2
 753 1143 l 1
 674 1143 l 2
 620.5 1143 569 1075.19 569 983 c 2
 569 339 l 2
 569 261.89 636.651 193 728 193 c 2
 869 193 l 2
 978.164 193 1064 282.237 1064 402 c 1
 1275 402 l 1
 1275 274.487 1359.21 193 1452 193 c 2
 1579 193 l 2
EndSplineSet
Ligature2: "Ligature Substitution lookup 14 subtable" u0CB1 u0CCD
MultipleSubs2: "Multiple Substitution lookup 13 subtable" u0CB1 u0CCD
LCarets2: 1 0 

EndChar

StartChar: u0CB1.imathra
Encoding: 65639 -1 247
Width: 1537
Flags: HW
LayerCount: 2
Fore
SplineSet
1649 1326 m 2
 1788.86 1326 1941 1233.04 1941 1076 c 2
 1938 270 l 2
 1938 128.227 1825.61 7 1675 7 c 1
 1675 2 l 1
 1409 2 l 2
 1295.08 2 1202.07 77.0748 1169 175 c 1
 1134.11 77.8118 1042.06 2 922 2 c 2
 658 2 l 2
 489.312 2 360 124.033 360 266 c 2
 360 1057 l 2
 360 1207.53 481.454 1320 622 1320 c 2
 962 1320 l 1
 962 978 l 2
 962 928 923 868 845 798 c 1
 1439 798 l 1
 1368.33 868.667 1333 930 1333 982 c 2
 1333 1326 l 1
 1649 1326 l 2
1579 193 m 2
 1676.3 193 1723.48 291.634 1730 378 c 1
 1730 1037 l 2
 1730 1095.65 1681.01 1143 1625 1143 c 2
 1544 1143 l 1
 1544 983 l 2
 1544 925.667 1588.33 864.333 1677 799 c 1
 1677 616 l 1
 622 616 l 1
 622 799 l 1
 709.333 870.333 753 931.667 753 983 c 2
 753 1143 l 1
 674 1143 l 2
 620.5 1143 569 1075.19 569 983 c 2
 569 339 l 2
 569 261.89 636.651 193 728 193 c 2
 869 193 l 2
 978.164 193 1064 282.237 1064 402 c 1
 1275 402 l 1
 1275 274.487 1359.21 193 1452 193 c 2
 1579 193 l 2
1241 1848 m 2
 1314.48 1848 1363 1795 1363 1727 c 2
 1362 1534 l 2
 1362 1444.47 1300.53 1369 1223 1369 c 2
 1015 1368 l 1
 1015 1485 l 1
 1190 1485 l 2
 1214.06 1485 1230 1507.04 1230 1533 c 2
 1230 1699 l 2
 1230 1721 1219 1732 1197 1732 c 2
 1125 1732 l 2
 1108.48 1732 1100 1718.92 1100 1700 c 2
 1100 1677 l 2
 1100 1658.37 1115.71 1644 1129 1644 c 2
 1164 1644 l 1
 1164 1530 l 1
 1080 1530 l 2
 1013.11 1530 966 1570.1 966 1616 c 2
 966 1733 l 2
 966 1800.91 1018.17 1848 1093 1848 c 2
 1241 1848 l 2
EndSplineSet
Ligature2: "'abvs' Above Base Substitutions in Kannada lookup 11 subtable" u0CB1 u0CBF
LCarets2: 1 0 

EndChar

StartChar: u0CB1.sub
Encoding: 65640 -1 248
Width: 294
Flags: HW
LayerCount: 2
Fore
SplineSet
500 -81 m 2
 611.363 -81 695 -169.207 695 -276 c 2
 694 -539 l 2
 694 -629.259 609.88 -713 507 -713 c 2
 206 -713 l 2
 140 -713 88 -672.667 50 -592 c 1
 22.6804 -656.142 -46.0908 -713 -125 -713 c 2
 -398 -713 l 2
 -500.812 -713 -585 -629.313 -585 -539 c 2
 -585 -276 l 2
 -585 -164.637 -496.793 -81 -390 -81 c 2
 -109 -81 l 1
 -167 -250 l 1
 297 -250 l 1
 219 -81 l 1
 500 -81 l 2
455 -552 m 2
 479.78 -552 505.238 -526.856 508 -502 c 1
 508 -288 l 2
 508 -257.651 487.53 -241.442 457 -239 c 1
 403 -239 l 1
 403 -344 l 1
 -291 -344 l 1
 -291 -239 l 1
 -345 -239 l 1
 -375.613 -241.449 -396 -257.58 -396 -288 c 2
 -396 -502 l 2
 -396 -526.194 -371.72 -553 -345 -553 c 2
 -187 -553 l 2
 -110.875 -553 -55 -497.31 -55 -432 c 2
 -55 -371 l 1
 156 -371 l 1
 156 -449 l 2
 156 -504.27 189.164 -552 233 -552 c 2
 455 -552 l 2
EndSplineSet
Position2: "SubMove-1" dx=-100 dy=0 dh=0 dv=0
Ligature2: "'blwf' Below Base Forms in Kannada lookup 5 subtable" u0CB1 u0CCD
Ligature2: "'abvs' Above Base Substitutions in Kannada lookup 2 subtable" u0CB1 u0CCD
LCarets2: 1 0 

EndChar

StartChar: u0CB2
Encoding: 3250 3250 249
Width: 1663
Flags: HW
LayerCount: 2
Fore
SplineSet
1448 1315 m 2
 1612.6 1315 1728 1184.86 1728 1027 c 2
 1727 333 l 2
 1727 152.222 1586.75 1 1410 1 c 2
 646 1 l 2
 495.034 1 359 130.681 359 317 c 2
 359 1030 l 2
 359 1202.2 502.191 1317 657 1317 c 2
 988 1317 l 1
 988 1028 l 2
 988 866.4 860.484 736 700 736 c 2
 646 736 l 1
 646 923 l 1
 700 923 l 2
 730.4 923 776 946.002 776 1015 c 2
 776 1131 l 1
 656 1131 l 2
 613.1 1131 567 1084.69 567 1026 c 2
 567 329 l 2
 567 260.87 617.158 208 672 208 c 2
 1386 208 l 2
 1440.77 208 1492 265.213 1492 339 c 2
 1492 1043 l 2
 1492 1094.39 1457.37 1131 1410 1131 c 2
 1282 1131 l 1
 1282 1315 l 1
 1448 1315 l 2
EndSplineSet
Substitution2: "Single Substitution lookup 15 subtable" u0CB2.base
Ligature2: "Ligature Substitution lookup 14 subtable" u0CB2 u0CCD
LCarets2: 1 0 

EndChar

StartChar: u0CB2.base
Encoding: 65641 -1 250
Width: 1400
Flags: HW
LayerCount: 2
Fore
SplineSet
1415 1313 m 2
 1597.27 1313 1728 1153.8 1728 987 c 2
 1727 306 l 2
 1727 131.817 1597.21 -10 1437 -10 c 2
 656 -10 l 1
 656 1 l 1
 502.638 1 358 133.378 358 316 c 2
 358 1018 l 2
 358 1191.8 496.846 1318 657 1318 c 2
 988 1318 l 1
 988 1018 l 2
 988 861.735 863.525 738 711 738 c 2
 647 738 l 1
 647 925 l 1
 728 925 l 2
 748 925 778 941.65 778 1002 c 2
 778 1133 l 1
 673 1133 l 2
 616.296 1133 568 1084.64 568 1028 c 2
 568 315 l 2
 568 261.484 618.49 212 684 212 c 2
 1386 212 l 2
 1454.55 212 1517 264.829 1517 343 c 2
 1517 977 l 2
 1517 1063.9 1458.14 1129 1386 1129 c 2
 1253 1129 l 1
 1253 1313 l 1
 1415 1313 l 2
EndSplineSet
EndChar

StartChar: u0CB2.imathra
Encoding: 65642 -1 251
Width: 1663
Flags: HW
LayerCount: 2
Fore
SplineSet
1473 1554 m 2
 1610.07 1554 1720 1428.68 1720 1267 c 2
 1722 337 l 2
 1722 165.636 1587.26 -4 1381 -4 c 2
 641 -4 l 1
 641 1 l 1
 486.077 1 352 153.616 352 343 c 2
 352 1019 l 2
 352 1180.42 480.32 1319 657 1319 c 2
 983 1319 l 1
 983 1030 l 2
 983 866.794 864.931 738 722 738 c 2
 641 738 l 1
 641 925 l 1
 695 925 l 2
 741.2 925 772 973.338 772 1029 c 2
 772 1134 l 1
 656 1134 l 2
 604.926 1134 561 1084.13 561 1019 c 2
 561 338 l 2
 561 258.518 623.456 208 681 208 c 2
 1395 208 l 2
 1453.88 208 1511 270.833 1511 357 c 2
 1511 1264 l 2
 1511 1321.7 1489.8 1369 1458 1369 c 2
 1407 1369 l 2
 1364.47 1369 1328 1343 1328 1304 c 2
 1328 1211 l 2
 1328 1180.4 1356.65 1160 1380 1160 c 2
 1458 1160 l 1
 1458 973 l 1
 1370 973 l 2
 1225.32 973 1116 1085.15 1116 1200 c 2
 1116 1305 l 2
 1116 1442.46 1236.98 1554 1380 1554 c 2
 1473 1554 l 2
EndSplineSet
Ligature2: "'abvs' Above Base Substitutions in Kannada lookup 11 subtable" u0CB2 u0CBF
LCarets2: 1 0 

EndChar

StartChar: u0CB2.sub
Encoding: 65643 -1 252
Width: 316
Flags: HW
LayerCount: 2
Fore
SplineSet
426 -134 m 2
 528.023 -134 636 -214.629 636 -342 c 1
 638 -592 l 2
 638 -697.019 575.6 -791 482 -791 c 2
 323 -791 l 1
 323 -632 l 1
 387 -632 l 2
 421.69 -632 453 -603.258 453 -565 c 2
 453 -371 l 2
 453 -313.527 414.1 -290 376 -290 c 2
 200 -290 l 2
 135.232 -290 85 -329.428 85 -381 c 2
 85 -528 l 1
 -126 -528 l 1
 -126 -405 l 2
 -126 -346.425 -167.419 -290 -218 -290 c 2
 -377 -290 l 2
 -399.325 -290 -439 -310.2 -439 -356 c 2
 -439 -592 l 2
 -439 -614.725 -409.4 -632 -388 -632 c 2
 -334 -632 l 1
 -334 -791 l 1
 -440 -791 l 2
 -539.327 -791 -623 -720.986 -623 -633 c 2
 -623 -328 l 2
 -623 -207.314 -529.766 -134 -430 -134 c 2
 -176 -134 l 2
 -101.254 -134 -44.599 -186.961 -22 -250 c 1
 18.6667 -172.667 75.6667 -134 149 -134 c 2
 426 -134 l 2
EndSplineSet
Position2: "SubMove-1" dx=-100 dy=0 dh=0 dv=0
Ligature2: "'blwf' Below Base Forms in Kannada lookup 5 subtable" u0CB2 u0CCD
LCarets2: 1 0 

EndChar

StartChar: u0CB3.base
Encoding: 65644 -1 254
Width: 1178
Flags: HW
LayerCount: 2
Fore
SplineSet
1184 1317 m 1
 1360.5 1300.95 1500 1174.12 1500 1017 c 2
 1500 765 l 2
 1500 604.895 1390.24 476 1246 476 c 2
 1158 476 l 1
 1192 453.333 1209 424 1209 388 c 2
 1209 213 l 2
 1209 113.531 1139.99 4 1025 4 c 2
 682 4 l 2
 577.172 4 498 88.7812 498 177 c 2
 498 336 l 2
 498 381.333 528.333 428.667 589 478 c 1
 473 478 l 2
 306.786 478 180 612.373 180 767 c 2
 180 1098 l 2
 180 1221.47 304.322 1320 445 1320 c 2
 816 1320 l 1
 816 1020 l 2
 816 893.947 717.726 794 605 794 c 2
 499 794 l 1
 499 978 l 1
 550 978 l 2
 593.2 978 604 1020.64 604 1046 c 2
 604 1134 l 1
 483 1134 l 2
 441.851 1134 394 1117.1 394 1080 c 2
 394 781 l 2
 394 722.456 453.101 660 534 660 c 2
 1142 660 l 2
 1223.38 660 1288 722.987 1288 792 c 2
 1288 1003 l 2
 1288 1055 1252.39 1114.7 1167 1133 c 1
 920 1133 l 1
 920 1317 l 1
 1184 1317 l 1
920 184 m 2
 966.336 184 996.68 234.181 998 287 c 1
 998 385 l 2
 998 425.667 975.667 455 931 473 c 1
 797 473 l 1
 738.333 443.667 709 405.333 709 358 c 2
 709 287 l 2
 709 234.619 749.488 184 797 184 c 2
 920 184 l 2
EndSplineSet
EndChar

StartChar: u0CB3.imathra
Encoding: 65645 -1 255
Width: 1446
Flags: HW
LayerCount: 2
Fore
SplineSet
1307 1558 m 2
 1415.34 1558 1503 1449.35 1503 1308 c 2
 1500 737 l 2
 1500 596.75 1402.75 476 1279 476 c 2
 1158 476 l 1
 1192 453.333 1209 415 1209 361 c 2
 1209 161 l 2
 1209 75.472 1151.07 2 1075 2 c 2
 656 2 l 2
 566.352 2 499 88.3324 499 175 c 2
 499 361 l 2
 499 399 521.667 437.333 567 476 c 1
 474 476 l 2
 307.786 476 181 610.373 181 765 c 2
 181 1096 l 2
 181 1219.47 305.322 1318 446 1318 c 2
 789 1318 l 1
 789 1018 l 2
 789 895.625 712.092 792 606 792 c 2
 500 792 l 1
 500 976 l 1
 551 976 l 2
 594.2 976 605 1018.64 605 1044 c 2
 605 1132 l 1
 489 1132 l 2
 412.837 1132 395 1080.51 395 1055 c 2
 395 808 l 2
 395 719.2 469.65 660 541 660 c 2
 1175 660 l 2
 1237.83 660 1290 716.981 1290 793 c 2
 1290 1284 l 2
 1290 1333.28 1264.8 1374 1227 1374 c 2
 1176 1374 l 2
 1120.7 1374 1079 1339.95 1079 1295 c 2
 1079 1214 l 2
 1079 1174.89 1123.08 1136 1161 1136 c 2
 1187 1136 l 1
 1187 953 l 1
 1017 953 l 2
 936.027 953 871 1032.42 871 1124 c 2
 871 1362 l 2
 871 1481.23 949.207 1558 1029 1558 c 2
 1307 1558 l 2
924 187 m 2
 967.956 187 1002.33 225.9 1001 267 c 1
 1001 387 l 2
 1001 428.507 968.746 468.533 939 475 c 1
 780 475 l 1
 735.333 457 713 429.333 713 392 c 2
 713 271 l 2
 713 228.111 741.961 192 780 192 c 1
 780 187 l 1
 924 187 l 2
EndSplineSet
Ligature2: "'abvs' Above Base Substitutions in Kannada lookup 11 subtable" u0CB3 u0CBF
LCarets2: 1 0 

EndChar

StartChar: u0CB3.sub
Encoding: 65646 -1 256
Width: 275
Flags: HW
LayerCount: 2
Fore
SplineSet
366 473 m 1
 485.568 417.115 565 284.474 565 104 c 1
 560 -301 l 1
 560 -430.103 477.394 -527 387 -527 c 2
 295 -527 l 1
 295 -685 l 2
 295 -746.162 236.249 -790 169 -790 c 2
 -57 -790 l 2
 -118.381 -790 -172 -747.6 -172 -684 c 2
 -172 -526 l 1
 -331 -526 l 2
 -453.304 -526 -542 -429.992 -542 -327 c 2
 -542 -249 l 2
 -542 -136.522 -465.345 -55 -374 -55 c 2
 -95 -55 l 1
 -95 -301 l 1
 -254 -301 l 1
 -254 -212 l 1
 -321 -212 l 2
 -350.6 -212 -358 -236.975 -358 -249 c 2
 -358 -327 l 1
 -355.113 -352.98 -312.119 -370 -278 -370 c 2
 312 -370 l 2
 351.648 -370 382 -323.64 382 -276 c 2
 382 149 l 2
 382 236.539 325.207 317.66 250 341 c 1
 366 473 l 1
116 -610 m 1
 116 -529 l 1
 11 -529 l 1
 11 -620 l 2
 11 -646.667 20 -660 38 -660 c 2
 88 -660 l 2
 105.333 -660 114.667 -643.333 116 -610 c 1
EndSplineSet
Position2: "SubMove-1" dx=-100 dy=0 dh=0 dv=0
Ligature2: "'blwf' Below Base Forms in Kannada lookup 5 subtable" u0CB3 u0CCD
LCarets2: 1 0 

EndChar

StartChar: u0CB5.base
Encoding: 65647 -1 258
Width: 1491
Flags: HW
LayerCount: 2
Fore
SplineSet
1548 1280 m 1
 1697.9 1238.78 1817 1089.18 1817 896 c 2
 1817 288 l 2
 1817 135.272 1690.43 3.58708e-18 1525 0 c 2
 1299 0 l 2
 1186.75 0 1095.45 63.3515 1077 149 c 1
 1065.71 58.6612 993.333 -1.65727e-18 922 0 c 2
 525 0 l 2
 410.191 0 316 100.797 316 226 c 2
 316 791 l 1
 685 791 l 2
 790.697 791 869 690.529 869 569 c 2
 869 449 l 1
 658 449 l 1
 658 542 l 2
 658 578.45 637.6 607 607 607 c 2
 526 607 l 1
 526 287 l 2
 526 237.8 568.647 184 630 184 c 2
 851 184 l 2
 920.828 184 972 231.373 972 287 c 2
 972 526 l 1
 1186 526 l 1
 1186 315 l 2
 1186 243.947 1234.4 184 1298 184 c 2
 1501 184 l 2
 1555.23 184 1606 234.901 1606 305 c 2
 1606 895 l 2
 1606 1032.32 1492.51 1132 1342 1132 c 2
 367 1132 l 1
 367 1316 l 1
 1548 1316 l 1
 1548 1280 l 1
EndSplineSet
EndChar

StartChar: u0CB5.imathra
Encoding: 65648 -1 259
Width: 1751
Flags: HW
LayerCount: 2
Fore
SplineSet
1581 1557 m 2
 1701.97 1557 1818 1429.95 1818 1241 c 2
 1817 316 l 2
 1817 143.041 1707.58 0 1563 0 c 2
 1275 0 l 2
 1175.45 0 1092.18 69.5689 1077 148 c 1
 1066.64 65.139 993.77 -1 895 -1 c 2
 526 -1 l 2
 411.191 -1 317 99.7973 317 225 c 2
 317 790 l 1
 617 790 l 2
 757.4 790 851 670.325 851 542 c 2
 851 449 l 1
 641 449 l 1
 641 516 l 2
 641 567.332 611.747 608 563 608 c 2
 526 608 l 1
 526 288 l 2
 526 238.8 568.647 185 630 185 c 2
 844 185 l 2
 914.711 185 972 237.4 972 316 c 2
 972 527 l 1
 1186 527 l 1
 1186 316 l 2
 1186 244.947 1234.4 185 1298 185 c 2
 1501 185 l 2
 1557.12 185 1605 249.7 1605 333 c 2
 1605 1240 l 2
 1605 1303 1573 1345 1525 1345 c 2
 1432 1345 l 2
 1400.46 1345 1372 1323.13 1372 1294 c 2
 1372 1163 l 2
 1372 1130.76 1400.33 1110 1421 1110 c 2
 1526 1110 l 1
 1526 927 l 1
 1398 927 l 2
 1260.69 927 1161 1034.46 1161 1152 c 2
 1161 1307 l 2
 1161 1449.88 1280.68 1557 1422 1557 c 2
 1581 1557 l 2
EndSplineSet
Ligature2: "'abvs' Above Base Substitutions in Kannada lookup 11 subtable" u0CB5 u0CBF
LCarets2: 1 0 

EndChar

StartChar: u0CB5.sub
Encoding: 65649 -1 260
Width: 294
Flags: HW
LayerCount: 2
Fore
SplineSet
349 -185 m 2
 390.01 -185 416 -151.676 416 -118 c 2
 416 65 l 1
 602 65 l 1
 602 -135 l 2
 602 -183 575 -227 521 -267 c 1
 575 -290.333 602 -328.333 602 -381 c 2
 603 -554 l 2
 603 -642.309 541.801 -713 472 -713 c 2
 206 -713 l 2
 140 -713 88 -672.667 50 -592 c 1
 22.6804 -656.142 -46.0908 -713 -125 -713 c 2
 -398 -713 l 2
 -500.812 -713 -585 -629.313 -585 -539 c 2
 -585 -276 l 2
 -585 -164.637 -496.793 -81 -390 -81 c 2
 -109 -81 l 1
 -109 -344 l 1
 -292 -344 l 1
 -292 -239 l 1
 -346 -239 l 1
 -376.613 -241.449 -397 -257.58 -397 -288 c 2
 -397 -502 l 2
 -397 -526.194 -372.72 -553 -346 -553 c 2
 -188 -553 l 2
 -111.875 -553 -56 -497.31 -56 -432 c 2
 -56 -371 l 1
 155 -371 l 1
 155 -449 l 2
 155 -504.27 188.164 -552 232 -552 c 2
 365 -552 l 2
 397.082 -552 416 -523.823 416 -501 c 2
 416 -394 l 1
 412.397 -348.958 380.201 -343 366 -343 c 2
 207 -343 l 1
 207 -185 l 1
 349 -185 l 2
EndSplineSet
Position2: "SubMove-1" dx=-100 dy=0 dh=0 dv=0
Ligature2: "'blwf' Below Base Forms in Kannada lookup 5 subtable" u0CB5 u0CCD
LCarets2: 1 0 

EndChar

StartChar: u0CB6.base
Encoding: 65650 -1 262
Width: 1129
Flags: HW
LayerCount: 2
Fore
SplineSet
1185 1281 m 1
 1332.14 1212.9 1451 1057.7 1451 847 c 2
 1451 275 l 2
 1451 103.873 1324.28 -5 1204 -5 c 2
 544 -5 l 2
 407.313 -5 290 87.2047 290 205 c 2
 290 471 l 2
 290 583.2 396.084 658 528 658 c 2
 845 658 l 2
 919.7 658 976 733.022 976 818 c 2
 976 1068 l 2
 976 1092.06 961.873 1131 897 1131 c 2
 686 1131 l 2
 640.4 1131 610 1093.9 610 1043 c 2
 610 973 l 2
 610 942.974 641.433 922 677 922 c 0
 699.2 922 714 950.75 714 973 c 2
 714 1052 l 1
 925 1052 l 1
 925 921 l 2
 925 816.499 848.69 734 755 734 c 2
 583 734 l 2
 480.555 734 397 824.094 397 920 c 2
 397 1024 l 2
 397 1048.67 415 1081.33 451 1122 c 1
 318 1122 l 1
 318 1306 l 1
 1185 1306 l 1
 1185 1281 l 1
1127 174 m 2
 1187.84 174 1244.15 230.397 1240 294 c 1
 1240 847 l 2
 1240 923 1222.33 979.667 1187 1017 c 1
 1187 779 l 2
 1187 627.566 1071.09 466 873 466 c 2
 612 466 l 2
 547.758 466 507 420.086 507 376 c 2
 507 271 l 2
 507 216.068 549.988 174 601 174 c 2
 1127 174 l 2
EndSplineSet
EndChar

StartChar: u0CB6.imathra
Encoding: 65651 -1 263
Width: 1346
Flags: HW
LayerCount: 2
Fore
SplineSet
1130 1233 m 1
 1285.71 1145.95 1395 1011.6 1395 864 c 2
 1395 343 l 2
 1395 132.227 1252.22 1 1121 1 c 2
 524 1 l 2
 391.681 1 287 109.55 287 227 c 2
 287 466 l 2
 287 573.569 405.5 658 551 658 c 2
 777 658 l 2
 854.665 658 920 725.505 920 807 c 2
 920 1054 l 2
 920 1081.95 907 1132 855 1132 c 2
 788 1132 l 1
 824 1085.33 842 1056 842 1044 c 2
 842 895 l 2
 842 823.653 785.823 764 709 764 c 2
 540 764 l 2
 444.092 764 367 842.523 367 938 c 2
 367 1094 l 2
 367 1213.22 488.42 1316 645 1316 c 2
 920 1316 l 1
 920 1421 l 1
 656 1421 l 2
 561.8 1421 499 1504.79 499 1577 c 2
 499 1711 l 2
 499 1782.23 567.413 1841 657 1841 c 2
 960 1841 l 2
 1062.02 1841 1130 1774.91 1130 1699 c 2
 1130 1233 l 1
684 1616 m 2
 684 1589.23 725.83 1574 762 1574 c 2
 919 1572 l 1
 919 1650 l 2
 919 1681.8 890.35 1703 854 1703 c 2
 751 1703 l 2
 712.588 1703 684 1684.83 684 1667 c 2
 684 1616 l 2
620 923 m 1
 642.2 923 655.994 955.895 657 973 c 1
 657 1043 l 2
 657 1083.67 645 1111 621 1125 c 1
 592.333 1119.67 578 1085 578 1021 c 2
 578 956 l 1
 580.933 932.533 603.2 918 620 918 c 1
 620 923 l 1
1002 176 m 2
 1105.75 176 1187.63 247.392 1185 325 c 1
 1185 879 l 2
 1185 941 1167 984.333 1131 1009 c 1
 1131 799 l 2
 1131 615.398 990.607 468 817 468 c 2
 595 468 l 2
 544.463 468 501 441.2 501 401 c 2
 501 273 l 2
 501 217.435 545.076 176 596 176 c 2
 1002 176 l 2
EndSplineSet
Ligature2: "'abvs' Above Base Substitutions in Kannada lookup 11 subtable" u0CB6 u0CBF
LCarets2: 1 0 

EndChar

StartChar: u0CB6.sub
Encoding: 65652 -1 264
Width: 316
Flags: HW
LayerCount: 2
Fore
SplineSet
691 -52 m 2
 801.836 -52 900 -114.727 900 -208 c 2
 902 -613 l 2
 902 -711.628 827.169 -786 720 -786 c 2
 35 -786 l 1
 35 -791 l 1
 -40.4673 -791 -98 -741.888 -98 -685 c 2
 -98 -510 l 2
 -98 -452.567 -45.825 -394 36 -394 c 2
 362 -394 l 2
 396.298 -394 428 -365.752 428 -327 c 2
 428 -211 l 1
 283 -211 l 2
 240.333 -211 219 -219.667 219 -237 c 2
 219 -315 l 1
 36 -315 l 1
 36 -184 l 2
 36 -104.364 117.8 -56 201 -56 c 2
 427 -56 l 1
 427 280 l 2
 427 374.277 343.116 447.301 245 463 c 1
 307 594 l 1
 452.054 553.006 612 448.34 612 281 c 2
 612 -52 l 1
 691 -52 l 2
648 -629 m 2
 683.643 -629 717 -593.965 717 -551 c 2
 717 -273 l 2
 717 -235.2 687.425 -210 647 -210 c 2
 611 -210 l 1
 611 -341 l 2
 611 -464.738 528.085 -551 437 -551 c 2
 121 -551 l 2
 100.312 -551 84 -565.791 84 -590 c 0
 84 -616 92.6667 -629 110 -629 c 2
 648 -629 l 2
EndSplineSet
Position2: "SubMove-1" dx=-100 dy=0 dh=0 dv=0
Ligature2: "'blwf' Below Base Forms in Kannada lookup 5 subtable" u0CB6 u0CCD
LCarets2: 1 0 

EndChar

